/* XPM */
static char *clt1675858217[] = {
/* columns rows colors chars-per-pixel */
"50 50 158 2 ",
"   c #3B550C",
".  c #3D5C0C",
"X  c #334918",
"o  c #3D5513",
"O  c #3D5B11",
"+  c #365619",
"@  c #3C571E",
"#  c #3C5A1E",
"$  c #3E640A",
"%  c #2C472C",
"&  c #354B2A",
"*  c #354C22",
"=  c #395523",
"-  c #3F5927",
";  c #39542B",
":  c #3B582D",
">  c #2B4030",
",  c #3A4E38",
"<  c #334A37",
"1  c #3E5435",
"2  c #415E0D",
"3  c #415D12",
"4  c #405D18",
"5  c #43640D",
"6  c #49670D",
"7  c #456A0C",
"8  c #496C0D",
"9  c #47700B",
"0  c #4C720D",
"q  c #4F780D",
"w  c #50760E",
"e  c #537A0E",
"r  c #456411",
"t  c #496614",
"y  c #466911",
"u  c #4B6C12",
"i  c #42621A",
"p  c #496419",
"a  c #4D6C19",
"s  c #506F15",
"d  c #506E19",
"f  c #4E7211",
"g  c #4F7910",
"h  c #4F711A",
"j  c #517413",
"k  c #547A13",
"l  c #597D17",
"z  c #527219",
"x  c #567B18",
"c  c #405633",
"v  c #465D38",
"b  c #425936",
"n  c #436423",
"m  c #4A6731",
"M  c #49623D",
"N  c #1C2C47",
"B  c #1F3C59",
"V  c #2C3E43",
"C  c #213D4B",
"Z  c #313968",
"A  c #252675",
"S  c #272B78",
"D  c #2C2D72",
"F  c #2E4B45",
"G  c #344841",
"H  c #31404C",
"J  c #3D4F49",
"K  c #3E5448",
"L  c #384750",
"P  c #3A485B",
"I  c #384162",
"U  c #374A6B",
"Y  c #485D45",
"T  c #4A5D52",
"R  c #4F5D66",
"E  c #4F5A6D",
"W  c #57636F",
"Q  c #5B657C",
"!  c #56810F",
"~  c #5A830E",
"^  c #598213",
"/  c #1C4687",
"(  c #174295",
")  c #14429C",
"_  c #2D4B82",
"`  c #364A9B",
"'  c #31579F",
"]  c #1444A7",
"[  c #154BAA",
"{  c #2F4FA7",
"}  c #274FAA",
"|  c #315FAE",
" . c #2356B2",
".. c #305AB1",
"X. c #1B60BE",
"o. c #3663A7",
"O. c #2464BE",
"+. c #444980",
"@. c #474788",
"#. c #51518D",
"$. c #595E8F",
"%. c #474890",
"&. c #585897",
"*. c #59599C",
"=. c #5D6583",
"-. c #64698E",
";. c #626A86",
":. c #687087",
">. c #6A708F",
",. c #707890",
"<. c #777B9D",
"1. c #5D6BAE",
"2. c #6E7CAF",
"3. c #7677A7",
"4. c #6371B1",
"5. c #6A78B7",
"6. c #6868A4",
"7. c #1F63C0",
"8. c #206FCA",
"9. c #3476C7",
"0. c #2279D1",
"q. c #297DD3",
"w. c #7B81A0",
"e. c #2E90E1",
"r. c #7B8AC0",
"t. c #8A8FAA",
"y. c #8F92AF",
"u. c #8686B4",
"i. c #8E8FB4",
"p. c #8D8EB8",
"a. c #8D90B2",
"s. c #999CB7",
"d. c #9494BB",
"f. c #9A9BBE",
"g. c #9293B2",
"h. c #A3A4B9",
"j. c #9494C1",
"k. c #9D9DC1",
"l. c #9FB9DE",
"z. c #A5A5C4",
"x. c #ABABC5",
"c. c #ADAECA",
"v. c #B0AFC3",
"b. c #AFB0CD",
"n. c #B1B1C9",
"m. c #BBBBCD",
"M. c #BCBCC6",
"N. c #A3BCDE",
"B. c #BDBDD6",
"V. c #C4C4D4",
"C. c #C9C9D5",
"Z. c #CCCCDB",
"A. c #D1D1DC",
"S. c #D7D7E2",
"D. c #DBDBE3",
"F. c #CBECFE",
"G. c #E1E1E7",
"H. c #E1E1E8",
/* pixels */
"p u 5 2 0 5 0 6 p x 0 6 0 8 2 8 5 5 y 2 2   2     5 5 5   2 w 7 r . 4 t d u u 7 9 e 7 .   8 s 7 8 5 ",
"$ 8 8 0 6 y y u y a k 8 0 7 8   8 5 2 $ 7 0 7 9 6 8 6 5 9 0 2 7 j u s 0 u 6 0 5 7 . 5 8 2 5 7 w k 8 ",
"r y 5 5 9 8 p u f 0 9 7 0 $ 8 f 5 5 8 5 8 7 7 6 9 7 6 9 5 7 . 5 j j a 0 6 5 $ t 8 5 2 9 7 8 5 9 6 $ ",
"j 8 u 3 5 8 d l u e $ . 3 8 5 5 $ $ y 2 2 8 . 5 9 7 2 2 6 0 9 5 0 a 5 0 5 r f y $   9 8 7 8 8 6 6 8 ",
"y 5 8 u r a l 6 f f 7 0 r .   7 0 8 0 $ . 2 . $ e 5 8 2 5 5 8 5 7 e 5 7 5 $ 6 0 7 7 8 5 7 8 5 6 5 7 ",
"t 5 5 a r p 8 $ 7 6 9 0 5 8 5 6 0 7 7 0 7 8 0 . 7 5 7 0 8 7 0 8 5 f 6 $ 8 0 $ w 8 9 0 8 8 5 $ 9 0 9 ",
"3 a 5 y y u 0 0 r 7 0 8 $ 5 8 7 r 6 0 r 9 0 j 6 5 8 5 5 5 8 8 8 7 8 0 5 y 2 8 y 8 7 9 6 5 8 . 7 8 7 ",
"6 u h h u 5 2 8 8 6 8 5 5 5 w 5 5 8 6 y 0 0 6 0 5 2 8 2 5 8 5 8 8 5 5 8 4 5 8 2 w 9 w 9 5 2 5 2 8 8 ",
"u t u 5 5 5 $ 8 7 5 8 7 5 5 0 $ 5 $ 7 w 9 7 5 8 5 0 6 $ 5 5 $ 8 5 5 i N = 7 e 7 9 8 8 8 8 8 8 8 $ 7 ",
"  2 f 6 8 8 0 u 7 0 0 $ 0 f 7 $ 8 7 5 8 0 $ 5 8 j 5 $ 5 w 5 5 5 5 & +.S y 8 8 . 9 0 8 8 5 5 7 8 $ 0 ",
". 0 7 7 5 f u   5 2 8 9 y f 5 5 2 2   5 8 5 e 5 2 5 6 5 g . 0 y , 3.j.L 5 . u 8 5 . 7 8 $ 5 0 u 8 u ",
"p 8 7 $ 6 7 $ 6 8 8 0 6 0 7 5 y 8 8 5 7 5 2 h k 7 7 y 8 0 6 O R c.j.3.+ $ 0 7 0 2 5 u y 8 8 8 6 $ 5 ",
"5 0 ! y f 0 7 8 5 0 7 5 2 7 8 6 7 8 7 9 8 . 7 p z j y 7 8 n ,.V.k.f.J 5 8 0 7 9 6 8 . 5 . 7 5 . r 8 ",
"3 r 9 $ 6 0 0 8 5 8 7 7 8 9 8 0 8 8 5 6 3 y f 5 j 8 . 2 K s.Z.f.c.>.t . 5 6 5 8 2 2 7 8 8 5 7 8 r 0 ",
"r 6 0 6 u 7 $ 8 7 . 5 5 0 7 7 5 5 8 2 5 y r i u 0 $ 4 ;.Z.C.z.z.d.K $ 5 5 5 5 8 7 0 8 7 5 0 y q $ 5 ",
"5 7 f $ 9 7 . 0 7 ~ 0 5 5 5   ! 9 $ u 0 6 a f $ r ; a.S.C.x.x.z.<.i 0 2 8 9 . . $ 5 8 7 8 7 0 6 . 7 ",
"r 8 y $ 0 u 5 2 7 f 9 7 5 5 . 5 8 y d j y u 0 5 c t.S.C.m.z.x.x.R r 2 5 3 0 . 8 y 5 6 5 6 $ 0 8 $ 0 ",
"3 8 5 6 w 8 6 y 7 w 0 9 0 2 0 5 5 j d s t 2 3 T v.G.A.m.z.m.v.y.m 7 8 8 . 0 6 5 7 0 6 8 8 8 8 6 $ f ",
"3 2 u 2 5 7 $ 5 6 y 0 0 0 5 f 5 5 6 w f 0 n W V.G.A.m.x.z.z.M.Q 3 5 $ $ 7 $ f 8 5 f z u u 5 5 6 y g ",
"3 5 5 $ 8 0 r 5 8 0 7 7 5 2 6 u a 6 6 5 # &.k.z.x.b.n.x.d.h.h.M y 2 y 8 6 $ 5 8 y f u j u $ 7 8 2 7 ",
". 5 j 0 0 8 . 5 7 7 0 0 y j 3 d h 8 . 2 c B.D.C.C.V.m.z.d.k.:.t 2 6 0 8 O 5 0 u r 7 k f 6 9 5 8 y 7 ",
". w 8 0 8 7 5 5 6 7 2 8 u y t 8 8 8 5 8 v B.D.C.C.V.z.x.d.d.Y 0 $ 5 y 8 y 0 $ h g u 0 8 5 5 8 7 g 0 ",
"4 y $ 5 0 5 8 u 9 8 . . u y 4 f 0 5 7 w b B.S.C.C.m.z.f.f.3.# 9 5 8 7 $ 0 u h k ^ h q 5 9 2 5 7 0 0 ",
"r 7 0 7 r 0 5 9 8 f q 6 k a o 5 7 8 y 0 , b.C.C.V.z.z.d.k.R 7 6 5 8 5 7 h u t u y $ 5 5 w w 0 5 0 $ ",
"y 0 7 5 0 2 8 9 5 5 s z x y 5 r 7 $ q $ F ..} j.s.d.k.d.a.& 8 8 6 7 7 0 a y ! y 5 8 u y $ 7 O . $ $ ",
"5 j 0 8 7 $ 5 6 5 8 0 6 h 7 8 0 5 9 k < o. .e.1.x.c.n.u.I 8 0 5 e 8 7 y 5 r h 7 0 u 9 7 7 0 8 5 6 3 ",
"5 j 7 8 8 2 5 5 a a k f 5 f O 5 8 8 ; ' q.7.] < < < V H # 8 0 7 2 u a z h q . . 5 8 7 y 0 6 5 6 9 u ",
"j 2 2 2 2 5 6 5 u j 5 w 5 8 7 5 7 = o.e.0.] C $ 2 h p 5 7 e u e l s 8 z r 0 0 y 8 8 6 7 8 5 5 y f 8 ",
"o   $ . 8 w 7 8 u f . 7 5 f 7 O O _ }  .[ B   7 7 7 0 5 7 8 9 7 z 0 y 3 $ 7 5 5 5 e 8 7 0 $ 5 y $ 7 ",
"8 8 7 5 5 8 $ 5 5 0 5 8 $ 8 # Y U 9.e.7./ X 5 y 8 5 8 8 8 8 5 7 8 t r 8 5 5 8 8 $ 7 7 5 5 u 8 e 8 q ",
"u 5 8 8 2 0 8 2 6 0 5 2 w c a.f.d.4.X.( : 6 6 5 5 8 0 7 f a r j a 2 5 5 2 5 7 8 8 8 7 5 5 5 0 f $ 5 ",
"5 5 6 $ 2 8 8 8 8 0 2 5 5 w.3.@.#.u.` F 0 5 0 7 5 e 7 $ . u r j 8 5 0 5 5 5 7 6 8 5 0 5 y $ 7 8 8 0 ",
"r 2 w 6 5 5 $ 5 5 $ . 5 = z.1.N.2.&.-.o 6 5 5 5 5 5 7 y k 0 5 p w 8 8 7 5 2 5 y . $ 9 5 0 0 8 w 9 f ",
"5 . 8 7 7 6 5 5 8 0 8 5 > d.r.F.N.*.=.r 0 . 5 . 6 5 w j u h 5 5 0 r 8 6 5 5 5 8 5 8 6 5 6 7 9 8 7 7 ",
". 2 . . 7 6 0 f 7 5 f 7 > &.d.5.4.p.P e 0 8 2 $ 5 r $ 6 z 3 5 7 7 8 7 7 y $ 9 8 5 8 5 7 0 5 $ 5 y q ",
"p 2 5 5 5 6 7 5 $ e 5 $ o D 6.k.d.%.: 6 $ e 0 5 0 2 5 y 7 8 2 $ 9 q . 7 e 7 8 6 $ 8 e 8 8 2 8 0 $ 0 ",
"y 7 6 7 7 f 7 8 2 2 5 8 6 * Z A A < 3 e 6 8 2 f 7 7 5 u 6 8 e 8 7 w 8 8 . y 2 8 7 $ 8 7 2 5 8 0 8 7 ",
"u 7 k 8 7 5 2 8 8 5 0 9 7 y 7 + i 5 7 8 w e 5 8 $ f 0 5 0 5 6 0 8 8 7 8 5 e 7 9 f 0 ~ 7 6 6 7 0 i f ",
"j w 6 u 5 $ 5 0 7 7 u 8 7 k $ 7 7 5 . 5 8 $ 7 y 8 5 $ 8 7 $ 5 7 9 w 5 8 6 f $ $ $ 7 8 8 5 5 7 8 t z ",
"y r 9 5 f 9 y y 8 8 0 . 8 8 O u 8 7 5 5 6 0 0 9 7   2 2 7 5 e 0 5 8 0 9 5 r k u 5 $ e 8 6 8 5 u $ u ",
"u e q $ r 9 5 5 8 5 2 8 8 $ 6 $ $ 0 5 8 0 $ 5 y $ 0 0 0 u 9 9 0 $ 5 r f r f $ 6 q 7 8 8 5 2 j z x j ",
"t f $ . 8 7 8 6 8 9 . $ 8 5 . 8 9 6 9 f 5 $ 7 y 8 6 8 7 0 7 7 9 5 7 7 $ 0 f $ f e 7 w 5 0 r y y g 0 ",
"O 9 0 0 y 8 8 8 8 8 9 5 u 5 . 5 6 u h q $ 6 u 7 5 5 6 q f 5 5 6 5 u 8 $ 8 5 7 7 7 7 5 y j x j y f 7 ",
"u 8 0 7 8 5 8 7 7 5 8 8 j $ 5 r 7 6 k u 5 y 0 $ 0 y 5 8 $ . 0 7 8 8 $ 0 u 5 q y 5 8 y j 6 0 p 2 6 $ ",
"8 2 8 y 7 $ 5 5 5 0 7 7 w 7 7 f y u j y 7 5 6 9 w $ 7 0 7 6 q 7 0 9 7 y 7 $ f $ 8 8 8 5 8 f 5 5 6 $ ",
"t 5 8 8 8 5 5 5 5 6 q 9 8 8 5 p h g u 8 6 8 $ 0 5 6 . 5 6 5 8 7 O 0 r 8 q 0 5 . 5 f f y f 5 r 7 8 u ",
"y 6 $ 2 y 5 2 5 7 8 0 6 0 f 5 t 8 8 6 7 8 2 $ 5 . f 5 5 7 0 0 0 6 7 5 6 7 8 8 u j j h 6 u $ 5 6 8 9 ",
"u 5 5 5 5 $ 5 0 8 8 $ $ h h f p u 8 0 5 8 q $ 7 u 7 e 8 $ 8 0 $ f 7 $ 8 7 6 8 a x j i $ 8 7 7 y 8 $ ",
"t g 7 8 y 8 e 7 5 . 5 u p h g 4 . 5 w 7 8 6 f f f 7 . j 9 6 8 8 5 7 7 f . r . y u f y 8 0 0 k 0 $ 0 ",
"O f f q 9 7 5 0 8 w 0 5 f 9 $ 6 8 8 w 5 9 u 8 7 f 7 O 9 5 7 0 7 e 0 $ 5 u 6 f x f f 8 5 7 $ 8 8 0 f "
};
