/* XPM */
static char *result[] = {
/* columns rows colors chars-per-pixel */
"50 50 177 2 ",
"   c #080707",
".  c #0B0B0B",
"X  c #100F0F",
"o  c #0F100F",
"O  c #10100F",
"+  c #151A0F",
"@  c #121313",
"#  c #171816",
"$  c #1A1C17",
"%  c #171818",
"&  c #1D1D1D",
"*  c #211F1E",
"=  c #1D2314",
"-  c #1E2910",
";  c #1F201F",
":  c #222D0E",
">  c #2B3C0F",
",  c #26350D",
"<  c #222D14",
"1  c #21221E",
"2  c #252C1B",
"3  c #292F1F",
"4  c #2D3B14",
"5  c #2B351D",
"6  c #2A3519",
"7  c #303C1F",
"8  c #232423",
"9  c #272923",
"0  c #292B25",
"q  c #272828",
"w  c #2C2D2A",
"e  c #292625",
"r  c #342E2B",
"t  c #2E302B",
"y  c #32322E",
"u  c #38312B",
"i  c #383E2F",
"p  c #373D2F",
"a  c #353633",
"s  c #3E3731",
"d  c #363932",
"f  c #393C34",
"g  c #3E3E3E",
"h  c #483E36",
"j  c #443831",
"k  c #344A0E",
"l  c #35530E",
"z  c #3B550C",
"x  c #3D5C0C",
"c  c #375A0B",
"v  c #2F4114",
"b  c #324413",
"n  c #364A14",
"m  c #34431A",
"M  c #3A4E19",
"N  c #3C5413",
"B  c #3E5B11",
"V  c #3D5319",
"C  c #3E640A",
"Z  c #384526",
"A  c #39422C",
"S  c #3F4D28",
"D  c #3C5020",
"F  c #415E0D",
"G  c #425D13",
"H  c #435C1B",
"J  c #41571A",
"K  c #43640D",
"L  c #48670E",
"P  c #456A0C",
"I  c #496C0E",
"U  c #47700B",
"Y  c #4C720D",
"T  c #4F780D",
"R  c #50750E",
"E  c #527A0E",
"W  c #456411",
"Q  c #496613",
"!  c #466911",
"~  c #4B6C12",
"^  c #4A651A",
"/  c #4C6A18",
"(  c #536E1C",
")  c #4D7112",
"_  c #4F7910",
"`  c #4F711A",
"'  c #517413",
"]  c #547A13",
"[  c #53721A",
"{  c #567A18",
"}  c #5A7D18",
"|  c #404D27",
" . c #425622",
".. c #404734",
"X. c #4E4139",
"o. c #59483F",
"O. c #514239",
"+. c #4E5830",
"@. c #566E21",
"#. c #577721",
"$. c #577827",
"%. c #5B7527",
"&. c #607831",
"*. c #59554A",
"=. c #615044",
"-. c #6A5447",
";. c #6B594C",
":. c #735B4E",
">. c #6A5E50",
",. c #6D785C",
"<. c #766756",
"1. c #6D6E6C",
"2. c #777974",
"3. c #866857",
"4. c #876F5A",
"5. c #866958",
"6. c #92735E",
"7. c #8F7B68",
"8. c #977461",
"9. c #5A830E",
"0. c #598214",
"q. c #5A8318",
"w. c #61812A",
"e. c #788539",
"r. c #7B8441",
"t. c #6E8152",
"y. c #8A8F47",
"u. c #92984B",
"i. c #979654",
"p. c #84897C",
"a. c #879376",
"s. c #A9816A",
"d. c #A79D61",
"f. c #A38B74",
"g. c #AB8E76",
"h. c #B98F78",
"j. c #AB937A",
"k. c #B9997F",
"l. c #B9947B",
"z. c #AFA26D",
"x. c #B7A76F",
"c. c #BBAD6E",
"v. c #BCAC73",
"b. c #C6B078",
"n. c #C9B37C",
"m. c #858780",
"M. c #B49980",
"N. c #B99E82",
"B. c #BFA387",
"V. c #C79B81",
"C. c #C8A78A",
"Z. c #C2A488",
"A. c #DCA688",
"S. c #D7BC88",
"D. c #DFBC9C",
"F. c #EFAD89",
"G. c #E3AA8A",
"H. c #F3AF8A",
"J. c #F3B28C",
"K. c #EDB493",
"L. c #ECBE93",
"P. c #EEB99A",
"I. c #F3B996",
"U. c #DEC08F",
"Y. c #EBC397",
"T. c #F0C096",
"R. c #EBC9A7",
"E. c #E6C3A2",
"W. c #F4C4A3",
"Q. c #F3C9A7",
"!. c #F2CEAB",
"~. c #F8CDAB",
"^. c #F4D1AE",
"/. c #F9D1AE",
"(. c #F7D3B1",
"). c #F9D5B3",
"_. c #EDF0E9",
/* pixels */
"^ ~ K K I K I L ! } Y K Y ~ K I P K ! F x x F z z x G W z F ) P K F G ~ ( ! ~ K Y E P x F K ) P I L ",
"K P I Y P L ! ) K / ] ~ Y P L z K L F C W  .Z p a a a d A S J K { Q ~ ) ~ ! I K K K K P F K I R R P ",
"W ! K F P I ^ I ' Y U P R P P ) K K ^ M f a a a a a a a a a a A ^ [ / ) L K C ! P P F Y L I K U I K ",
"' P ' G C I ( } ~ E C x F L K K P B f a a a a a a a a a a a a a a S W ) L W Y ! K c P I P I U I L I ",
"! K Y ~ Q / } P ) ) P Y F F z W H d a a a w q 8 ; 8 ; 8 e w y a a d A ! K K P Y P P I K I P K K K U ",
"^ K K / W ^ I C P W I R P I K H d a 9 ; % % % % % % % % % % % & 8 a d A ! I K R I I Y I I L F U I P ",
"G Q G ~ ! ~ Y Y K P Y P C K ! i w & # % % % % % % % % % % % % % % $ 9 a  .G Y ! I K U P F U x P I P ",
"! ) ' ) ~ K F I Y P I L G L | 8 # # % % % & % & % % % % % % % % % % % & a G L F T U E U K F K F I I ",
"~ ! ~ K F P K I P K I I K G w % % % % % % & 8 * & % % % % % % % % % % % & Z ] P Y P I I I I I I K K ",
"z F ) L I I I I P Y Y C I 7 $ % % % % % % * * e ; & % % % % % % % % % % % 1 G x U Y I I K K P L C Y ",
"x Y I P K ) I z K F I Y W $ % % % % % % % 8 % * & % % % % % % % % % % % % % 4 R K x P P K K Y I I P ",
"^ L P C P P K P P I Y K G % % % % % % & 8 8 * * % % % % % % % % % % % % % % < I F K ) I L I I L F P ",
"K I E ) ) Y P L P Y P K > # % % % & & * & r h :.6.8.8.5.-.j 8 % % % % % % % = I L L C K F P K x K U ",
"G K I C P Y R I P I I C b # % % & 8 q :.M.G.I.I.I.I.I.I.P.K.G.8.h # % % % % # P F F P I L P P I W Y ",
"W P ' P I P x I K z I P 4 # $ 8 & r M.K.W.Q.~./././.)./.)./.~.W.K.3.& % % % # K P R P P K Y ! T C K ",
"K P Y C I P K I P 9.Y K 4 # $ ; q V.W.~.).).).).).).).).).).).).).W.=.% % % $ z C K I P I P Y L x P ",
"W I L K R I K K P ) U C n % % % o.Q.(.(.).).).).).).).).).).).).).(.g.% % % = K W K L P P K I L W U ",
"G L P P R I K W P R Y Y W 1 8 $ :.^.(.(.).).(.).).).).).).).).).^.(.j.% % % 6 P P Y L ! L I Y P C ) ",
"G F ~ F K P K K P ! U ' U 7 8 ; a R.R.f.B.M.M.).).).).).(.f.B.B.j.!.>.% % & N P K ) { ~ I K F I P ] ",
"z K K C L ) K K I R P P W N 8 & % <.R.E.l.C.).).).).).).).R.M.Z.R.7.; % % - B ) P ) / ' I K P P K P ",
"x P R Y I U G K K I Y ' ~ ) 6 % % % j f.D.!.).).).).).).(.!.D.g.X.% % % & B ) ~ W ! ] ' P I P I K P ",
"G Y U Y P P K K P P F I ) ~ / 4 % % % % * r h =.;.:.;.*.X.u 8 % % % % = G ) C ` ] ) ' P K K I P _ U ",
"G ! P C R K I ~ I Y F x / ^ G / 7 % % % % % % % % % % % % % % % % $ v x ) ) ) { q.) Y K Y F K P ) U ",
"Q P Y W W Y K U I Y ' ! { ~ G N 0 X X X # % % % % % % % % % @ @ . % V ! ) Q ~ / ! P K K Y R Y K Y K ",
"W ) I K U K I P F K [ ( { K B 9 1 .       . . . X X . . . .       @ 8 V [ ^ 0.~ K I ~ ~ K I F x C C ",
"W E Y K P C K L ! ~ ' P ' B 8 9 1             . . . . . .         o 8 2 M P ` P Y I Y K P U ! K P G ",
"K ' P I I F P K ( ~ ] ~ V 9 8 8 1           . O @ @ . .           @ 8 w t  .K x K I P ! Y P W P U ~ ",
"' x F K F K Q K I ' K ^ 9 8 8 8 &           O O X X @ X .         # w w w w V ! L L K P L P K ! ) U ",
"z z P F I R I I ~ ~ G e 8 8 8 8 &         . @ O O O O O @         X w w w 8 8 N P E I P U K P P W P ",
"! I P P K I K K ! ! 3 * 8 8 8 8 $         O O O O O O O O .   . @ @ q t 8 8 8 8 c L P K K L I ' P E ",
"~ F ~ L F Y I F W 7 8 8 8 8 8 8 8         O O O o O O O @ . @ . @ X w 8 8 8 8 8 0 W L P K K Y Y x P ",
"K K K C F Y I I Z 8 8 8 8 8 8 2.1.      . O O O X O X O X . @ @ X X > 9 8 8 8 8 8 5 Y K K P P I I Y ",
"K F R P F P K ( w 8 8 8 8 8 2._.1.        X X X X o o @ @ . o . @   l V 9 8 8 8 8 8 %.~ I Y Y R P Y ",
"K F ! P I [ x.Y.6.8 8 8 q p.m.1.g .       X X X X @ o % & % X X .   z K G 0 8 8 8 -.Y.U.e.K I I P P ",
"z F F x I y.T.H.F.4.8 a a.*.& * & & @ .   . X X X X o o & o X .   . @ O - l 5 8 *.G.H.J.c.( C K ! ] ",
"^ F P K e.L.J.J.L.S.+.t.,.& * * ; & & % X   . X X o o . X . . . O O O O O : L M x.Y.J.J.I.d.I Y C Y ",
"! I I P / u.b.S.x.r.&.$.A ; & ; ; & ; & ; % .   .   .   . X o o O O O O O @ k Y [ i.n.b.i.( I ) ! P ",
"~ P ] P P K G / ` #.$.#.t ; & & & ; & ; ; & & % .   . o X X o X O O O O O O > Y ' R 9.I P P P Y Q U ",
"' E P I W K P ' ~ ) #.w.D & & ; ; & & & & ; * & & @ o X X o o X O O O O O O k C K P I I K K U I W [ ",
"W K I W R U ! ! ) ) [ ^ [ m ; & ; & ; ; ; & ; & & & % X X o @ X O O O O O - E ~ C K E L I ) F I ! ! ",
"~ E Y K K P P ! ~ W G ' ) W N 2 & & * * * & & & & & & & @ O o o @ . o o < W C P T P I I P F ' ( { ] ",
"Q I P C U P L P I U C C ~ K B P B 2 & ; & * * & & * & * & @ O @ O + , c Y I P ) E P R K Y W ! ! ] U ",
"K P Y I ! ~ L I P ! Y K I K B K L ~ V 2 & ; & & * & * * ; & @ : k ~ P P P K P P K P P W ' { ] W ) P ",
"~ P I P I P I P P K Y ! ' K K K P P ] - % & ; ; ; & & & 9 ; 4 P I P P ) ) K E P P L ! ' P Y ^ F K C ",
"~ F ~ ~ P C K L K Y P P ) U P ) ! ) ^ O @ % $ & ; ; & q f 8 2 C Y Y P K P P ~ C I ~ I W P ' K K L K ",
"! F P I P K K K P P Y Y L U G / [ [ n o @ @ % @ & & ; d f w 1 W F ~ K L _ Y K x K ) ) ! ) K K P U ~ ",
"W P K F W P K K P L ) P ~ ) P Q ~ P b @ @ % @ : N m 8 d f y & W L P P I P P L ~ ' ' Q ! L K K ! ~ U ",
"~ P K K K C K Y I L K C ) ` ) / ) P P + # > l P ~ C W 0 t q 1 x ) P C ! K P ) ~ } ' W P I P P ! U C ",
"! ] P P L P E P K F K ~ / / ) W z W R K K ! ) ) ) P x ~ n 2 m I K I K Y B W F I ~ ) P I R Y ] I C Y ",
"C I ' ' Y P K Y I R U K ) U K ~ I I Y P U ~ P P ) I W P K P U P E Y C P ~ P ' [ ' I I K P C I I Y ) "
};
