/* XPM */
static char *result[] = {
/* columns rows colors chars-per-pixel */
"50 50 170 2 ",
"   c #0F0E0E",
".  c #040404",
"X  c #0F100F",
"o  c #10100F",
"O  c #161A0F",
"+  c #131413",
"@  c #161914",
"#  c #191A16",
"$  c #171718",
"%  c #171818",
"&  c #1B1C1B",
"*  c #1D240F",
"=  c #1F290E",
"-  c #1D2415",
";  c #1F2910",
":  c #1F201E",
">  c #222E0F",
",  c #25330E",
"<  c #28360F",
"1  c #2B3F0E",
"2  c #202617",
"3  c #212B14",
"4  c #21231E",
"5  c #262D1C",
"6  c #263213",
"7  c #2C3B13",
"8  c #29321C",
"9  c #313F1C",
"0  c #232322",
"q  c #292723",
"w  c #272925",
"e  c #2A2A26",
"r  c #292A29",
"t  c #322C27",
"y  c #332F2B",
"u  c #2E3423",
"i  c #31322D",
"p  c #34392E",
"a  c #3A312B",
"s  c #353633",
"d  c #363932",
"f  c #383A35",
"g  c #3C3D3A",
"h  c #4D3F37",
"j  c #463F38",
"k  c #2E410E",
"l  c #31450F",
"z  c #344B0E",
"x  c #36520D",
"c  c #3B540D",
"v  c #3D5C0C",
"b  c #2F4113",
"n  c #324512",
"m  c #354A12",
"M  c #394F13",
"N  c #35441C",
"B  c #344918",
"V  c #3A4D1B",
"C  c #3C5413",
"Z  c #3E5B11",
"A  c #3F5419",
"S  c #3E630A",
"D  c #364421",
"F  c #3C4C23",
"G  c #3B442B",
"H  c #3F4B2A",
"J  c #3C4136",
"K  c #415E0D",
"L  c #405616",
"P  c #425D12",
"I  c #415718",
"U  c #435C1A",
"Y  c #43640D",
"T  c #49670E",
"R  c #456A0C",
"E  c #496C0E",
"W  c #47700A",
"Q  c #4C720D",
"!  c #4F780C",
"~  c #50750E",
"^  c #527A0E",
"/  c #456411",
"(  c #496614",
")  c #466910",
"_  c #4B6C12",
"`  c #466218",
"'  c #4A6519",
"]  c #4C6A18",
"[  c #506E19",
"{  c #4E7211",
"}  c #4F7910",
"|  c #4F711A",
" . c #517413",
".. c #547A12",
"X. c #5A7E16",
"o. c #527319",
"O. c #577B18",
"+. c #415421",
"@. c #4F423A",
"#. c #53453C",
"$. c #5E7C23",
"%. c #5D6E31",
"&. c #63752B",
"*. c #637E23",
"=. c #4B4A48",
"-. c #524A41",
";. c #5C4D42",
":. c #5D5146",
">. c #675246",
",. c #625A47",
"<. c #665B4F",
"1. c #785F4F",
"2. c #796D5F",
"3. c #776555",
"4. c #6E6A65",
"5. c #897763",
"6. c #8E7C6A",
"7. c #9F7A66",
"8. c #907D6B",
"9. c #56810E",
"0. c #5A830E",
"q. c #598312",
"w. c #959558",
"e. c #9C846F",
"r. c #9E8871",
"t. c #AE856D",
"y. c #A18772",
"u. c #A48D76",
"i. c #A8927C",
"p. c #B0927B",
"a. c #B8967C",
"s. c #A4A063",
"d. c #B6AA75",
"f. c #C89A7F",
"g. c #B79880",
"h. c #BC9C83",
"j. c #BBA086",
"k. c #BEA48B",
"l. c #B6B3B0",
"z. c #C89D82",
"x. c #C1A187",
"c. c #C1A488",
"v. c #CDA789",
"b. c #C5AA8F",
"n. c #D4A284",
"m. c #D0A78B",
"M. c #D5A889",
"N. c #D3BD8F",
"B. c #D6B99D",
"V. c #DCBD9B",
"C. c #E0AF90",
"Z. c #C2B7A9",
"A. c #DCBEA0",
"S. c #DFC49E",
"D. c #E0C59D",
"F. c #EDC09F",
"G. c #EEC8A7",
"H. c #EECEAA",
"J. c #E2C1A2",
"K. c #F6C9A7",
"L. c #F3CEAC",
"P. c #F8CDAB",
"I. c #F5C3A1",
"U. c #F4D1AF",
"Y. c #F8D0AE",
"T. c #E9CDB1",
"R. c #F6D5B4",
"E. c #F9D5B3",
"W. c #F9D8B7",
"Q. c #F6DABE",
/* pixels */
"( _ Y K E Y E T ( O.Q R E _ Y T Y Y R K K c K c c Y Y Y c K ~ R S P U ( o.( } Y Q ^ Y S v ) { R E Y ",
"Z E E Q R _ _ { Y ] .._ Q E T c R _ K v R ~ R W T E R Y Q E L +.J s s d f +.+.( Y Y Y R v Y E ~ ..T ",
"/ E Y Y R E U Q Q Q W R Q Y R { Y Y R Y E R Y Y W R T E U F p i s s g s f g g G U _ Y E T E S E R S ",
" .E { Z S _ [ X.E 9.S v Y T Y R S S ) Y K R K T W R K z 8 4 : & & 0 0 i s g f s s D R T R Q E T _ E ",
"_ S Q _ / ] X.R } | R Q K K c / Q E Q Y K K v Y ! Y n & $ % % % $ $ 0 0 0 0 r s s s H Y R R R Y Y R ",
"( Y Y ] ( ( E S Y ) E Q R E Y R Q S Y Q R R Q v R m % % $ $ % % 0 & & 0 & $ & & r s f +.) R S Q Q W ",
"P ( P _ ) _ Q Q Y Y Q E S Y R R ) T Q / Q Q ^ R / - % % % % % % 0 0 0 : % $ % % & r f d I T S Y _ Y ",
") _  .| _ Y K _ Q R T T K T } Y Y E R _ Q E Y Q b $ % % % % & % 0 0 & % % % % % % % w s G K / K E E ",
"_ ) _ K K Y S E R Y E Q Y R E S R S R ~ Q S Y R - $ # # $ $ 0 0 0 & $ % % % % % % % % w d / E E S R ",
"Z K { T E E Q E R Q Q S E { W S R Y Y E Q Y Y Z $ $ # & $ $ : 0 $ $ $ $ % % % % % % % % 0 B R E S Q ",
"v Q R R Y { T v K Y E E _ { Y R K K c Y E R ..n % $ t >.7.n.n.z.7.>.a : % $ $ % % % % % $ 6 Q _ E _ ",
"( T R Y E R S T E E Q Y ~ Y Y / E E Y R Y K ] m % #.M.A.P.P.P.P.K.I.C.a.1.t $ % % % % % % 3 _ T v R ",
"Y Q ..{ { Q R E R Q R K Y R T R R W R W _ S Y 9 $ v.g.:.Z.W.E.E.E.E.E.P.K.z.h % % % % % % 3 Y v Y W ",
"P / W S Y Q Q E Y E E S E E E ~ E E T T / / } n % V.3.  2.Q.E.E.E.E.R.B.T.E.v.t % % % % $ 3 Y T / } ",
"/ R } R E R S T S v R Y E W S Y R E K K ) / ' A % r.A.5.x.E.E.E.E.E.h.0 l.Q.L.;.% % % % % 7 _ Q S Y ",
"Y R _ Y E R K Q R 0.~ R Y R c 9.Q S _ Q Y _ | S # w x.L.E.E.E.E.E.E.r.. =.T.L.-.% % % % % l ~ R v R ",
"P E T Y Y l < k K { R Y Y Y c R R Y [  ._ _ { Y m % % #.p.G.E.E.E.E.E.u.b.E.i.0 $ % % % : v E T Y Q ",
"P _ S > o o o o X > c R Q K Q Y Y  . .[ ] K c B 4 % % % % 4 #.3.e.a.x.h.r.>.# % % % % % m E Q R S _ ",
"P K > o % 4 # + o o o o < c { Y Y R  . .T D 0 : : $ + % % % $ $ % % % % $ % % % % % - C T Y Y R R } ",
"v K > @ e e % o o X o o o O 6 Z ] _ _ P p y w : & +   o + $ % $ % % % $ % % % % % 3 C |  .K R R Y Y ",
"v Y P - 4 4 + o o o o X o o o o - n c M i r r w 0 $ + X o + + + $ + $ $ + $ # 8 C / .. .Y E R R ) R ",
"P Q E R l 3 O   o o o o o o o o + % - 5 r r w r r r w y h e & & $ o   o X + : 4 A _ } W Y / E R } W ",
"P ) S Y Q S v < O o o o o o + + & % % % 4 w r r w r w 6.L.b.j & : $ o o o $ 0 & : N _ Y Q K Y R { W ",
"/ E Q Y / Q / E x * o o o o & + % & o o + $ 0 r r r r i.R.E.6.: & % o X + # & : 0 w B Z Q ~ Q Y Q Y ",
"( Q R Y Q Y E W S Y P 6 o o + % & o o   o o o o $ 0 r h.E.U.<.: & & o o 2 4 0 r i r r A S R P v S S ",
"/ } Q / R S Y R T E _ _ / > X + $ o o o o o o o   $ : -.A.8.0 : : $ o O v Z u r s i r N Y E _ S R / ",
"/ Q E Q E K Y Y [ ] ..| ( { M > o o o o o o o o   + : : & 0 : & & X O U  .] p r r r e / ! R Y E Q E ",
"{ K K K K Y T K E  .Y ~ Y _ Y Y 1 O o o o o o o     $ $ : & : : + o 7 O.U F i i i r B E T Y Y ) _ E ",
"c c Y v E ~ R E _ _ K E Y } E Z T K < O o o o o o o X X $ $ $ + o > / ( %.f y r r N { S Q S Y ) ) Y ",
"T E W Y Y R Y Y T Q R R S T Y _ K E T c , o o o o o o o         # / ' s.D.2.r r u R E Y Y _ E ^ R ! ",
"{ v E T K Q E Y Y Q Y K ^ E _ W Y T S R R 1 + o o X o o o o   % U K &.H.L.J.,.V _ E R Y Y Y Q { S Y ",
"Y Y R S K E E T E Q v R E S W Y S T R Y E Y > o o o o o o o @ M _ R *.S.U.E.w./ E Y ! Y E S Y R E ! ",
"/ K ~ E K Y S Y Y Y v Y E R Y R K E Q K E R z o o o o o o o z ] Q E _ $.d.N.&._ v S Q Y E Q E ~ W { ",
"Y v E Y E R R Y R Q R Y R T K K K R E T E K v * o X o o o @ C Y { / { T Y S Y Q Y R Y Y T R Q E R E ",
"Z K v S Y E Q Q R Y Q R R T v S K Y R ^ Q E K 1 o o o X X + M R Y Q E Y E S Q E Y E R R Q R S Y ) } ",
") K Y Y Y Q Y Y Y ! Y Y K c Q E T T E R S ^ ~ c   o o o + % 7 S W ^ S S ^ R T Y S E ^ R T K R Q S Q ",
"/ T T R Y { Y E K K Y E R K ^ v K T Y ^ R E K Q O o + % % % n _ E } T _ v E v Q Y Y E R K Y E E ) Y ",
"{ Y ..R R Y K _ R Y ~ R R T R Y R R R E ~ ^ / Q , o $ # # % 3 T E E W ) Y ! Y Q Q Q 0.R R T R ~ ( W ",
"o.^ R E R S / Q W R _ Q R ..S Y R T v R E S Y ) M $ + # # + O c R Q Y ) R Q S S Y R E E Y Y Q T / o.",
") Y E / } W R / E E E v E E v Q E R K Y Y Q Q Q K % : % + o O c Y Q ^ W / / ..{ S S ^ T R E Y E ) ) ",
"_ ^ Q S / W Y R E Y c Q E S T S Y Q Y E Q S Y ) Y 5 + o o o X k S Y ) W / _ S R ! R Q E Y K  .| O...",
"( ) R S Q Y E T E W S v E Y v E E R W Q Y S R R R 7 + o o X X > Y E Y S Q Q Y } ^ W ~ Y Q / _ ) ..E ",
"Y E Q E ) E T E R T Q R E Y v Y E _ ] } Y E _ Y R z o o X o X o / { E S E Y S ) Y Y R Y  ... .) } Y ",
") E Q R E Y R R R T E R  .Y Y / Y _ ..E Y Y Q S Q E o o o o o o c Y Y Q _ Y ! E R E _ | R { ( v Y S ",
"_ K E _ R S Y T Y E W S Q W Y Q R ( ..) R R E Q ~ Y = X X X X X l Q Y Y Y R { S E E R ) _  .R Y R Y ",
") Y E R R Y Y Y R R ! Q T { Z (  .| _ E R R v Q K R k o o @ : : - { ) E ! Q Y v Y { { ( _ Y Y Y E _ ",
"( R K Y / R Y Y R T Q R ) } E ( E E R R T Y S Y Y Q Y > o : 4 q 4 x S E R E _ _ {  ._ ( E Y Y ) E W ",
"_ Y Y S Y S Y ~ E T Y S | | _ ] _ E Q Y Q Q S Y _ Y Q Y k * O @ @ z S ) Y R _ _ q.| / Y E R R ) E S ",
"_ } R E ) R ^ R Y Y Y _ ( | } P c Y ~ E R Y } _ { Y v } Q Z x n l Y Y Q Z / v W _ { E E } Q ..Q S Q ",
"Z E  .~ Q R Y Q E Q Q Y { W S / R _ ~ R Q _ E R } E S T Y Y E R ^ Q S Y _ E ] O. .Q R Y R S E T Q { "
};
