/* XPM */
static char *result[] = {
/* columns rows colors chars-per-pixel */
"50 50 159 2 ",
"   c #080707",
".  c #090907",
"X  c #0B0B0A",
"o  c #0E1108",
"O  c #10100F",
"+  c #161B0C",
"@  c #131413",
"#  c #161912",
"$  c #191B15",
"%  c #171818",
"&  c #1B1C1B",
"*  c #211F1D",
"=  c #1C240D",
"-  c #1E2A0C",
";  c #1C2213",
":  c #1F211D",
">  c #23320B",
",  c #28360F",
"<  c #27380C",
"1  c #2A3A0D",
"2  c #222C14",
"3  c #22211D",
"4  c #263313",
"5  c #293616",
"6  c #2C3B14",
"7  c #2A3319",
"8  c #2E3B19",
"9  c #1F2120",
"0  c #222322",
"q  c #292623",
"w  c #262925",
"e  c #292926",
"r  c #2A2A2A",
"t  c #342D29",
"y  c #32372D",
"u  c #3A332C",
"i  c #393F2E",
"p  c #343533",
"a  c #3B3730",
"s  c #363932",
"d  c #383C30",
"f  c #403730",
"g  c #443932",
"h  c #4A3D35",
"j  c #2B410A",
"k  c #30440C",
"l  c #344C0D",
"z  c #35510D",
"x  c #3B540D",
"c  c #3D5C0C",
"v  c #2F4211",
"b  c #314413",
"n  c #354A12",
"m  c #394F13",
"M  c #35421E",
"N  c #3C4F1F",
"B  c #3C5413",
"V  c #3E5A11",
"C  c #3E5019",
"Z  c #3E630A",
"A  c #3A4626",
"S  c #3E4E21",
"D  c #3A442A",
"F  c #3C4828",
"G  c #3F5223",
"H  c #415D0D",
"J  c #425D13",
"K  c #41581B",
"L  c #43640D",
"P  c #48670D",
"I  c #456A0C",
"U  c #496C0E",
"Y  c #47700B",
"T  c #4C720D",
"R  c #4F780D",
"E  c #50760E",
"W  c #527A0E",
"Q  c #456411",
"!  c #496613",
"~  c #466910",
"^  c #4B6C12",
"/  c #466219",
"(  c #4D6C19",
")  c #506F17",
"_  c #516D1A",
"`  c #4E7211",
"'  c #4F7910",
"]  c #4F711A",
"[  c #517413",
"{  c #547A13",
"}  c #5A7E16",
"|  c #527219",
" . c #567B18",
".. c #597D19",
"X. c #475B21",
"o. c #474139",
"O. c #49413B",
"+. c #524B36",
"@. c #52433A",
"#. c #5C7322",
"$. c #6B7933",
"%. c #5C5047",
"&. c #634F43",
"*. c #665144",
"=. c #6E5649",
"-. c #65594A",
";. c #7A5F50",
":. c #75764A",
">. c #736452",
",. c #826A59",
"<. c #85725F",
"1. c #847361",
"2. c #8F7B67",
"3. c #8F7F6A",
"4. c #8A7E73",
"5. c #5A830E",
"6. c #598214",
"7. c #748837",
"8. c #929950",
"9. c #99856F",
"0. c #A19F61",
"q. c #A88B73",
"w. c #AF8F78",
"e. c #B08870",
"r. c #BE9177",
"t. c #B29379",
"y. c #B3997E",
"u. c #959391",
"i. c #BDA487",
"p. c #C5A78C",
"a. c #DFAF86",
"s. c #DDAA8B",
"d. c #CEB685",
"f. c #C2AE99",
"g. c #CDB093",
"h. c #C9B89E",
"j. c #D8BC9A",
"k. c #E4B695",
"l. c #EBB693",
"z. c #EBB896",
"x. c #EDBE9E",
"c. c #F3BB9A",
"v. c #E1C59C",
"b. c #EEC49F",
"n. c #D2CAB7",
"m. c #ECC7A6",
"M. c #E9C8A7",
"N. c #EDCFA8",
"B. c #E5C4A4",
"V. c #F4C1A0",
"C. c #F2CBA7",
"Z. c #F4CCA9",
"A. c #F8CFAD",
"S. c #F5D1AD",
"D. c #F9D2AF",
"F. c #E8CEB0",
"G. c #F6D3B2",
"H. c #F9D5B3",
"J. c #F5D8BB",
/* pixels */
"! ^ L c T L U P !  .` I U ^ L I P L ^ H H H H x x Z L L x H T I Z J J ! | ^ ` Z T W I c x I E I U P ",
"V U U T I ^ ^ ^ L ( [ U T I P x P ~ H c I ` L T P P / V T T P P | ^ ) U ^ ! U L L Z L I H L I E { P ",
"Q ~ L L U I / ` ` T Y I E I I T Z L ^ I U ~ V G F D d D D C B Q ' ' ( U I P L P I I L U U U L P I L ",
"[ U ` J Z U ) } ^ 5.Z c J I L P L Z ~ L N D s s p p p s p p s A / ] Q ` L J T P Z c P U I U Y U ^ I ",
"^ Z U ( / )  .I T ` I T H H c Q ` U ~ M w 0 9 9 9 0 r p p p p p s X.! U L L I ` I I U L I U L L L I ",
"Q P L ! Q ! U L P ~ U T I U L U ` Z 5 & % % % % & % % & 9 w p p p s X.c U I I T I U T U I I L Y T U ",
"J ! L ^ I ^ T T P I T I Z L U I ~ v % % % % % % % % % % % % 9 r p p d B I Q T ^ T L Y I L I H I U L ",
"P ) | ( ^ L H U ^ I I I J P [ Q m & % % % % % % % % % % % % % & 0 p s D Q L ^ H E T W I L H L H T U ",
"^ ! ^ L H I L U I L U U L I T Z 2 % % % % % % & % % % % % % % % % & p s K L [ I T U U U U U U U Z L ",
"V c ` I U U U U I T T Z ` ` I z & % % % % % % & % % % % % % % % % % : p F ^ U Z T T U U H L I I Z T ",
"c T I I L U ! H L H U T ~ ` H v % % * u h =.&.h u 9 % % % % % % % % % r D B ^ U L c I P L L E U T ~ ",
"/ I I L I I L I I U T P T I P 5 * h e.s.c.c.c.l.s.r.;.t % % % % % % % & y ( I T L H ` U I U U I Z L ",
"L U { ` ` T I I L T I L H I ^ 2 &.k.C.Z.H.H.H.H.A.Z.V.s.=.% % % % % % % q J I T P I Z L H I L c L Y ",
"J P Y Z P T T U L T T Z U Y U 5 t.p.1.N.H.H.H.H.H.H.H.H.x.g % % % % % % & J L U c H L U U L I P Q ` ",
"L I [ L U I c U L c I L U I L 5 y.u r n.H.H.H.H.A.9.f.H.H.,.% % % % % % % B L I I E I I L T ! E Z L ",
"L I T L U I Z T I 5.T L L I x n 1.>.& h.H.H.H.H.g.% u.J.H.1.% % % % % % $ Q c c Z L T I U L E I c I ",
"Q U I L T ~ L L I T Y Z Q L V B 3 2.M.H.H.H.H.H.B.O.4.J.G.h 9 % % % % % 2 ] c I Q L I P P L U I L ` ",
"J I L I T U P ~ I E T T T H T L 8 $ t 1.p.m.A.H.H.H.Z.p.%.* 9 & % % % % n Y ~ P U T P P I U T I Z U ",
"J H ^ H P I Z P I ^ T T T L T L / 4 % % % * r a h f q * 9 9 % % % % % 5 Z Z ` I L ` { ^ U L L U I ' ",
"H H L Z ~ T L L U T I I L L P ( ( J $ % % % % % % & * 0 9 & % % % % 4 Q U Z L U I ^ ^ | ) L I I L L ",
"c P T T T U H c L U T T ^ ` V ) ^ 6 % 0 % % % % 9 0 9 9 & % % & 2 m ^ U Q L T ^ Q ~ { [ I U L I ~ I ",
"J E T T I I L P U L H U U ^ ^ ~ c 3 w e 0 @ @ & % & & % @ @ 2 C 8 :.0.7.^ ^ Z ] ' ` ` U L L U I ' Y ",
"V ~ Z L E L U U T T c c ^ ! K ^ 6 w e e r & @ & 9 * 3 u q @ % 3 & O.j.v.8.( ] { 6.` W I T H L I ` Y ",
"Q Y ` L Q U ~ U I T T I { ( J H ; 0 e e w 0 % & 0 r O.g.i.-.% : 9 0 q.V.d.| ^ ^ Q Z L c T T T I T L ",
"! ` I I U L U I L L ) _  .~ L l @ & r r r r p r r r r w.A.G.3.9 & * +.a.l.$...~ P U ^ U L I Q c Z Z ",
"Q ' T Q I Z L I P ^ T I | I I v O @ r r r p p r r r r h z.Z.N.u 3 8 Q _ #.^ ` I T U U L I U ~ L I Q ",
"L T U U U H L L ) ! { U Q T V - O O & p p r r 0 0 r 0 9 3 h p 7 m ^ !  .` ' c c L U I ~ T I I L T ~ ",
"[ H H L H L P L ^ [ L E L U Z $ @ O & r p r r r r 0 9 % O @ 8 ( } ) ) | / T T ^ I P I I U L L ~ T U ",
"c x I c U E P T U [ H Y L [ c + % @ & 0 r r r 0 & % % @ O > L I | ^ Q Q Z I L L I W U I U Z L ~ Q L ",
"Q I I P L I L L L T L I Z P m O % % % @ % & % % % % @ O O O + = l P Q I L H E U Z I I L P T T ` I R ",
") H U I H T U H L T L H E U m % % & @ O O O @ @ @ @ O O         X k H L L L I U U U I L L L T ` Z I ",
"L L I Z H U U I U T H I I L n & & @ O O O O O X @ X @ X           < T I L H I L U L T L L Z I U U T ",
"P H T U H L Z L L Z c L U U l $ @ X @ O O O O O O @ X             > I U L H H ~ c Z E P U U T E U T ",
"H H I I U ^ L P U T I L I P m # O O X @ O O O @ X X               > U P P L L T L U I L I P T U I I ",
"c L H c L I T T I L T I I P c = X @ O @ O X @ - < - > >           k P I ^ Z T U L U L I T L Z L ~ ' ",
"! H L L L I I L Z W L L c x T x @ O O X O O O + L H L x         . c Z I W I I L Z I W I U H L T Z ` ",
"Q I U L L ` I U H H L T I H W c 1 @ o O O o O O 1 P P k         o L U ^ H I c T L I U I L L I ` ~ I ",
"^ I { I L I J I I L E I L ^ I L ^ j # O O O O O = T Y -         = I U U P E L T T U 5.Y I I I ` ! Y ",
"| E U U I Z L T I I ^ U I { Z I I P 4 O O O O O 6 I c +         j E I I I ^ L Z L I P I P L Y U Q | ",
"Q P U L ` T U ~ U U U H U I c U U ^ = O O O O # z x c o         x E E I Q Q W ` Z L W U I ^ H U ~ ~ ",
"^ W R Z L I L P U L H T U Z L L I c O O O O X ; Z U I =   .   o Z Z ~ Y Q ^ Z I R I U T L H [ _  .{ ",
"! ` Z c U I U ^ Y T c L U L c I I = O O O O O n I I I <   o & = ~ U L Z T T L R W I E L T L ^ ~ { T ",
"Z ~ T T ~ U P U I I T L U L c L l @ O O O O 2 L L H L T +   $ , Q ^ U Z U L L L L I I ! [  .{ Q ` L ",
"^ U T I U L I I L P U I [ Z P L 4 O O O O + P Z T T Q U l   . l U I L T ^ L R I L U I ) I ` ! c L Z ",
"^ H U ^ I Z L P P U Y Z [ I I ` = O O o O 1 I T E L P T L < - Z T U I P I I ^ I T ~ U Q U ` I L I L ",
"~ H I U U Z L L P I T T I U J J $ @ @ O # L c T H I c P I L I U c ` Q I R T L c L ` ` ~ ^ P P L U U ",
"~ I L H P L L L I U ` I T ] I ! 2 $ w : , L Z I L ` P L I T T T I I L U I U I ( ` | ( ~ U L Z ~ U Y ",
"^ L L L L Z L [ I I L Z ` | ^ ! l @ w e x E Z I ^ L R I Z T T Z ^ Y Z ~ L I ^ ` { [ Q L U L I ~ U Z ",
"^ ' U L ^ I R I Z L L ^ ( ^ ] J l + $ w L I ' ^ ` L c T T L ^ U P I L T V Q c ^ ^ ^ U U { T [ T Z E ",
"V ^ W T T I P T U T T L ` U Z ~ U c $ 4 T ^ ~ U [ Y Q U Z I U U W T Z P ^ I ) { [ T I L I Z U I T ` "
};
