/* XPM */
static char *result[] = {
/* columns rows colors chars-per-pixel */
"50 50 167 2 ",
"   c #040403",
".  c #0F110F",
"X  c #10100F",
"o  c #161B0F",
"O  c #191F0F",
"+  c #141413",
"@  c #171917",
"#  c #1A1D15",
"$  c #171818",
"%  c #1B1C1B",
"&  c #221F1E",
"*  c #18200E",
"=  c #1E2515",
"-  c #1F201E",
";  c #202C0D",
":  c #25310F",
">  c #2C3E0E",
",  c #202716",
"<  c #222C14",
"1  c #21211E",
"2  c #24281E",
"3  c #293713",
"4  c #2B3B13",
"5  c #2A341B",
"6  c #313D1D",
"7  c #1F2120",
"8  c #232322",
"9  c #292A27",
"0  c #292928",
"q  c #292923",
"w  c #332D29",
"e  c #2D3322",
"r  c #313B21",
"t  c #39312B",
"y  c #363B2E",
"u  c #34372E",
"i  c #353634",
"p  c #363832",
"a  c #3E3E3E",
"s  c #433932",
"d  c #2E430E",
"f  c #364D0F",
"g  c #37510D",
"h  c #3B540C",
"j  c #3D5C0C",
"k  c #2F4311",
"l  c #314313",
"z  c #344912",
"x  c #34441A",
"c  c #38461C",
"v  c #3C5412",
"b  c #3D5B11",
"n  c #3C531A",
"m  c #3F5A19",
"M  c #3E640A",
"N  c #3E4D27",
"B  c #38422B",
"V  c #374525",
"C  c #415E0D",
"Z  c #415D12",
"A  c #445D1B",
"S  c #43640D",
"D  c #49670E",
"F  c #456A0C",
"G  c #496D0E",
"H  c #47700B",
"J  c #4C720D",
"K  c #4F780D",
"L  c #50760E",
"P  c #527A0E",
"I  c #456411",
"U  c #496614",
"Y  c #466910",
"T  c #4B6C12",
"R  c #4E6D19",
"E  c #506F13",
"W  c #506E19",
"Q  c #4E7211",
"!  c #4F7910",
"~  c #4F7119",
"^  c #517413",
"/  c #547A13",
"(  c #597C16",
")  c #527319",
"_  c #59741F",
"`  c #567A18",
"'  c #4A5B22",
"]  c #40413E",
"[  c #51483F",
"{  c #54473E",
"}  c #486225",
"|  c #4F6E20",
" . c #5D7922",
".. c #537522",
"X. c #4D4740",
"o. c #4B4B4B",
"O. c #544E47",
"+. c #5C4F43",
"@. c #51524F",
"#. c #4F5050",
"$. c #5A5B5A",
"%. c #624E43",
"&. c #675145",
"*. c #6F584A",
"=. c #7D6251",
"-. c #706960",
";. c #757C6C",
":. c #8F6F5C",
">. c #88705F",
",. c #8B7462",
"<. c #8D7C68",
"1. c #987461",
"2. c #937662",
"3. c #A47D68",
"4. c #5A830E",
"5. c #598213",
"6. c #7E8A6A",
"7. c #858355",
"8. c #969855",
"9. c #AB995B",
"0. c #A7816A",
"q. c #A88669",
"w. c #B9AE76",
"e. c #B9A97E",
"r. c #C8987D",
"t. c #C6967C",
"y. c #C2B67D",
"u. c #898B89",
"i. c #969795",
"p. c #B59B82",
"a. c #BA9C83",
"s. c #B9A084",
"d. c #B2ACA5",
"f. c #A6A6A5",
"g. c #C2A188",
"h. c #D7A486",
"j. c #D6A78A",
"k. c #C7B883",
"l. c #CCB686",
"z. c #D7B082",
"x. c #C7AE93",
"c. c #DEBD9E",
"v. c #D0B394",
"b. c #E2B58D",
"n. c #EFB492",
"m. c #F2B897",
"M. c #F3BE9D",
"N. c #E4C99F",
"B. c #EAC5A2",
"V. c #E6C8A3",
"C. c #EDC9A5",
"Z. c #EDCBAA",
"A. c #F7C6A4",
"S. c #F7CAA7",
"D. c #F6CEAB",
"F. c #F8CCAA",
"G. c #F7D2AF",
"H. c #EBD1B7",
"J. c #F7D2B1",
"K. c #F9D4B3",
"L. c #F9DABD",
"P. c #D0D1D1",
"I. c #DFDFDF",
"U. c #E9D7C4",
"Y. c gray88",
"T. c gray97",
"R. c #FCFCFC",
/* pixels */
"U T S j J S G D U ` J F G T C G S S D C j j C h h S S I h C Q F M Z Z T W T Q S H P F j C S E D G D ",
"b G G J F T T G S R / T J G D h F Y j M m N y p p p y V I G D F ` T W Q U D G S S S S F C S F P P S ",
"I Y S S G G U T Q J H F J F F Q M D I B i i i i i i i i i B b I / ~ R J G S M U F F S G F G S H D M ",
"^ G Q Z M T W ( Y 4.M j C F S D M n p i i i i p i p i i i i p n Q R D G D Z J F M j F G F G H D T G ",
"T M G T I R ` G Q Q F J S j h I ' p p 0 0 7 % % % $ % % 8 0 i p m / S J S S F J S H G S G F S S M G ",
"I D S R I U G M F S G J D G D I u 8 % $ $ $ $ $ $ $ $ $ $ $ % 8 u R D M F G F Q F H J H F D S H J G ",
"Z U I U Y T Q J I F J G M S D 5 $ $ $ $ $ $ $ $ $ $ $ $ $ $ $ $ $ 5 J C T j J Y F S H D S F C F G F ",
"T T ) T Q I C G J F G D b D I $ $ $ $ $ $ $ $ $ $ $ $ $ $ $ $ $ $ $ v J S S G C P L L F S C S C G G ",
"T U T S C F S D F G T J I G 4 $ $ $ $ $ $ $ $ $ $ $ $ $ $ $ $ $ $ $ 4 F I F J F H G J G G G G J M S ",
"v C Q F G G J T _ y.N.N.7.n , $ $ $ $ $ $ 0 &.:.3.0.1.%.% $ $ $ $ $ = I I F J j Q Q G Q S S F D M J ",
"j J F F S G D Z z.B.V.<.9 0 $ $ $ $ $ *.t.n.m.M.A.S.S.A.j.t $ $ $ $ $ b S j T I V e.k.8.I F J T Q Y ",
"I F G S F G S T b.n.q.9 0 9 $ $ $ w t.M.S.J.K.K.K.K.K.K.K.a.$ $ $ $ $ M M J c 9 8 [ V.Z.w.T T T C F ",
"I G P Q Q J F T T / Y e 0 0 $ $ & h.A.J.K.K.K.K.K.p.O.U.K.D.$ $ $ $ = S m e 0 0 0 0 >.M.N. .D C S H ",
"Z D H M D J J G S G H j 9 0 % $ >.A.x.H.J.K.J.K.K.+.$ d.K.a.$ $ $ $ 4 6 0 8 0 0 0 0 ' 9.z._ D D Y J ",
"I F Q D G F j F M j D D I 9 % $ 2.a.  f.L.K.K.K.K.c.<.Z.c.w $ $ $ $ q 0 0 0 0 0 0 I Y Y I ^ T J M S ",
"S F J M G F M J F 4.Q F S n 8 $ s v.% -.K.K.K.K.K.K.C.,.8 $ $ $ @ - 0 0 0 0 0 e j S J Y J F J G j F ",
"Z J D S J D S S F J H M D S x % % O.p.C.J.F.B.g.,.X.& $ $ $ $ $ 7 9 0 0 0 0 6 U D S F Y F S G D F H ",
"I D S F J G D Y F L J G J j J 6 - 8 8 & & & $ $ $ $ $ $ $ $ $ 8 0 0 0 0 8 n F S G Q D U F G G Y M T ",
"j C Q j D F M D F T J J J M ^ F r % 8 $ $ $ $ $ $ $ $ $ + X X & 0 0 0 e b M Q G Y T ` T G D S F F ! ",
"h S I M F J S S G J F F D S I ~ ~ r 8 $ $ $ $ $ $ + X X X X X $ 9 0 e I Y M I G F Q T ^ G S F G Z F ",
"j D Q K J G j j S G J J T Q v ) ) U 5 $ X X X $ + X X X X X X + 0 c Q F M I J Q I Y / Q F G S G F F ",
"Z L G J G F S D G S C G Q T T T G G S X X + % - & & + X X X X X l I T G U Q M ~ ! Q Q G S S G F ! H ",
"Z Y M M J S G F G J j j T U A Q J F F . X % % - % 7 % X X X X X j F S M J T T ` 5.Q K S J C S F Q H ",
"I F J Y I J I J G J J F ^ R A h < = , + X % & - 7 % & + X X X X f Q F F T R U R I M S S J L J S J S ",
"U ! G F G M G H S S W W ` Y M $ $ $ $ + X & & % & % % $ X X X X g F F J T U 5.T D G T T M G I h M M ",
"I Q J I F M S D D D J F ^ F g $ $ $ $ $ . & - & % 7 % $ X X X X j G S U S Y Q M J G G S F G Y M G Z ",
"S L G G G S S S W R / J I J z $ $ $ $ $ + % & % 7 % 7 $ X X X X f G R ) Q Q j j S G F T J F D F J F ",
"^ j j S C S D C G ^ S J I G S @ $ $ $ $ + . % & 7 % % X X X X X R T T ^ I ! J T F D F F F S S T Q G ",
"h h F C D L F G G T C G M Q F = $ $ $ $ + X X + $ + + X X X X X R G I I M F S S F K G F G M S I I F ",
"D G F S S F S S D J F F S T Y l $ $ $ $ $ X X X X X X X + + X + T D I D S C L G M F F S D T G P F K ",
"T S G D C J H C S J S C L G Q M $ $ $ $ $ i + X X X X X $ % $ 3 ) C S S C S H G D G F S S S J Q M F ",
"M S F M C J G D G J j F G M Y I = $ $ $ $ #.I.$.X X X $ + % + n G S J S S S S S J S J S F M F F G J ",
"I C L F C S M D S M j S G G S S l $ $ $ $ $ Y.T.w . $ $ @ + X I ^ F D G S S C F j M J S G J J J G J ",
"S C U F G F S F F J S S F D C C C # $ $ $ $ i.R.o.$ $ % X X : S J I G F S S S J S G F S G S J G G F ",
"j C C j S D J Q F S J H F S j M j 3 $ $ $ $ a R.w % $ + . X h F F H G F D M G J S F D F J S M S Y ! ",
"U C S S S G F S S K S S S h J J I S % $ $ $ % P.$ $ + . . # j S H J M S P F F S M G P D F C F J M J ",
"I F F F D Q F G S C S G S S L j S D < % 8 7 % u.$ $ X X X k P G F L F G j D C J M M G H C S G G Y F ",
"T F P G S S j Y S S L F F D H S Y S g 8 0 0 B @.+ X X X X j F G G G F G F P S G Q J 4.G D G S L I T ",
") J G T D M S J H F G G F / M S F D b 8 0 8 ;.8 X X X X = M M F H J S G F T M M S G D G S S J G I ` ",
"F D H I Q H G Y G G J C G D j G H Y U x 7 w 6.. X X X X g F P J D G L G S I / Q M M P F G D S G F Y ",
"T P J M F F S S G S C G G M F S F J S R n } r . X X . o G G H J M M I H I T M G K F J G S Z ^ ) / / ",
"U Y F M G F G G D H j M G S j F G U J / | ..# X X . . > G F F J F G S M J J S Q K G J S J S T Y ~ J ",
"I F J G Y G D G H F J F G D h S F T ~ ! U I . X X X . S J S F S I T G F G S S F F F S D ^ ` Q Y Q S ",
"G G J F G S F F S D G D Q M D D F Y ( T S k . . X X O G M M G G F F M J T S K F S F G ) F Q U C D M ",
"T C G Y G M S D S T H M Q G F J F U ` F F > . + X X d J S F L F J G F I F S T M G G G I G Q F S F S ",
"Y Z G G G M S S S F K J F Q b U ) ^ T G D j . # & $ g D F S G G Z J D G ! J S M S Q Q U T S S D H T ",
"Y F S j D S S S G G Q F G ~ F U G G F F G S O . = % C D F J J J F F S G F G D T ^ ^ R Y G M S Y G H ",
"T S F S S M S J G D S M Q ~ Q U T D J S J J d . $ = J F M J J M T G M F F F T Q / ) Z F F F F Y G M ",
"T Q F F T F K G S C S G U Q ~ I h S J G G Y ! < . f j Q J D G G D F S J b I j T T T T G P J / J M J ",
"b G ^ P J F S J G J J S Q T M Y G G J F H Y G G Q H S F M S G G L J M F T F ) ^ L J F S F M D G J Q "
};
