/* XPM */
static char *result[] = {
/* columns rows colors chars-per-pixel */
"50 50 166 2 ",
"   c #0B0B0A",
".  c #10100F",
"X  c #161B0E",
"o  c #181F0F",
"O  c #131413",
"+  c #171916",
"@  c #1A1D16",
"#  c #171818",
"$  c #1C1C1C",
"%  c #201F1E",
"&  c #1B220E",
"*  c #1F2A0E",
"=  c #1C2213",
"-  c #1F211D",
";  c #212D0E",
":  c #26330F",
">  c #29370E",
",  c #212714",
"<  c #222B15",
"1  c #22231E",
"2  c #262B1C",
"3  c #253412",
"4  c #283217",
"5  c #2A3A12",
"6  c #2B341A",
"7  c #2F3C19",
"8  c #303E16",
"9  c #313D1E",
"0  c #1F2020",
"q  c #232322",
"w  c #2A2623",
"e  c #272825",
"r  c #292B26",
"t  c #272828",
"y  c #292A29",
"u  c #302A26",
"i  c #342D29",
"p  c #2E302F",
"a  c #2E3623",
"s  c #313A20",
"d  c #30332D",
"f  c #373D2F",
"g  c #3E342E",
"h  c #353633",
"j  c #363933",
"k  c #3C3D3C",
"l  c #443A33",
"z  c #4D3F38",
"x  c #2E410E",
"c  c #31450F",
"v  c #324A0F",
"b  c #36520C",
"n  c #3C550C",
"m  c #3D5B0C",
"M  c #324413",
"N  c #364D12",
"B  c #384E11",
"V  c #35441A",
"C  c #3A4C1B",
"Z  c #3B5413",
"A  c #3E5A11",
"S  c #3D5318",
"D  c #3E640A",
"F  c #3E4D25",
"G  c #3A432B",
"H  c #3C4828",
"J  c #3D5021",
"K  c #415E0D",
"L  c #425D12",
"P  c #41551C",
"I  c #415819",
"U  c #43640D",
"Y  c #49670E",
"T  c #456A0C",
"R  c #496C0D",
"E  c #47700B",
"W  c #4C720D",
"Q  c #4F780D",
"!  c #50760E",
"~  c #527A0E",
"^  c #456411",
"/  c #496614",
"(  c #466911",
")  c #4B6C12",
"_  c #4A641A",
"`  c #4D6C19",
"'  c #506E19",
"]  c #4E7211",
"[  c #4F7910",
"{  c #4F711A",
"}  c #517413",
"|  c #547A13",
" . c #517219",
".. c #577A1B",
"X. c #5A7E16",
"o. c #4E433B",
"O. c #51493F",
"+. c #576F22",
"@. c #5F7625",
"#. c #5E633D",
"$. c #687F2A",
"%. c #584D40",
"&. c #524942",
"*. c #5B5443",
"=. c #575955",
"-. c #614E42",
";. c #6A5548",
":. c #645B4D",
">. c #625349",
",. c #685C50",
"<. c #686053",
"1. c #7A6355",
"2. c #766859",
"3. c #7D7B53",
"4. c #736C64",
"5. c #836A59",
"6. c #81705E",
"7. c #997661",
"8. c #807972",
"9. c #598213",
"0. c #6D8828",
"q. c #70852C",
"w. c #878F4B",
"e. c #A29258",
"r. c #8E8860",
"t. c #AE866F",
"y. c #AC8C75",
"u. c #A98E79",
"i. c #A58D77",
"p. c #AC927B",
"a. c #BB967E",
"s. c #B1A069",
"d. c #CEAC7F",
"f. c #D3A97C",
"g. c #B29980",
"h. c #BA9E83",
"j. c #BCB5AF",
"k. c #C7A386",
"l. c #C1A48A",
"z. c #C4A98C",
"x. c #DAA688",
"c. c #DBA98C",
"v. c #CFB688",
"b. c #C9AE91",
"n. c #E4AD8C",
"m. c #EBB494",
"M. c #E0BF9F",
"N. c #EFBD99",
"B. c #F4B997",
"V. c #F3BE9C",
"C. c #E1C49E",
"Z. c #DCC9B6",
"A. c #E0C2A0",
"S. c #EBCAA4",
"D. c #EECCAB",
"F. c #F6C5A2",
"G. c #F5CDAB",
"H. c #F8CEAC",
"J. c #F4D1AE",
"K. c #F9D1AE",
"L. c #F0CFB0",
"P. c #EED5BB",
"I. c #F5D3B1",
"U. c #F9D5B3",
"Y. c #F9DABD",
"T. c #F9DBC0",
/* pixels */
"/ ) U m W U R ( / ..W T R R U R U D ( K K n K n n U K U n K W E U K L ( ' ) ] U W ~ T m K Y ) Y T Y ",
"A R R W Y R ) ) U ` } ] ! T Y n Y T K D Y ! U E Y E Y U E W U Y } / ` ] ` Y R U U D Y T K U T ~ | T ",
"^ ( U U T R / ) W W E T W U Y W U U Y T E T T Y E E Y E U U m U | } ` W T U U U T T U T T R U E R D ",
"} R ] L D ) ' X.( 9.D m L R U Y D D ( m K T m U E T K K Y W E U ) ' U W U U W / U m T T T R E Y R Y ",
"( U R ) / ` | Y ] { T W L K B I / ^ ] U K U m U ! Y T K U T Y U D ~ T T U U Y W Y T R Y T T U U U T ",
"/ U U ` / / R D T / ( P f j h h j h j F A U ] m T R T W E U ! T Y ] Y D R E D } T E ! R T Y D E W T ",
"L / ^ ( ( ) W W / J j h j h h h t q # # # < / ^ ( R U U T R Y R T R W D R K R R T T E Y U T m T ] T ",
"/ ] } { ) U m _ G h h h h i q # # # # # # # 1 S U L R K Y E U R R U U R ^ U R m ~ E ~ T U K Y K R Y ",
") / ) U K T U G j h h h t $ # # # # # # # # $ q N } T U U D U Y U Y T T U T ~ T E R R R R R R R D T ",
"n K ] Y R ( H h h h y 0 # # # # # # # # # # # @ @ B U U ! T U Y U K ~ Y ( Y R K W ! T R U U T R D W ",
"m W T T U _ j h h t $ # # # # # # # # # # # # # # , ( K ~ K R Y K D m m U m ( R K D T T K T E ) W ( ",
"/ R T D ( F h j y # # # # # # # # # # # e u $ # # # I T W T D T E U U U D Q T W U K ) ( R R W Y m Y ",
"^ T | ] { f h y $ # # # # # O # w -.t.n.V.V.m.t.i # < D T W T Q R R R Y E W T W Y Y D U K T T K U E ",
"L ^ W D S h d # # # # # # # % 5.n.B.F.K.U.U.D.D.k.# @ Z | W T Y K E ! n U Y U T K K T T R U U T ^ W ",
"^ R W U F h p $ # # # # # g 7.m.F.H.U.U.U.P.4.O.C.q @ A E m K W ! T D U U U Y T U Q R Y K W ( W D U ",
"U T W U H <.b.z.2.q # # z x.V.H.U.U.U.U.U.Z.l   z.$ + n T Y ! T R W W K R T m m D U R T W T W Y m T ",
"L R ) U :.M.L.U.G.,.# u c.G.I.U.U.U.U.U.U.I.p.p.6.# - A ] U ~ E T U K U K } m R U Y R U Y D R R U W ",
"L Y Y ^ r.L.L.H.M.o.% 5.F.Y.U.L.U.U.U.U.U.U.I.h.w # * D W ^ ] W ~ T T R U E ( U R W Y Y Y R W Y D W ",
"L U W 9 r >.t.;.w # i g.I.T.j.q g.U.U.U.U.G.6.% # # S ) ] U D T Y U D D U D ] R U ] | ) R U K R T [ ",
"m K I r e e q # # $ i u.U.T.8.  u.U.U.H.u.l # # # 5 ( U ^ D T ~ ^ D ) ( Y D ^ ] R { / } } U T T U U ",
"m R C t t t 0 $ $ 0 % &.G.I.D.z.J.G.l.l # # # # = L R Y U | W E ^ Y ] ) / ..$.` D ( ~ } Y T T R ( T ",
"L ) a t t t 0 % 0 0 0 % *.u.h.u.1.o.% # # # # # - 4 6 9 M M Z L n A ( ..w.v.k.q.[ ] ] R T U T T [ E ",
"L P e y y p =.% 0 0 # # # # # # # # # # # # O # 0 - 0 $ $ 0 $ 1 - 2 6 3.C.m.f.q.9.{ Q U E K U U ] E ",
"^ 9 t t y y k % 0 $ # # # # # # # # # # O .   O @ - $ % 0 $ $ q q e t :.S.V.e. .^ D U U W ! Q U W U ",
"^ e t y y t 0 q 0 # # # # # # # # $ $ # O . . . O $ - $ - $ 0 e w w q :.S.n.0.) U R ) ] D R ^ n D D ",
"L y t y h w q $ $ $ O O # O O O $ $ $ 0 0 $ . . . . + $ $ % q e r r - *.s.@. .U W W T D T E ( D Y L ",
"^ I d d d e q % $ 1 O . . . . # $ 0 % $ 0 % # . . . . < A L A B V C V ` } [ A D U R T ( W Y Y T W ) ",
"} L I V s 2 1 1 1 1 # O . . . # 0 $ 0 $ % $ $ # . . . . @ M B ( } ) )  .^ W W ( ( Y Y T R U U ( W R ",
"Z b T m R W K ^ L I M 5 . . . # 0 $ $ 0 % $ % # . .   . . O + X & ; > N b D U U T Q R T R U T Y ( D ",
"( ] T T U R U K U W T U . . . O $ 0 0 $ $ % $ # . . . . . . . . . . . . . o : v m T T U U ( R } T Q ",
"} K ) Y K W R U Y W U K 8 . . . # $ $ 0 % % $ O . . . . . . . . . . . . . . . . . & ; x n U W ] D T ",
"U U Y D K W R U R W m Y Y o . . . # $ $ % # O . . . . . . . . . . . . . . . . . . . . . . X ; m R W ",
"^ K ! Y K U D U U D D U R n X . . . . . . . . . . . . . .   . . . . . . . . . . . . . . . . . X v ] ",
"^ m R T T R U Y R W T U R Y x . . . . . . . . . . . . . . . . . . . . . . . . . . . . . . . # . = A ",
"n U m m T ( W ] U U W T T L 5 + # # O O O O O O = 3 * < < = = * * & X X O . . .   . . . . O $ @ O 3 ",
"( m Y U U R D T U Q Y D m = # # # # # # # # # # # # # $ q e - < E W m m U b c > < & o . . . 1 1 O O ",
"^ R R T U ] T W K K U W K # # # # # $ $ 0 # # # # # # $ t r 0 < T | R ( K ( U ) U m m c : & = + O X ",
") T | T T U m Y T U ! T A # # # # # $ 0 q 0 @ # # # # $ e 0 # A R R E ( Y ! U E W W 9.E Y R D U N ( ",
" .~ Y R ^ D U W T T ) T ^ @ # # + # q # q # # # # # # # # @ M T T W T R Y ] D D U T Y T Y U E ) ^  .",
"( U E ^ W W Y ( W T W m ) M , = - $ q 0 $ # # # # # @ @ 3 N | ] T R W E U U | ) D D ~ T T ) U R ( ( ",
") | Q D U T T U R U m W T U U m n L Z Z Z x v N v A K U ( T E W D ^ ^ W ^ ] D R ~ T ] E U K } { | | ",
"^ ( T m R T R R R R m D R U A R W Y E ] ( D T U Y R Y T W T T E D T T D W ] D ] ~ T W U W ^ ( ( } W ",
"U R W W ( R R Y T R W U ] U L U R ' ` [ U Y R Y U U Y Q ] U Y T ^ ) R D R U U T T T Y ^ } ..| ^ ] U ",
"( R E R R U T T T Y R R ] U U ^ T ( | R D ( W D W ( ^ T D K R T R T D W ) U Q R Y T Y ] Y ] / K T D ",
") K R ( T D U Y U ] E D } T T W ( ) | ( T U U W W D Y W T Y W T W R T U T T ( D W R R ( R ] ^ D Y U ",
"( U Y R R U U U U Y Q W Y W A /  .] ( R R T m W U Y D U Y U E E U ) ^ R [ W U m U ] ) / W U U T R R ",
"( Y U K ^ U U U T T ] Y ] ] T / R R Y T R U D T m ] U U T W W Q Y T T R T R ( ) ] } ` ( R U U ( R E ",
") U T D U D U W R R D D ] { ] _ ) R W U R ! D T ) T Q R D ) W D ] T D Y T Y ) ) X.} ^ D Y T T ( R D ",
"/ [ T T ) Y Q T U U U ( _ { ] ^ n U Q R R ( Q ) [ T n ] W Y R R U T U W A ^ D ) ) ) ) E } Q } W U Q ",
"A W | W W T U W R W W U ] E D Y R ( W Y E ( R R ] T D ( D T R R ~ W D T ) Y }  .] W T U T D R T W ) "
};
