/* XPM */
static char *result[] = {
/* columns rows colors chars-per-pixel */
"50 50 144 2 ",
"   c gray2",
".  c #080707",
"X  c #0A0A07",
"o  c #0C0B0B",
"O  c #0F110D",
"+  c #10110F",
"@  c #151A0C",
"#  c #181D0F",
"$  c #131412",
"%  c #161914",
"&  c #191B17",
"*  c #171818",
"=  c #1A1B1A",
"-  c #201F1D",
";  c #1C240C",
":  c #1E290E",
">  c #1D2314",
",  c #1E201E",
"<  c #202C0E",
"1  c #25360B",
"2  c #2A3C0D",
"3  c #232C14",
"4  c #23211E",
"5  c #242B19",
"6  c #253113",
"7  c #2C3B12",
"8  c #313D1F",
"9  c #1F2120",
"0  c #242422",
"q  c #272925",
"w  c #2A2B26",
"e  c #2A2A29",
"r  c #302A26",
"t  c #342E2A",
"y  c #2C3223",
"u  c #2F3920",
"i  c #323B20",
"p  c #31322D",
"a  c #38302C",
"s  c #373F2D",
"d  c #383F2E",
"f  c #353633",
"g  c #3D3731",
"h  c #373A32",
"j  c #443C35",
"k  c #483C35",
"l  c #2E440C",
"z  c #2F490D",
"x  c #32450E",
"c  c #354D0E",
"v  c #384E0E",
"b  c #3A540D",
"n  c #3D5C0C",
"m  c #2E4110",
"M  c #334414",
"N  c #354B12",
"B  c #384D15",
"V  c #36451E",
"C  c #394D19",
"Z  c #3B5311",
"A  c #3E5B11",
"S  c #3D521A",
"D  c #3E630A",
"F  c #3B4727",
"G  c #3D4B24",
"H  c #3A442A",
"J  c #415E0D",
"K  c #425D12",
"L  c #42591F",
"P  c #43640D",
"I  c #49670E",
"U  c #456A0C",
"Y  c #496C0D",
"T  c #47700A",
"R  c #4C720D",
"E  c #4F780D",
"W  c #50750E",
"Q  c #527A0E",
"!  c #456411",
"~  c #496614",
"^  c #466910",
"/  c #4B6C12",
"(  c #4D6C19",
")  c #506E19",
"_  c #4E7211",
"`  c #4F7910",
"'  c #4F711A",
"]  c #517513",
"[  c #547A13",
"{  c #5A7E16",
"}  c #527219",
"|  c #567B18",
" . c #4D4239",
".. c #51443B",
"X. c #524940",
"o. c #5B4E42",
"O. c #695246",
"+. c #675649",
"@. c #795F50",
"#. c #746354",
"$. c #686766",
"%. c #816554",
"&. c #816F5E",
"*. c #8E6E5C",
"=. c #82705E",
"-. c #8F7B67",
";. c #9F7C68",
":. c #817A72",
">. c #5A830E",
",. c #598213",
"<. c #9E8570",
"1. c #A9816B",
"2. c #B98D75",
"3. c #A7907A",
"4. c #AF967F",
"5. c #CB9B7F",
"6. c #BDA48A",
"7. c #D39F83",
"8. c #C3A58B",
"9. c #C7AB8F",
"0. c #D4A083",
"q. c #D9A587",
"w. c #DEA98A",
"e. c #CAAC91",
"r. c #CCB092",
"t. c #D1B195",
"y. c #D7B79C",
"u. c #D7B899",
"i. c #DCBB9D",
"p. c #E0AB8C",
"a. c #E4B897",
"s. c #F4BC9A",
"d. c #DBBDA0",
"f. c #F5C19F",
"g. c #E4C4A3",
"h. c #E8C7A6",
"j. c #EECDAB",
"k. c #F6C6A4",
"l. c #F6C8A6",
"z. c #F2CDAB",
"x. c #F2D0AD",
"c. c #F9D1AF",
"v. c #F6D2B2",
"b. c #F9D5B3",
/* pixels */
"~ / P n R P Y I ~ | R U Y / P I U P / J J n J b b P J P b J W U ! J K ( ) / / P T Q U n J I _ U U I ",
"A Y Y R U / / / ! / [ / R Y I b P I n D U R P T I Y I P T R P I ] ^ / / / I R P U P P U b P U Q [ U ",
"! ^ P P Y U ! _ W R T U E P U _ D P U U R U P P T U I T P U n P ] [ ( / U P D ! U P J R Y Y P Y U P ",
"] Y _ K D / ) { / Q D n J I P U D n / J J I J I T U P J I T T P Y } P R I K R / P n T I U Y Y Y / U ",
"/ P Y / ! ) | I _ ' U T J J b ! R T R P n J K S L F G G L K / P D Q P Y P P U R P T Y P U U P P P U ",
"! P P ( ! ~ Y D U ! R R U Y P U R U U / K G H h h f f f a H F ! P ` / D _ U U ] Y U R R Y U D Y T Y ",
"K ~ K / ^ / R R P U R Y D P U U ! / _ G h f f f f f f f f f f h F ~ _ J / ! R ^ R D T I P I D U / U ",
"/ / ] ' / P J / R U I I J I ` ! P ! H f h f f e p e e e p f f f f d ! R ! D / J Q R W n c c ! J Y Y ",
"/ / / P J U P I U P Y Y P I T D ! d f e 9 = * * * * * * * * = 9 e f H K ! ^ ` P R S 5 = & * 3 ! D U ",
"A b _ I Y Y Y Y U E R D Y / T D H e 9 * * * * * * * * * * * * * = 0 f H ! / / n V e 0 = $ + + c D R ",
"n R U U P R / b J P Y T I ` ! L e = * * * * * * * * * * * * * * * * * e S n ~ i e e w 0 & < b I R / ",
"~ I Y D U U P U Y Y _ P R U ! y * * * * * * * * * * * * * * * * * * * * y / i e q q w w S / Y I n P ",
"P T >./ _ R U Y P E U P P P B * * * * * * * * * * * * * * * * * * * * * * w q e q 0 e u A U P J P T ",
"K ! T D P R R Y P Y R D U Y 3 * * * * * * * = 0 r t t r 0 = * * * * * * * 9 e q e e u ^ Y P U U ! R ",
"! U ` P Y U n I D n I P R n > * * * * * = O.;.7.7.q.q.7.7.2.@.0 * * * * * * q e e e ! ! P R / R D P ",
"P U / P Y Y D R U >.R P P n & * * * = %.w.s.f.k.k.k.k.k.k.k.f.p.*.0 * * * * 0 e y Z R ^ Y U R Y n U ",
"! Y I P R / P P P ` R D ! Z * * * - %.s.c.b.b.b.b.b.b.b.b.b.b.b.l.;.* * * * 0 w S I I U Y D R I D R ",
"K U P U W Y U ^ U R E R R Z & * * ..a.b.d.6.g.b.b.b.b.b.b.z.8.d.v.l.t & * * w C U R I I I Y Y U D _ ",
"K J / J P U D ! U / R R R b > * * +.z.x.:.f &.b.b.b.b.b.b.3.$.o.h.b.g * * * V Y D _ [ / Y P P U U ` ",
"b P P P I R P P I R U U U n 3 * * k u.z.4 . #.b.c.v.b.b.b.-.   .d.r.= * * > K Y U _ / ' / P U Y ! P ",
"n P W R R Y J J U Y R R / R 7 * * * X.g.h.e.v.b.b.b.b.b.b.b.9.h.8.a & * * N _ / ! U [ ] U Y P I U U ",
"K W Y E U U P P U P J Y Y / ~ 5 * * * g #.6.e.y.d.a.i.y.t.8.<.o.w & * * 5 / D ' [ / _ T P P Y U ` R ",
"K ^ D P R P Y Y R R n n / ~ L K & * * , 0 0 e k  .....k a 9 * * * * & & A ' _ | ,._ ` P Y J P U _ Y ",
"! U R ^ ! R ^ Y U Y Q P ] ( A P K 3 0 = 9 0 9 * * * * * * * * * * * 6 n ' / / / ^ D P J R W E P R D ",
"^ ` Y P R P I T P P ] ) | ! P P U B 9 9 9 = * * * * * * * * * * % + n _ ' ! | ^ P Y / Y D U K n D D ",
"! _ R ! U D P U P I _ U ] U U ` P M $ $ * $ * * $ * $ * $ + o . X O U ~ P U _ U R Y Y P U Y / D Y K ",
"P R U R Y P P P ) ( [ R ^ _ A ! / 6 $ o $ $ + o o o o o o . . . . ; ~ | ' ` n n P Y U / E P P Y R U ",
"] J J J J P I J / ] P W ! Y U P n % $ + $ o + o o o o o o . . . . : 7 M v R R / Y I U U Y P P ^ R Y ",
"b b U n I W U R / _ n U D ] ^ K m o X + + + + + o o o o o . . . X $ O $ # c ! P U Q Y D Y P U ^ ! U ",
"I Y U P P I D P P R P / P / ! m % X X + + + + o o o o . . . . . o $ + + O @ / R P U Y U P / Y W U E ",
"_ n / I J R Y P I R P n ] b > o X . . o + + + + o o . . . . . o + + O $ O + U / Y Y I P P P R _ D P ",
"P P U D J R U I Y R K b : $ + . . . X o + + + + o   . . . . . o + + + o $ @ P I Y P R U U D U Y Y R ",
"! J W Y J P D P U D 1 # + o X . . . . X + + + + o X X X X X X o + O + + + > D / n D R P Y R Y W T _ ",
"P n I U Y I P I b 3 $ $ + X . . . . . . + + + + % 7 n A B A v : O O + + + 2 ! R D Y U U I U R Y U U ",
"Z P n n P Y Y 2 o $ $ o . . . . . . . O @ + + O @ Z D P } K ~ : + + $ * * N R / P Y P U R P D P ^ ` ",
"/ J U P P n @ . . o X . . . . . X O 1 P 2 + + O + 2 P / U Y J # + + + = & b Y I D Y Q I I J U R D R ",
"! U ~ P 1 O . . . . X . . . X O 2 n P Q n $ + + + 1 ! Y U U Q @ + $ * = = K J R P D R U P P / Y ^ U ",
"/ U ] 1 X X . . . . . . . + l D Y U U Y / ; + + $ 3 R P _ P U % * * & * * P P R R R >.U U U P W ! _ ",
"} R 6 > > & o . . . . X 1 Y P U I P D P Y 1 O + O ; n I I P n + = = * * + K P D P U I Y P P R Y ! } ",
"! 1 & = = & O . . X ; b R I n Y Y I J P P n % + $ : J J T P >.> * 9 0 - = v Q / D D Q Y U Y P I U ^ ",
"! ; X X X X . . @ 2 b R Y D I D U Y P U R z > $ O @ c R _ Y Y A > & , q 0 N D U Q U R Y P J ] ( | [ ",
"K 2 @ o X X o ; b T n D R D n I Y I U E A ; O o < c b U ^ Y U R b > + * = 7 P ` Q U W P R ! / ^ ] R ",
"P Y R Y U Y I R Y I T P R P A P U / / ` c @ : b P J U E _ U U I P / b 1 6 c P U U U U ! ] | [ ^ _ P ",
"/ U R U Y P Y I P I E U ] P P P U / | / P ! R D R _ ! Y D n Y U Y Y U R / P E ^ P I / _ U _ ~ n P D ",
"/ J / / U D P I P / T D ` U U R U / ] U U P P R R U P R P U W U R T U ! U U / D Y / Y ! Y _ ! P U P ",
"/ J U Y U P P P U P E R P / K ~ ] ' / Y Y I J R J U J P U P Y U A R ! Y R _ P D P _ _ ^ / P P U R / ",
"^ U P J ! U P P U Y R Y Y ' U ~ / Y U U Y D D U n R P P U R R R U U P Y U Y I / ] ] ( ^ Y P P ^ U Y ",
"/ P P P P D P R Y I P D _ ' _ ~ / Y R P Y W D U / U E Y D R R D _ U D Y U U / / { ] K U U U U ^ Y D ",
"/ ] U U / U Q U P J P I ( _ ' K n P W Y Y ^ ` / _ P n ` R ! Y Y P P U _ n ! n Y / / T R ` R ] R D R ",
"D Y ] ] Y U P R Y W R P _ T D ^ Y I R U T ^ Y Y ` U D I P P R U Q W D P ~ Y / | ] _ I P U D Y I R ` "
};
