/* XPM */
static char *result[] = {
/* columns rows colors chars-per-pixel */
"50 50 162 2 ",
"   c gray5",
".  c #10100F",
"X  c #161A0F",
"o  c #191E0E",
"O  c #131413",
"+  c #171912",
"@  c #191C15",
"#  c #171818",
"$  c #1A1B1A",
"%  c #201F1E",
"&  c #1C240F",
"*  c #1F2A0F",
"=  c #1D2414",
"-  c #1D201B",
";  c #212C0F",
":  c #25350E",
">  c #263A0E",
",  c #2B3E0D",
"<  c #202616",
"1  c #222B15",
"2  c #21241D",
"3  c #232A1B",
"4  c #282E1D",
"5  c #263313",
"6  c #283615",
"7  c #2D3C14",
"8  c #253018",
"9  c #2A341B",
"0  c #1F2020",
"q  c #232422",
"w  c #2A2623",
"e  c #262923",
"r  c #2D2926",
"t  c #292929",
"y  c #312B27",
"u  c #342E29",
"i  c #2C3322",
"p  c #2E302E",
"a  c #323C22",
"s  c #31322D",
"d  c #3D352F",
"f  c #33382A",
"g  c #383E2F",
"h  c #343634",
"j  c #3C3531",
"k  c #363833",
"l  c #383A34",
"z  c #3C3E39",
"x  c #40362F",
"c  c #433C36",
"v  c #4A3D35",
"b  c #2D430D",
"n  c #31450F",
"m  c #374E0D",
"M  c #36520E",
"N  c #3B550D",
"B  c #3D5C0C",
"V  c #2F4310",
"C  c #324311",
"Z  c #364C11",
"A  c #35441B",
"S  c #374A1B",
"D  c #384C1A",
"F  c #3B5511",
"G  c #3E5A11",
"H  c #3F531A",
"J  c #3E640A",
"K  c #3F6011",
"L  c #394625",
"P  c #3C4C23",
"I  c #39412C",
"U  c #3D4A2A",
"Y  c #3C4133",
"T  c #415E0D",
"R  c #425D12",
"E  c #41551E",
"W  c #435B1A",
"Q  c #43640D",
"!  c #49670D",
"~  c #456A0C",
"^  c #496C0E",
"/  c #47700C",
"(  c #4C720D",
")  c #4F780D",
"_  c #50760E",
"`  c #527A0E",
"'  c #456411",
"]  c #486613",
"[  c #466911",
"{  c #4A6C12",
"}  c #456019",
"|  c #48621A",
" . c #4D6C19",
".. c #506E1A",
"X. c #4E7211",
"o. c #4F7910",
"O. c #4F7119",
"+. c #517513",
"@. c #547A13",
"#. c #5A7E16",
"$. c #51711A",
"%. c #577B18",
"&. c #455627",
"*. c #415028",
"=. c #474139",
"-. c #4D463D",
";. c #56463C",
":. c #59493F",
">. c #4A6123",
",. c #484845",
"<. c #5A4C41",
"1. c #564C44",
"2. c #5A5046",
"3. c #6C5F52",
"4. c #736256",
"5. c #756859",
"6. c #7A6A5A",
"7. c #7E6F61",
"8. c #7F7163",
"9. c #887765",
"0. c #8C7C6B",
"q. c #927D6B",
"w. c #5B830F",
"e. c #598213",
"r. c #96836E",
"t. c #8F8574",
"y. c #9D8872",
"u. c #998C7C",
"i. c #AC836C",
"p. c #B0876F",
"a. c #A78B75",
"s. c #B48C74",
"d. c #A7907A",
"f. c #A9947D",
"g. c #C69A7F",
"h. c #978D80",
"j. c #AD9680",
"k. c #AF9881",
"l. c #AD9E8D",
"z. c #B49B83",
"x. c #BAA28A",
"c. c #C1A188",
"v. c #C3AA8F",
"b. c #D4A084",
"n. c #CBAE93",
"m. c #D2AC91",
"M. c #CCB193",
"N. c #DFB092",
"B. c #D3B59A",
"V. c #DBBB9C",
"C. c #E4AC8D",
"Z. c #ECB191",
"A. c #F2BA99",
"S. c #E5C3A5",
"D. c #ECCBAA",
"F. c #F6C3A2",
"G. c #F5C9A7",
"H. c #F5CDAB",
"J. c #F8CEAB",
"K. c #F5D1AE",
"L. c #F5D3B1",
"P. c #F9D5B3",
/* pixels */
"] { Q Q ^ Q ( ! ] %.( ~ ( { T ^ ~ Q { T B T T N N Q Q ' N T ( ~ K T R { ..{ +.Q / ` ~ B T ! ^ Q / ! ",
"G ^ ^ ( ~ ] { { Q  .+.{ ( ~ ! N ! ~ T B ' o.' ] W | ] J ( ^ Q ~ +.] ..X. .Q ^ Q Q Q Q ~ T ! / _ ` ! ",
"' [ Q Q / ^ } ^ o.^ / ~ ( ~ ~ X.J ~ { ' W U I l l g I P E Q J Q +.@. .{ ~ Q J ' ~ ~ Q ^ ~ ! Q ~ ! ~ ",
"+.^ X.R J { ..#.[ w.J B R ! Q ~ ~ K &.Y z z h h h h h h k I W R ( $.Q ( ! T ( { Q B ~ ~ ~ ^ / ^ ! ^ ",
"{ Q ^ { } ..#.~ ( X.^ ( T T N [  .U z z l h p p t p t h h k l U Q @.Q ^ Q Q ~ ( Q ~ ^ Q ~ ~ Q Q Q ~ ",
"' ~ T  .' ] ^ J Q [ ^ ( ~ ^ Q [ P z l t q $ $ # $ $ $ $ q t h h P +.~ J ^ ^ J +.! / ( / ~ ! Q / ( ~ ",
"R ] ' { [ { ( ( Q ^ ( ^ J Q X.U h 0 0 $ # # # # # # # # # # $ q h E X.Q ! Q ( ~ / ~ / ! ! ~ Q ~ / ~ ",
"Q ..+. .{ Q T ^ ^ ~ ^ ! R Q &.p 0 # # # # # # # # # # # # # # # $ f W ^ ' J ^ T ` ( ) ~ T T Q T ^ ~ ",
"{ ] { Q T ~ Q ! ~ ~ ^ ^ Q { f q % # # # # # # # # # # # # # # # # $ a ~ ' ~ +.~ ( ~ ^ ( ^ ^ ( ^ Q Q ",
"B T X.! ^ ^ ^ ^ ~ ( ( J ( R q $ $ # # # # # # # # # # # # # # # # # @ R ' { ( B ^ ) ~ ^ Q J ~ ! J ( ",
"B ( ~ ~ Q ( { N Q T ^ ( { A 0 # # # # # # # # # # # # # # # # # # # # C Q B { ^ Q B ~ Q Q Q ) ! ( { ",
"] ! ^ J ~ ~ Q ~ ~ ^ X.[ +.4 # # # # # # $ r x v v v j y $ # # # # # # 8 J ) ~ ( T Q X.{ ! ^ ^ ! B ~ ",
"' ^ ` X.X.( ~ ^ Q ) ~ Q Q = # # # # % ;.i.b.C.Z.Z.Z.C.b.p.v $ $ # # # 1 ^ ( ~ ) ! ! J Q T ~ Q T ' ~ ",
"R ' ^ J ~ ( ( ^ Q ^ ( J { @ # # # u s.A.F.G.J.J.J.J.H.G.F.A.i.y # # # < ! Q Q ! B T ~ ^ ^ Q ~ ~ [ ( ",
"' ~ o.Q { ~ B ! Q B ! Q ( < # # w g.G.P.P.P.P.P.P.P.P.P.P.P.J.s.@ $ # 1 ~ Q Q ! Q ) ~ ~ Q ( { ( J Q ",
"Q ~ ^ ~ ^ ~ J ( ~ w._ Q Q 6 # # :.G.P.P.P.P.P.P.P.P.P.P.P.P.P.V.s # # 7 ^ ~ B B J Q ( ~ ^ Q _ Q B ~ ",
"' ^ ! Q _ { Q Q Q ( ( J ] C # # :.H.D.l.6.D.P.P.P.P.P.D.u.a.L.V.u # # Z ' o.B ! ~ Q ! Q ~ Q ^ { Q X.",
"R ^ Q ~ X.^ ~ ' ~ ( ) ( ( F = $ y M.v.,.  B.P.P.P.P.P.l.h r J.q.$ # = ] J ^ Q ~ ^ ( ! { ^ ^ ( ~ J / ",
"R T { T Q ~ J Q ! { ( ( ( Q F @ $ c f.u.l.L.P.P.P.P.P.L.h.t.5.q # 1 M K J J X.^ Q X.@.{ ^ Q Q ^ ~ o.",
"N Q Q Q ! ( Q Q ( ( ~ ~ Q J ] D @ # 2 d 2.9.d.z.z.j.q.3.c t q q 3 G [ ^ [ Q Q ! ~ {  .+.{ J ~ ^ R ~ ",
"B ~ _ ( ( ^ T Q Q ( ^ ( [ X.G ..7 # # # # # # # # # # # q $ q 9 | ~ X.~ Q Q ( { ' ~ @.X.~ ! ! ! ~ ~ ",
"R ( / ( ~ ~ Q Q ~ Q T ^ X.{ ] 8 # O . . O O # # # O # $ $ $ # $ Z ' { ^ ' ^ Q O.@.{ o.^ Q Q ^ ~ o./ ",
"R [ J Q _ Q ^ ^ ( ( B B { ] 8 $ # . . . . . O O @ # $ # $ .   # @ F Q J ( { [ %.e.X.o.~ ( T Q J X./ ",
"' ~ ( [ ' ^ [ ^ ~ ^ ) ~ +.H $ $ # . . . . O # u B.0.q $ # O O O $ 1 B ~ O.{ [  .[ J Q B ( _ ) Q ( Q ",
"] o.~ ~ ^ Q ! / Q Q +...$.i q q q q 0 0 $ c 6.1.S.H.7.t q q q q e q i {  .] e.^ Q ^ { ! J ~ R B J J ",
"' X.( ] ~ J Q ~ Q ! X.~ L t t t t t t t t j.L.n.m.L.9.t t t t t t t t E Q ~ O.Q ( ^ ( Q ~ ( ! Q ^ R ",
"Q ( ~ ( ^ T Q Q .. .@.( a t t t t t t w t k.P.L.a.N.4.t t t t t t e e &.O.o.B B Q ^ ~  .) ~ ' ~ ( ~ ",
"+.T T T T ! ^ T { +.Q _ S t t t t t t w t q.c.z.-.y j t t t t t t t t W ' ( ( { ^ Q ~ ~ ~ Q Q ~ ( ^ ",
"F N J Q ! _ ~ ( ^ { T ~ Q } S A 3 $ q q t q 0 0 # # # $ O $ $ e L D D ' J J Q Q ~ ) ^ ~ ( Q Q [ ' ~ ",
"! ^ ~ Q Q ! J Q Q ( ~ ! J ! Q X.< . O # % 0 # # # # # #   . . = ] ] ' ! Q Q ( ^ J ^ ! Q Q { ^ _ ~ ) ",
"X.T ^ ! B ( ^ Q ~ ( Q T _ ^ { ~ * . # $ $ % # # # # # . . . . =  .T Q Q Q Q ^ ( ! ^ ~ Q Q Q ( X.J Q ",
"Q Q ~ J T ^ ^ ! ^ ( T Q ^ J { J 1 # $ # O O O # # O O . . . . @ Q Q ( Q Q Q Q Q ^ Q ( ~ ~ J ~ ^ ^ ( ",
"' T _ ~ T Q J Q Q ~ J Q ! ~ Q T < $ # O O . . O . . . . . . . + ! ^ ~ ~ Q T Q { B J ( Q ^ ( ^ _ / X.",
"Q B ! ~ ^ ! ~ Q ~ ( ! Q ^ ] Q F < @ O . . . . . . . . . . . . X ' ' ( ! ~ J Q ^ Q ~ ~ ~ ! ~ ( ^ ~ ~ ",
"G T T B ~ ! ( ( Q ~ ( ~ ~ ] B F 1 # . . . . . . . . . . . . . o B ^ ~ ~ { J ( ^ Q ^ Q ~ ( Q J Q [ o.",
"] T ~ Q Q ~ Q ~ Q ) Q J J N ( B + . . . . . & N R . .   . . . . B ) J Q _ ~ ! Q J ^ ` ! ! T ~ ( J ( ",
"' ^ ! ^ ~ ( ~ ^ T T Q ^ Q T _ n . . . . . . n ( ~ b . .   . . . B ( ! ^ T { B ( ~ J ^ ~ Q Q ^ ^ ] [ ",
"{ ~ @.~ ~ Q R ! ~ Q _ / ~ { ~ b X . . . . . R ( ~ B O . . . . . N ^ / [ ~ ( Q ( X.( w./ ~ ~ Q _ ] / ",
"$._ ^ { ' J J ( ~ ~ { ^ ~ @.Q b . . . . . X ~ ' ! T X . . . . . M ( Q ^ ~ { Q J J ~ ^ ! ! Q ( ! ' +.",
"[ Q / Q ( ( [ [ / ^ ^ T ^ ^ B , . . . . . ; ( ( Q m &   . . . . n ( _ / Q ' ` X.J J ` ! ~ ^ Q ^ [ [ ",
"{ ` ( Q ~ ~ Q ~ ^ Q T ^ ^ J ~ :   . . . . > ~ Q Q ^ :     O . . > [ ' / ' { J ~ _ ~ ( ^ Q R +.O.%.@.",
"] [ ~ J ^ ~ ^ [ ^ ^ B J ^ Q N ; . . . . . b ~ ' ~ { b O .   . . > [ Q J ( ( Q o.` ~ _ Q ( Q { [ +.( ",
"' ~ ( ^ [ ^ ! ^ / ! ( Q ( Q N o . . . . . N { ~ Q T N   . . . . ; { ^ ~ ^ Q J [ ~ ~ Q ! +.%.+.[ X.Q ",
"^ ^ ( ~ ^ Q ! ~ Q ! ( ~ +.~ Q . . . . . . Q ( J ^ ( ' . . . . . & ~ ~ X.{ Q ) ^ Q ^ { O.~ X.] B Q J ",
"{ T X.[ ^ J Q ~ Q ^ / ~ ( / B . . . . . o Q Q ( _ ~ ~ & . . .   = Q ~ ' ~ ~ { J ^ ^ ~ ' ^ X.{ J ~ Q ",
"[ T ~ ^ ! Q Q Q ~ Q ( ( ! { b . O . . . * ! B ( T ! Q *   . . O . T Q ^ ) ( Q B Q X.X.[ { Q Q Q ( ^ ",
"[ ~ Q T Q ~ Q Q ~ ^ ( ~ ^ +.6 e t e @ . b Q J ~ T X.Q b . @ 2 q 2 b Q ^ ~ ^ ! { +.+. .~ ~ Q Q { ~ ^ ",
" .Q Q J Q J Q ( ^ ! Q J O.O.@ q @ O + 5 ~ ( J ~ { ~ ( Q 1 O @ - q 5 B [ ~ ~ {  .#.+.} ~ ! ~ ~ [ ^ J ",
"{ _ ~ ^ ^ ~ _ ~ Q Q T {  .[ O . . * N ~ ~ [ o.{ X.Q B X.~ > + O O & B X.G ' B ^  .( ^ ^ o.( @.^ Q ( ",
"K ^ +.( ( ~ Q ( ^ _ ( Q { X.J ' ~ ^ o.~ ( [ [ ^ o.^ ' ~ Q ! ^ J Q ^ J Q { ^ O.+.X.( ~ Q ~ J ~ ^ ( o."
};
