/* XPM */
static char *result[] = {
/* columns rows colors chars-per-pixel */
"50 50 138 2 ",
"   c #1C162A",
".  c #1E182C",
"X  c #1E1A32",
"o  c #231525",
"O  c #2C1727",
"+  c #241728",
"@  c #2B1728",
"#  c #23192C",
"$  c #2C1C2E",
"%  c #331727",
"&  c #361827",
"*  c #3C1827",
"=  c #351929",
"-  c #3B1A2B",
";  c #221C35",
":  c #2D1D31",
">  c #241E39",
",  c #341E34",
"<  c #3C1D33",
"1  c #262136",
"2  c #2E2135",
"3  c #26213C",
"4  c #2A233C",
"5  c #322336",
"6  c #3C2133",
"7  c #312339",
"8  c #3A223C",
"9  c #372938",
"0  c #3D2A3C",
"q  c #482208",
"w  c #5C330C",
"e  c #602E1E",
"r  c #643713",
"t  c #663813",
"y  c #69351E",
"u  c #461426",
"i  c #491527",
"p  c #4C1628",
"a  c #431E2F",
"s  c #4C1C2E",
"d  c #531B2E",
"f  c #431F31",
"g  c #4A1F31",
"h  c #531D31",
"j  c #4F212F",
"k  c #5D242D",
"l  c #442435",
"z  c #4C2234",
"x  c #43243B",
"c  c #4C253C",
"v  c #432B3D",
"b  c #4D2B3C",
"n  c #532235",
"m  c #5C2534",
"M  c #542834",
"N  c #5F2837",
"B  c #50273D",
"V  c #5D2639",
"C  c #542A3D",
"Z  c #5B2B3D",
"A  c #56313E",
"S  c #622E23",
"D  c #61262E",
"F  c #64292E",
"G  c #6B2E2F",
"H  c #663127",
"J  c #6A3623",
"K  c #663028",
"L  c #6B332D",
"P  c #733E26",
"I  c #73332F",
"U  c #79362F",
"Y  c #602733",
"T  c #632934",
"R  c #6B2E33",
"E  c #61273C",
"W  c #632A39",
"Q  c #6A2E39",
"!  c #6E3134",
"~  c #60323E",
"^  c #6E3139",
"/  c #733334",
"(  c #793632",
")  c #7A3835",
"_  c #743539",
"`  c #783738",
"'  c #773939",
"]  c #7B3A39",
"[  c #734417",
"{  c #734222",
"}  c #7C4529",
"|  c #272141",
" . c #2B2642",
".. c #2D2945",
"X. c #2E2749",
"o. c #2F2949",
"O. c #312643",
"+. c #382443",
"@. c #312946",
"#. c #3F2E43",
"$. c #32274B",
"%. c #322A4B",
"&. c #392C4D",
"*. c #3F3041",
"=. c #342B54",
"-. c #3A2D52",
";. c #362D5A",
":. c #382F5D",
">. c #393056",
",. c #3A305E",
"<. c #3A2F61",
"1. c #3A3061",
"2. c #432E42",
"3. c #4A2D41",
"4. c #532E42",
"5. c #5D2D40",
"6. c #443145",
"7. c #483245",
"8. c #46344B",
"9. c #49354C",
"0. c #47384A",
"q. c #4A394F",
"w. c #533244",
"e. c #5A3443",
"r. c #5A3847",
"t. c #533448",
"y. c #5A3749",
"u. c #5E394A",
"i. c #433456",
"p. c #4A3750",
"a. c #4B3B53",
"s. c #42355C",
"d. c #4D3E59",
"f. c #623443",
"g. c #50425D",
"h. c #534464",
"j. c #803C3A",
"k. c #824B2C",
/* pixels */
": .     #     # 1 4 4 4 4 4 4 4 4 4 1 1 1 3 3 4 4 4 4 4 4 4 4 1 4 4 4 4 4 4 1 4 4 4 # . # . . . # 2 ",
"> | 7 | | | 3 &.&.-.>.8.i.a.>.&.*.o.....&.&.&.7 4 4 %.@.@.O.O.4 >.>.>.>.&.&.>.>.>.&.@.4 4 1 4 4 4 4 ",
"| | | X.=.>. .@.%.%.%.&.%.%.%.%.o.o.....4 ; ; ; ; ; X ; 1 4 .. .;.>.>.>.>.>.>.>.>.>.>.4 %...4 3 3 > ",
"| X.X.=.=.>.4 X.%.%.@.%.%.%.%.%.o...3 1 ; ; | X.=.>.=.| X . ; 3 >.>.>.>.>.;.=.=.%.=.>.4 %.%.%...4 3 ",
"o.o... .| | 1 ..@.@.o.@..... .X.4 1 X 1 o.=.;.;.;.:.1.1.1.;.4 . > X.=.%.=.@.@. . .| ..4 ....%.@.@...",
"1 3 1 1 4 4 4 4 4 4 4 4 3 1 3 # . 1 o.%.o.=.;.;.=.:.1.1.1.1.:.=.> # ; 3 2 3 3 4 3 3 4 4 4 4 4 4 4 1 ",
" .@.%.&.&.&.@.....@.@...4 4 ; 3 o.=.;.;.=.;.=.+.< x &.:.1.1.;.1.<.=.4 >  .3 %.%.%.&.........%.....4 ",
" .o................... .1 ; 3 ;.=.=.;.;.o.9 , = @ O = < x -.:.1.:.$.=. .; >  .X................... .",
"4 .. .......4 ..4  .4 1 X $.<.:.:.=.@.6 % O   o o o o o # < f -.=.=.=.=. .X ;  .......4 .. ..... . .",
"3 .. . . ..... . . .; X %.<.:.1.:.+.- O o o o o o o o o o o $ f 8 &.=.=.=.X.X X 4 ..4 .. ...4 4 4 1 ",
"4 4 1 3 4 4 1 3 3 X . ..:.:.,.=.- = o o   o % h d h g = o o o o , a $.=.;.;.X.  X 4 4 1 1 3 3 4 4 4 ",
"..@.&.&.@.....%.o.| o.:.,.<.&.- @ o + o * d m E h V V V n - o + o = g &.;.;.<.=.3 4 ..4 %.>.%.>.s.s.",
"..4  . . . . .o.| ..:.:.<.&.- O o o $ g m m V E V V V V V V j = + o = f &.;.;.:.4 X 3  .>.=.>.;.>.>.",
".... .3 4 4 3 | | >.=.:.=.= O o + 6 p m m m m W n N V Y V N m u 6 + o $ g =.;.=.=.1 1 3 >.>.>.;.=.>.",
"1 1 1 3 > 3 1 X =.<.:.%.- % o $ l V h m m Y E W V V V V V V N u m l $ o - g =.;.:.o.  1 %.%.%.=.o.=.",
"1 3 4 4 3 4 1 X :.:.;.7 - o $ x k Y h m Y Y E E m h N W T W E p N W l : o f 0 ;.:.;.X 1 4 ..4 4 4 1 ",
" .%.o.o.@.@.3 X.=.=.%.- O @ 0 N k W h m m m N V M B V V W W W p V W V 0 $ % j &.;.;.X.3 %.&.%.....4 ",
"4 ..o...o...; =.=.;.8 * + 5 b T k T d Y M v v v v v v v 0 C W p T W T B 9 + s 8 =.=.$.; ..........4 ",
"4 ..........X o.=.=.- & @ 9 W Y Y T h T b l V E W W T W c b N d T W W W 0 $ a j ;.;.=.X |  .4  ...3 ",
"3  ... . .3 X =.=.=.- % $ 0 W m F T d T b c T W W W W W b b D n W W W ~ 0 $ - z =.:.;.; 1 3 3 3 3 3 ",
"..4 4 9  .4 # X.X.X.* O $ 0 W F k W d T b b W Q W Q Q W B b Y m W Q W W v $ , h X.%.X.X > 4 7 O...4 ",
"&.>.>.=.@.o.3 =.;.;.* @ $ 0 M M M A z C v C W Q Q T Q Q B 7.Z z A C Z Z 2.$ $ p =.=.=.> @.$.@.%.%.&.",
"..%.@.@.o...; =.;.;.* + : 6.6.2.6.0.8.8.0.3.Q Q Q ^ ^ Q C i.8.8.0.#.6.6.6.$ $ g =.=.;.> 4  .X. ...@.",
"@.....@... .; =.;.=.* + $ #.v v v b 2.7.8.4.^ ^ ! ^ ^ / A 6.7.2.3.3.2.v *.2 $ a =.=.=.X 4 X. . .....",
"4 4 3 4  .1 X %.=.=.% + : 2.T F Q R h F r.4.^ ^ ^ / / _ 4.3.Q m Q Q Q Q 6.: : a =.;.=.> 3  . .4 4 3 ",
"1 4 4 4 4 3 1 %.=.=.% + : 2.F F _ R Y G r.4._ _ / _ _ _ e.w.R k Q Q Q Q 2.4 $ a =.-.;.> > 4 4 4 1 1 ",
"4 ....o.o.X.> o.=.=.= + , 6.T R _ Q D R r.4.' / _ ' ` ` 5.t.R h ^ ^ ^ T 8., : a =.;.:.> @.@.X...@.4 ",
"4 ..o.o.o...> o.=.=.= + > 8.G Q _ Q d R y.9.Z f.f.f.f.f.t.w.R Y ^ ^ ^ R 8.7 : a =.=.;.>  .@.@..... .",
"3  . .X.o...1 =.=.$.% + 2 6.R ^ Q ^ D / ~ w.4.w.4.t.t.t.t.Z R T L L ! Q 8.2 $ a ;.:.;.>  ...X.....3 ",
"3 3  . .| 3 X ;.=.=.= o 7 8.Q _ Q R k / Q _ G R Q R Q Q Q R R H [ [ L ! 8.7 : a :.<.<.; ; 3 4 | 3 3 ",
"3 2 3 2 3 > X ;.=.=.= + 2 8.Q R _ ! D / _ ^ G G R Q / _ / G ! S [ [ L R 8.7 : a ,.1.<.; 2 4 4 4 4 O.",
"o.@.&.&.@. .; =.=.=.= + 7 8._ Q _ R D / / _ G ! R ^ R _ / L G r q q t L 9.7 : g ;.1.<.> @.@.%.&.&.&.",
" . . . .X.4 ; =.=.=.= + , p._ ^ _ R D G / _ R / G R / _ / G y e w w J J 9.7 : a ;.:.;.>  ...........",
" . .4 4 4 4 X =.=.X.= + 7 8.^ _ _ / D ! / _ / I G ! _ _ / G J P t t } J 9.7 : a ;.<.;.>  . . . .....",
"3 1 1 X ; ; X ;.=.X.= + 4 8./ _ _ _ F / / _ ` G G R _ ` G I ! { k.k.{ G 8.5 : a ;.<.:.; 3  .4  . .| ",
"1 1 4 3 4 > ; X.X.X.= + : p./ _ / ` F G / ` ` / G D _ ` I I _ G K S / ! 8.4 $ a %.%.%.; 1 4 4 4 3 1 ",
"3 o...@.@...> ;.;.;.& + 4 9._ _ _ ` G I / / j.f.I / ` ` / I _ R _ _ _ / 9.7 $ f =.=.;.>  . . .4 ..1 ",
"3  . .3 4 3 X ;.=.;.& + , 8._ ` _ ) F / / _ j.} ! / ' ` I I _ ! ` _ ` _ p., $ a X.=.=.> 3  . .3 | 3 ",
"3 3 3  .4 3 > :.:.=.& + : 8.e.e.A r.w.e.e.f.f.u.u.u.u.u.e.e.u.e.r.e.e.e.8.5 $ a =.=.=.1 3 | 3  .3 3 ",
"; | | 3 4 > ; :.>.;.& o 5 8.a.a.a.d.d.d.h.h.h.h.g.g.h.h.h.h.g.a.d.d.a.a.p.2 $ f X.=.;.X 1 3 3 3 3 3 ",
"4 4 2 3  .3 X ;.;.:.= + : 8.A A Z A C r.A A A e.r.A r.A A A e.C e.A C A 8.2 $ a =.=.=.X >  .> > 4 7 ",
"@.@.%.%.X.| 1 :.:.:.% + : 7.' ' ] ` ! ] ) U U ) ) I ] ) U I ] ! _ ' ) ` 7.2 $ a =.=.;.> | | X.+...@.",
" . .|  . .4 X :.;.=.% + : 7.] ` j.] L ] ] ) U U ) / ] ) U U j./ ( ] ' ` 7.2 $ a X.=.X.> 3 3 3 4 3 3 ",
" .|  .| 3 4 X =.=.=.% + $ 7.] ) j.] S ] j.) U U ( I j.) U U ] ! ] ) ] ) 7.$ $ a =.=.;.X 1 3 3 3 | 3 ",
"> > > ; 1 X X ;.;.=.& + $ 7.' ) j.] F ) j.j.U ( I I k.] U ( j.G j.) ] ] 7.$ $ a =.;.;.1 > 1 3 3 3 3 ",
"> 4 .. . .| 1 ;.;.=.& + $ 3.) _ ' ) k ) ] ] ( ( I I ] ` / / ] G ' ' ' ' 7.$ $ l =.;.:.3  . . . .3 1 ",
"3  .4 3 | ..1 ;.;.=.& + $ 7.7.6.8.8.9.8.8.q.p.p.p.p.a.a.p.9.9.8.7.8.7.7.7.$ $ f X.;.;.> ...... .| 3 ",
"3 | 3 3 3 | X ;.o.=.= + $ 0 #.6.0 7.7.7.8.8.8.9.9.7.9.9.2.9.6.6.6.6.2.6.#.$ : - =.=.;.> 3 3 3 3 | 3 ",
"> 3 3 3 3 3 X ;.;.=.% , x c c B B B B C V 4.V 5.5.4.Z 5.4.V C C B B B c c c < f $.=.=.; ; X X | | > ",
"X 3 3 | X X X ;.=.;.< c 3.c B B B V 4.5.5.5.5.5.5.5.5.5.5.5.5.4.C C C B 4.c 3.g $.=.;.X X X X X X X "
};
