/* XPM */
static char *result[] = {
/* columns rows colors chars-per-pixel */
"50 50 45 1 ",
"  c #1C162A",
". c #1E182C",
"X c #1E1A32",
"o c #211A2E",
"O c #221C34",
"+ c #2B1C36",
"@ c #241E39",
"# c #281F39",
"$ c #262136",
"% c #282137",
"& c #26213C",
"* c #2A233C",
"= c #272141",
"- c #2B2642",
"; c #2D2945",
": c #2E2749",
"> c #2F2949",
", c #312643",
"< c #312946",
"1 c #302749",
"2 c #322B4B",
"3 c #392E4D",
"4 c #37304E",
"5 c #39334F",
"6 c #3E3A4A",
"7 c #342C54",
"8 c #3A2F53",
"9 c #362D5A",
"0 c #382F5D",
"q c #373052",
"w c #393155",
"e c #3E3853",
"r c #373058",
"t c #3B325C",
"y c #392F60",
"u c #3A3061",
"i c #423E4D",
"p c #433456",
"a c #413B52",
"s c #42355C",
"d c #474447",
"f c #484647",
"g c #46434A",
"h c #494748",
"j c #4A4949",
/* pixels */
"+.o o  o%%*%******%%%%*%******%%&**%**&%*%O.oo.oo+",
"#&*=+=#3345ppp444<**33<,**<1<,2*8pe93qwwp3<&*$%%**",
"===:8r-122424222>44*&#OX#OXO$*;*9w9wrr88rq8-2>*$#O",
"=::78r*>;2224222><*$OO=:797&XOX*wrw9rr87787*>22;-#",
">>;*==$-<2;2>>->*$ @:7999tuut9&.#:7221::==**;;22<,",
"&&&%&*******$$$o.X;777997tuuuu97OoO&&&&&********&&",
"&244422>;2>>**O&>79979reggstytruy7&@-%2224<;<;<21*",
"*<;<*;;;;*;-$O&97779qahfdghdittuy27=##;;>;;;>;;*<*",
"-----;*;*;*OX>uyy2qgjjjjjjjjddgt2777:XX-;-;-;;-*;*",
"*-----;---OX>yyytejffjjjjjjjjjff67777-XX--*-----**",
"*%*%**$*&X.;rtttgjfjjjjjjjjjjjjfff4799: o**$$*%***",
"<2442;-2;&7ruttgfjjjjjjjjjjjjjjfjfdw99y7&*;*q48rpt",
"*;=---->=;t0yrdjjjjjjjjjjjjjjjjjjjdhwtrt*X&-rqr9rr",
";**=*-*==r7rtjjjjjjjjjjjjjjjjjjjjdjjjry77$$*qq9qqr",
"*$$@@@$X7y04jjjjjjjjjjjjjjjjjjjjjjjjdjq90: @>7242>",
"$*****$X009ejjdjjjjjjjjjjjjjjjjjjjjjdje707X$*-****",
";>>>21#-r7qdfjjjjjjjjjjjjjjjjjjjjjjjjjjw99:&2422>*",
"*;>>>>O77rejjdjjjjjjjjjjjjjjjjjjjjjjjdj6877X>>*;;&",
"*;;;>*X>77gjfjjjjjjjjjjjjjjjjjjjjjjjjjfd997X*&*;-*",
"&-;;=*X77:jfjjjjjjjjjjjjjjjjjjjjjjjjjjdj999X&&&*&&",
"-*;***.::7djjjjjjjjjjjjjjjjjjjjjjjjjjjfj22:X#**,;*",
"55542>&700jfjjjjjjjjjjjjjjjjjjjjjjjjjffj777@-<1144",
";22>>;X799fjjjjjjjjjjjjjjjjjjjjjjjjjjjfj779@--<-;;",
";;2;;;X99qfjjjjjjjjjjjjjjjjjjjjjjjjjjjff777O=;-;-;",
"***=*$X777jjjjjjjjjjjjjjjjjjjjjjjjjjjjfj999O&--***",
"$%****X>79jjjjjjjjjjjjjjjjjjjjjjjjjjjjff877#&***$$",
"*>;221@277fjjjjjjjjjjjjjjjjjjjjjjjjjjjfj790#<<-1>*",
"*;;;1-@>7qfjdjjjjjjjjjjjjjjjjjjjjjjjjjff879@-<<1;=",
"&--,--#777djjjjjjjjjjjjjjjjjjjjjjjjjjjffry9#-,-<;&",
"&=---&X9rrjjjjjjjjjjjjjjjjjjjjjjjjjjjhfftyuX#&==&*",
"&%&%#@O9rqjjjjjjjjjjjjjjjjjjjjjjjjjjjjffuyuO%*%%*;",
"<<331-X7rtjjjjjjjjjjjjjjjjjjjjjjjjjjjfhjtuu&<<2334",
">;-;;-O727hjhjjjjjjjjjjjjjjjjjjjjjjjjjjjsur&=;;;;-",
"-**&==O772jjhjjjjjjjjjjjjjjjjjjjjjjjjjjjuu9O=;-;;;",
"$#OOOOX772hhjjjjjjjjjjjjjjjjjjjjjjjjjjjjutt$&----=",
"O&*&*%O:71hjhjjjjjjjjjjjjjjjjjjjjjjjjjjjaq>$&**&$$",
"&1><2*@99rfjhjjjjjjjjjjjjjjjjjjjjjjjjjjj777@&--*;&",
"&-=***@999jjjjjjjjjjjjjjjjjjjjjjjjjjjjjj777@&-&-*&",
"&=*=*&@99qjfjjjjjjjjjjjjjjjjjjjjjjjjjjjj777@&=*&*&",
"$&*&&&O99rhjjjjjjjjjjjjjjjjjjjjjjjjjjjjj777O&&&=*$",
"**&&=&X9t9jjjjjjjjjjjjjjjjjjjjjjjjjjjjdj777X@**&**",
"1,3<<-X0u9jffjjjjjjjjjjjjjjjjjjjjjjjjjdj777O=;;-;>",
"-----=X097jjjjjjjjjjjjjjjjjjjjjjjjjjjjdd>7>@&&&*=&",
"*-&-*&X778jfjjjjjjjjjjjjjjjjjjjjjjjjjjdjr77@@&&&&&",
"#@@X$XX097jjjjjjjjjjjjjjjjjjjjjjjjjjjjdj799O@@&&&&",
"@---*-$997jffjjjjjjjjjjjjjjjjjjjjjjjjjdjr90&*;--&$",
"&-&==-X797jjjjjjjjjjjjjjjjjjjjjjjjjjjjjj777&;;--=&",
"&=&&=&@977jdjjjjjjjjjjjjjjjjjjjjjjjjjjdjr7r@&&&&=&",
"&&&&=&X997jdjjjjjjjjjjjjjjjjjjjjjjjjjjjjq2rX@X@&&&",
"O@&&XXX077djjjjjjjjjjjjjjjjjjjjjjjjjjjjjqr7XXXXXXX"
};
