/* XPM */
static char *floor1675858257[] = {
/* columns rows colors chars-per-pixel */
"50 50 35 1 ",
"  c #3C550C",
". c #3D5C0C",
"X c #3D5411",
"o c #3E5B11",
"O c #3E640A",
"+ c #415E0D",
"@ c #415D12",
"# c #43640D",
"$ c #49670D",
"% c #456A0C",
"& c #496C0D",
"* c #47700B",
"= c #4C720D",
"- c #4F780C",
"; c #50760E",
": c #527A0E",
"> c #456411",
", c #496614",
"< c #466910",
"1 c #4B6C12",
"2 c #496419",
"3 c #4D6C19",
"4 c #506F15",
"5 c #506E19",
"6 c #4E7211",
"7 c #4F7910",
"8 c #4F711A",
"9 c #517413",
"0 c #547A13",
"q c #597D17",
"w c #527219",
"e c #567B18",
"r c #56810E",
"t c #5A830E",
"y c #598213",
/* pixels */
"21#+=#=$<e6$=<#&%#<+..+  ### +=%>.@1516#*:%.+&1$*#",
"O&&=$<<1>30&=%< #&..%-#*$&$#*=#$91311,&###%% #&-0$",
"><#+&%216=*#;#$=O#&%&$%#*%$*$%.#093&&##,%%+&&&#*$O",
"9&6@O1wq1rO.@&##%O<++$+#*%++$**#&w#=#+=<#.%&%&$$<*",
"<O&3>5q$66&=+. #=$=O++.#-#&+##&#O:%*##$=#%&#%&%##%",
"2$+1>2=OO<*=$=#&=O%=$&=.%#%=&%=$#9&.&*O6&%=&%$#**=",
"@1>1<1==#&=&O#&%<&=>*=7#$$O#$&&&#&=.<+=&*%*$#$O%1#",
"$3931#.&&%&&o#6#$$#<==<=#+&##%#1%#&=>#&.-*:%#+#+1*",
"1,1#+%O&%#&&##=O$O%;-O$&%6###O#$#$*##%:%*&&=&&&&##",
"..6$&&=1%==O=6%O%##==O#<6#O#-##$#+:<<&&.==&&##%&O=",
"o=&O#=< #+&&16#%++ #$#:###$#0.6#O. +#.<&+O%#O#=1=<",
"2&*O$%#&&&=#=O#<&&.%##60##1*=%O&&%<#O=&=++1&&1&$O$",
"#&r17=%&#-%#+%1$%&%%1.%289$O*=%=$$*#%=%-&&.#.%#+O*",
"@#*O#1=&#&&O&*&=&&#&>#6#9=.#0=&$#==.$##$.+%&&#%%<6",
">$7$1%O&O.&#&%O$%&##2>>3=O#%%+.==%O####&#-&$#=<-O#",
"#&&O&%O&%t=##& r*.6&<16O>##$%%=%&==o&* .OO-#6O=$.#",
">&&O=1#+#=*#>#.#$#93<96#&##&=#0%#$##+6.&<#&#$O=&O6",
"@&#$=&$<%;;*=+=#<995$++;#&=O=#==:%%$O=$#%=$$&&&$O*",
"@+1+#%O#$1==*#6##$96&#O-=#6&6#O&##Oo#O6&#6e<&##&<7",
"++#O1=>#==%%###33#&#%%.%<###<O%-<O&&$O#&#3191#%&##",
".$9=&=.#O*==<6@w61.##&$=%@%%#:==##=&#>=1>&06&&%$<%",
"o=&-&%##$$+&111<&1#$$.%,%=:;$%**O#<&<1O80*6&##&%7=",
"@<OO=O=$&=..1>@6=#&=#O%#%&%%&%%*%$#O&11ey67#*+#O==",
">%=<>=>=%67#e3X#%&&=O11#.+#-;##&+6%#6311>O##=9-#=O",
",7%%&#$%##58e<##%#=%##=#9=>$O.&$&%%61>y<#&16O%..OO",
"<6=<%O#&$1=$6%%6O&;%%##=:O#=%%-O:&%<><8O*6%#%=<#$@",
"#9%&&###5,0=<=o#&$#&%$.-+###<&=%@&2w8=.O#&%<=$<#*1",
"6++++#$#19#;#1%#%%#%&#O%#6<#%:&0q1=w>==1&&$%&##<6*",
"X O.$;%*<9 %%6%o%&*#*=.%$%=#%&%%96>>OO###:&%=O#<>#",
"<&*##$##$;%&O&#=#$##$ ##&%%&&&#%1,>&##;&O%%#$<*0%-",
"6.6$+=&+#*#+;&&%#$O#&&&#O&&%03>93+####*&$&&###=6O%",
"##$O+*&$&=+#&O&#O%%%*#=%#0%O.1>9&$&#####&#=#$O%&&=",
"<+;&.#O##OO#&%##+1&#$#####$&06#16$$*##+<.O=#====&=",
"+.$%%$$$&=$#$<++#%&$&##O$#-318$#6>&%#O#=#&$#$#*&&%",
"X#..%$=6%#7%%#.O+##r*&+.#>O%wo$%%*%%1O*&+&#%=#O#<7",
"<.$##&%#O-#O+ ==##=%%:=#=+#$$*.O*=O#:$&#O*:&&#$=O=",
"<$&##=%&#+#&$+:.+$#:$&+=%#<1#&:&&;&&.<.6%#*%+#&&<#",
"1%0%#<.<$#;%%<%#&%%&=:<=%-*$=#$*&&%6#-#*6=t%<%#;>6",
"8:&<$O<=%%1*#0O%%#O#&OO<$$O&%O+&%;#$$6OOO%$&$#*&<w",
"<#*>-*$<&&=.&&o&&$+#$=1=# ..%%:=#==*#>06OO:&%$#1<<",
"10=O>*O$&#+&&O$O%&#$=O%<O===1**=OO>*>6O&:%1*#+5we7",
"<<%O=O6<&*.O=O.&=#%-#O%<&&$%=%%*#&#O=6O=:%;#;>1$0=",
">&=&<&$*&&*#6#X#$66-O$<##+#-6#$$>6&%&##&#%%>9e7<6#",
"&#=%&#$%##=&6####<e1#<-O==<&O.*%$%O6<#-<#&<9$=2.#O",
"1+1<&O#$#1*O9%%=<10<%##==O$=#%-%==%>#%6O&&&<&6<O%#",
"<#%&&O##%$-=$=>>w6<&&%.-+$##$#&%o=#&-=O.#66,6###&1",
"<$#+>###%&6$66>>1&$%&+O#.7##%===<%%$%&&<693<&##<&*",
"1####O#=&$OO68131*=#&;O%1#-&#==O6*O<%$13y8>O&$%<&O",
"<0%#6&-&###<319@.>=&&<7<7#.6-#1&##$=o>O<11<=6=0=O=",
"o=6-*%>=%==#1=O<&$-#*1&&6*o&O%&%;-O#1$1e;6&#%O&&=6"
};
