/* XPM */
static char *player1675858268[] = {
/* columns rows colors chars-per-pixel */
"50 50 232 2 ",
"   c #0A0C08",
".  c #14160C",
"X  c #151A13",
"o  c #1B1B15",
"O  c #1C1D1C",
"+  c #181716",
"@  c #10110A",
"#  c #221C1A",
"$  c #1D270B",
"%  c #1D2218",
"&  c #0F250F",
"*  c #212B13",
"=  c #22231F",
"-  c #252B1B",
";  c #242919",
":  c #2A3618",
">  c #343B1B",
",  c #2E3211",
"<  c #1A1E25",
"1  c #0E2834",
"2  c #152625",
"3  c #232424",
"4  c #262B24",
"5  c #2A2B25",
"6  c #2B2C2B",
"7  c #26282A",
"8  c #312E2A",
"9  c #2D3424",
"0  c #2F302D",
"q  c #32342D",
"w  c #363C2B",
"e  c #2B2930",
"r  c #333431",
"t  c #373934",
"y  c #3B3C35",
"u  c #2A3939",
"i  c #433825",
"p  c #32470F",
"a  c #3C560D",
"s  c #3D5C0D",
"d  c #36540F",
"f  c #2D4011",
"g  c #324313",
"h  c #364A11",
"j  c #354A19",
"k  c #3A4C15",
"l  c #3B5312",
"z  c #3E5B11",
"x  c #39551D",
"c  c #3E630B",
"v  c #19543F",
"b  c #274927",
"n  c #3A4626",
"m  c #315428",
"M  c #3D4235",
"N  c #3E423A",
"B  c #374539",
"V  c #214A32",
"C  c #3D6324",
"Z  c #415D0D",
"A  c #425D12",
"S  c #41551E",
"D  c #4C561B",
"F  c #4A4918",
"G  c #43640D",
"H  c #48670E",
"J  c #456A0C",
"K  c #496C0E",
"L  c #4C720E",
"P  c #47700B",
"I  c #50750E",
"U  c #52790E",
"Y  c #456412",
"T  c #496614",
"R  c #466A11",
"E  c #4B6C13",
"W  c #496519",
"Q  c #4C6B1A",
"!  c #476419",
"~  c #506D1C",
"^  c #506F17",
"/  c #4E7212",
"(  c #4F711B",
")  c #4F7910",
"_  c #517413",
"`  c #537A13",
"'  c #52741B",
"]  c #56791B",
"[  c #597B1E",
"{  c #597E14",
"}  c #464928",
"|  c #465A29",
" . c #42453C",
".. c #444A3B",
"X. c #484B36",
"o. c #4A5537",
"O. c #57522B",
"+. c #665727",
"@. c #67553B",
"#. c #785A39",
"$. c #694734",
"%. c #4D6622",
"&. c #4F6A21",
"*. c #496228",
"=. c #536D23",
"-. c #556C2B",
";. c #586623",
":. c #557323",
">. c #597623",
",. c #5B7B25",
"<. c #56732B",
"1. c #5A752A",
"2. c #5B792A",
"3. c #567927",
"4. c #566A32",
"5. c #5D7734",
"6. c #607D2D",
"7. c #627939",
"8. c #6D653A",
"9. c #13334B",
"0. c #333D40",
"q. c #1A4857",
"w. c #194F46",
"e. c #2D554B",
"r. c #1E5571",
"t. c #285A7B",
"y. c #1E797E",
"u. c #236265",
"i. c #386A77",
"p. c #306E71",
"a. c #494D41",
"s. c #464A43",
"d. c #4C5242",
"f. c #475849",
"g. c #565947",
"h. c #4E524B",
"j. c #6E594A",
"k. c #775E4E",
"l. c #5C6546",
"z. c #496C53",
"x. c #646A49",
"c. c #657548",
"v. c #687651",
"b. c #7B724F",
"n. c #5C6361",
"m. c #506C67",
"M. c #89663A",
"N. c #8A6743",
"B. c #966E43",
"V. c #9B7745",
"C. c #837A52",
"Z. c #937A59",
"A. c #807740",
"S. c #A37B52",
"D. c #82756E",
"F. c #5B8317",
"G. c #62891B",
"H. c #5D8026",
"J. c #64812E",
"K. c #668236",
"L. c #728837",
"P. c #6B8541",
"I. c #708657",
"U. c #988657",
"Y. c #938D55",
"T. c #A68859",
"R. c #BB9857",
"E. c #949269",
"W. c #A89E78",
"Q. c #A18660",
"!. c #B7A368",
"~. c #B5AC75",
"^. c #8DA16A",
"/. c #C89655",
"(. c #D49958",
"). c #DBA456",
"_. c #C7AB6C",
"`. c #DEAB68",
"'. c #C6AC75",
"]. c #D4B774",
"[. c #E5A762",
"{. c #EDB96B",
"}. c #F4BA73",
"|. c #E5BA76",
" X c #D7C27C",
".X c #F5C475",
"XX c #F5C371",
"oX c #19798B",
"OX c #1A7A97",
"+X c #1B6681",
"@X c #127BA9",
"#X c #0E76BF",
"$X c #0E7DAE",
"%X c #097BCA",
"&X c #0777D2",
"*X c #1E838F",
"=X c #288D8E",
"-X c #1583B6",
";X c #1183B6",
":X c #1FB4B5",
">X c #27ABBB",
",X c #0C86C9",
"<X c #1589C5",
"1X c #0788D6",
"2X c #0897D7",
"3X c #219BC1",
"4X c #14A8D5",
"5X c #10ADD8",
"6X c #05A7E5",
"7X c #0AB9E8",
"8X c #15C9CD",
"9X c #09C7E9",
"0X c #11CAEA",
"qX c #09D5EF",
"wX c #08D9F1",
"eX c #11DAF1",
"rX c #12D2EC",
"tX c #0FE1F1",
"yX c #9D9E8A",
"uX c #AEAE8E",
"iX c #ACB389",
"pX c #C2AD85",
"aX c #CAB68B",
"sX c #CEB791",
"dX c #E4BE8A",
"fX c #D6C399",
"gX c #D8D09F",
"hX c #EDCF9A",
"jX c #C2CCB9",
"kX c #E9D4A5",
"lX c #E1CFA1",
"zX c #CEDAC5",
/* pixels */
"W E G c K G K T T ] L K E K Y ^ J G Q Z Z A Z Z A Z Y Y a G _ H G A A E ' W / G P U J s Z G L H P G ",
"c K K L K K E K R Q ` ^ I K E a E E A Y E _ K / K ( R Y / L R K ' E _ E E H K G G G G J Z G K I I H ",
"Y H G Z K K ! ^ L L / R I R E / Y R E E E E / T K / E / Q R c W ` ' ( / K H c Y H J G K J K G P K G ",
"_ K / A c E ' { E F.c s ! K W E c Y ' Y Y _ Z T / H ! Y K / / G / ( H E E A L E G s J K J K P H K K ",
"E c K Q Y ^ { K / _ K ) A Y a E ) ( T f Y Y A p p W E Y W E Q Y G ` E / G Y H / J J K H J J G G c K ",
"Y H G E ! W K G G R / / K ' Y E ] R d % a E ' * w j E _ _ E / / H _ / c P L c / K P L K J K G P K K ",
"A T Y E R E / L Y / / E Y R : A Y E > M g ( Y 4 d.9 d Q A Z ( / E E / G ( Z L E K G L J G J Z J K J ",
"H ^ _ Q E H Z E / K E E Y A - : l A - a.M h : 0 a.o.: A g * s ( / E E / Y Y L A U L U J Z Z H Z K K ",
"K T / G G G G E K G ( / Y d 9 d.: : 5 d...* # r ..g.w k - 9 g ~ E E ' R Y R _ H I T L K K K K L G J ",
"z a / K K / / E / / L G ' f q d...X 6 s...+ 3 r ..h...* - M > A Y l / E ( E K Y L I K K Z G J J c P ",
"Z L J J G / T Z G Y ( a l * q d.d.3 q  . .O 6 r y a...+ - ..M h k % f z R A E L Y s J H G G L K K K ",
"Y J J G H K J E K P ) , . + 0 ..d.q 6 t M 5 6 0 t  .y + 3 N N : : M : Y c ` E L G Y L K K K K H Z J ",
"A P ` / / L K E R ` J $ w = 6 y  .5 7 0 t 6 6 6 e y 0 O 6 t M + q d.: A / L K _ E K G G Z J G s G K ",
"A Y L c H / _ E R E K & y 5 3 0 t 7 3 6 6 e 6 7 6 0 6 7 0 e r 6  ...9 h Q E Y E A Z J K K G J J G L ",
"G K / H / J c E G z W O 7 3 3 7 6 = = 3 3 3 3 3 7 7 e e e 0 6 r t ..- C R E E R K U H H G L H L c G ",
"G K L G K K Y / E G.E . & o # O O < < < < < < # O O O < O O O O 4 u 4 *.( / s Y c G / G L J L J s J ",
"Y L E c / E Y Y E [ a + < X X 2 1 1 9.9.q.q.r.t.+XoXoXOX*XOX*X*X=Xp.4 Y T ] z E E H H H H G K H c L ",
"A H G H _ K K ( R ' x y.OX@X$X;X;X,X,X%X1X1X2X5X7X9X0X0XqXeXeXtXtX8Xw.Q ! ) E R / ( H R H K L H c / ",
"a G / G H P T R ( 3.b 8X2X,X,X,X,X1X1X%X1X1X2X6X7X7XqXqXqXwXwXtXtX8Xw.%.3.c ] / G / ] / K H G J K ) ",
"a Z Y c E / Y Q ] ,.b 8X<X#X#X,X1X1X1X&X&X&X2X6X6X7X7X9X9XqXwXwXeX:XV :.3.R T / E ( E / I G G J G G ",
"s H ` ) / / Y T Q >.m :X3X,X,X<X,X<X$X%X&X&X&X1X2X2X4X4X4X5X0X9X8X=Xm E =.=.' E T E ` / H L J H G G ",
"A L P L K K T T ( 3.m =X>X-X-X$X@Xi.n.m.+Xr.t.i.i.i.i.i.p.p.u.p.m. .W ,.2.] R ] ` / ` R G G K J ) L ",
"A Y c R L H / Q ' [ x u.p.q.e.h...k.V.S.Z.N.j.Z.sXfXfXsXpXZ.M.M.M.+.c.K.[ ] ( H.F.) ` G P Z J J L L ",
"Y K L R W _ E [ _ ,.3.g V./././.B.$.$.#.M.B.S.S.V.T.kX~.k.B.M.#...*.K.3.3.2.( ( Q c G Y I L L G L c ",
"R L K G L Y _ L ~ 6.6.O.+.T.).(.`._.uXyXD.k.j.$.k.U.kXZ.k.j.o.v.o.1.6.J.6.~ F.( H E E K G K Y a c c ",
"H _ L E R G T Q ~ ~ F T.!.T.(.).{.`.uXjXzXjXn.0.yXfXhXaXuXiX^.v.m 5.K.5.:.( >.R L E K J J P R c K Y ",
"c _ J K L G H Q ' =.;._._._._.[.}.}.|.'.aXsXsXuXaXhXhXlXiXW.W.b.} L.P.K.3.H.W s E E J T L J H J P E ",
"_ Z Z Y Z W E Y _ 6.D T.'.!.].{.}.XX}.}.}.}.}.}.dXQ.Q.fXlXkXkXE.<.P.J.K.<._ _ ' K E E J K J G H L K ",
"l a c c E I E _ ,.' A ;.~. XV.).{.XXXX.X.X|.].S.8 0.i X.pXgXgXx.-.L.5.1.( / E T K ) E J K G J R c J ",
"E K K G G K G W T I E ;.8.8.D 8.].XX|._.T.$.i 8 t y s.h.h.j.x.} -.K.5.2.W W ' E R K H H H E K L J ) ",
"/ s E H Z / / G E ( G Q L.[ ' =.M.U.@.> # # 3 6 e t y h.g.g.a.w c.7.&.j z W / _ K E E G G G L L c G ",
"G G H c G K K E / _ A E _ ,.3.3.%.> ; 6 < O # 3 7 r t a.a. .w 7.K.*.n > W Q R H ^ G L J H J J K K L ",
"H Z L K Z H c Y G G Y W / :.:.=.=.1.%.> ; o + O O 7 6 y M n 5.7.| o.o.Y E %.Y E Y c L H L L L L K P ",
"G a K K J K H H K / R E _ E W =.Q 6.K.2.n - o o O 5 3 l.^.c.| M g.x.| ~ :.R Y ] G K R J H G P K J J ",
"a Z s s G K L / G J L P P Q T T ~ =.3.J.> 0 = q q 6  .X.^.c.n l.v.4.:.] ' R / E Y K H J L G c H K ) ",
"E s J G G J J R c F.G Y Y A / / ~ ^ ' S n 6 5 = 3 3 y y I.I.g.v.c.| <.Q U ( ( H Y / ` H K s H L c L ",
"Y J K G G ) J L G Z G L T s ` Y Z E Y k N 3 4 u = 3 4 y o.b.I.x.o.3.( ' ! E G _ G J R K G H K K R H ",
"E J ` J G G z H H G _ J H / J Y E K W i } > 9 6 q w M M k.T.C.D 3.>.' / E ` H P L L F.K H K J L Y L ",
"_ U H H H c G L J J E L H ` c J E H W R.~.!.l.e.e.8.z.z.C.A.} 2.' ` Q ( H ( R c G K K K H G P K Y ( ",
"Y H P H ) P K H K K L s / E z / K ^ D /.!.R.j.w.w.e.f.w.> g J.,.Q ] _ / E Y ` ( c c U K H K Z K R E ",
"T U L J G P J H K J s L K c K G J K Z F F , .   @   f > x ' ' [ Q R T / Y / c K ` K / P G A _ ( ` ` ",
"H K J c J G K J K J Z s K G a K L W L ' D p & X , # d &.,.( / [ Q ( Q c / / G ) U J L H L Y R H ` L ",
"G K L K H K H P K J L J / G A T E ' 2.H.W , @ X % X $ A :.1.1.:.&.3.( E / Y G R J c H R _ ` ` R L G ",
"K H K J L G J J G J K K _ H R W ( :.J.2.%.$   @ 9 : 5 j x 4.7.2.3.:.( [ ( T ` R H K E / H / E a G c ",
"E Z K K J c G H J K P J ) L R ] Q :.2.1.<.| g h h : j S *.5.6.:.,.:.' Q E R / c L K H H K / H c H G ",
"E Z J K K Z G G G J L P H E A Q [ >.:.3.:.<.=.5.4.1.-.1.<.<.2.>.&.] E Q ` L Y c G / / R E G G H P K ",
"G H G Z G J Z G J K L K K / R W E E W / ' W Q ( &.3.:.Q ( [ ' ` E K H E G P K E / _ W R K c G K K K ",
"/ G G G G G J I J H G c ( ( E E / K L G / ` Y K E R ` K R / L G / K c R J H E E { ( Y J K J J R K c ",
"R ` J G K K ) K G G Z K E E / A a G I P K H ) R L G c / L H K K G H J L a Y s K E E / K L L I L c I ",
"s K _ ) P K H P K L P H / / c R J K L H P E K K L K z K c J P K ) L c J E K / ' I L J G J J K J L / "
};
