/* XPM */
static char *_6b22be57e5a41b6c5bac78685d95abaGmoAVBefELRJ00RA[] = {
/* columns rows colors chars-per-pixel */
"50 50 193 2 ",
"   c #171616",
".  c #191616",
"X  c #161A17",
"o  c #1B1817",
"O  c #161719",
"+  c #191718",
"@  c #161A1A",
"#  c #1B1B1B",
"$  c #211E1D",
"%  c #201D17",
"&  c #1A231B",
"*  c #1D2A1C",
"=  c #172017",
"-  c #1F301B",
";  c #24211D",
":  c #2C231E",
">  c #212E19",
",  c #273C17",
"<  c #23331B",
"1  c #263B1B",
"2  c #283D1B",
"3  c #283F17",
"4  c #1C1E20",
"5  c #211F20",
"6  c #1F2220",
"7  c #1F3221",
"8  c #242323",
"9  c #292525",
"0  c #242A23",
"q  c #2B2927",
"w  c #292728",
"e  c #2C2B2B",
"r  c #272829",
"t  c #322623",
"y  c #332C25",
"u  c #312E2D",
"i  c #392F29",
"p  c #3B2B25",
"a  c #31312F",
"s  c #3B342D",
"d  c #322F30",
"f  c #2F3030",
"g  c #343433",
"h  c #393635",
"j  c #3B3A35",
"k  c #3A3738",
"l  c #373838",
"z  c #3B3B3A",
"x  c #373836",
"c  c #44322B",
"v  c #48382D",
"b  c #4C3733",
"n  c #453B34",
"m  c #4C3A31",
"M  c #413E3C",
"N  c #443731",
"B  c #583E35",
"V  c #503731",
"C  c #3B550C",
"Z  c #3D5C0C",
"A  c #2D4416",
"S  c #2D431A",
"D  c #2F4815",
"F  c #344D15",
"G  c #304718",
"H  c #334C1A",
"J  c #345215",
"K  c #3A5514",
"L  c #3C5B12",
"P  c #36511A",
"I  c #39551B",
"U  c #3B591B",
"Y  c #3E640A",
"T  c #3E6311",
"R  c #2E4820",
"E  c #3A5720",
"W  c #415E0D",
"Q  c #425D12",
"!  c #43640D",
"~  c #456A0C",
"^  c #496C0E",
"/  c #49670D",
"(  c #47700B",
")  c #4C720D",
"_  c #4F780D",
"`  c #50750E",
"'  c #527A0E",
"]  c #446411",
"[  c #496613",
"{  c #466A11",
"}  c #4A6C12",
"|  c #476919",
" . c #4C6C19",
".. c #426319",
"X. c #506E19",
"o. c #4D7212",
"O. c #4D721B",
"+. c #4F7910",
"@. c #517413",
"#. c #547A13",
"$. c #517219",
"%. c #597D17",
"&. c #48423D",
"*. c #52463E",
"=. c #3F4040",
"-. c #444444",
";. c #484847",
":. c #484748",
">. c #4D4D4C",
",. c #494743",
"<. c #5A4C41",
"1. c #514F4D",
"2. c #574A45",
"3. c #4F504E",
"4. c #50504F",
"5. c #4F4F50",
"6. c #504F50",
"7. c #505050",
"8. c #5B5A59",
"9. c #614F45",
"0. c #625346",
"q. c #6C5B4D",
"w. c #67564A",
"e. c #705D4D",
"r. c #6C5D51",
"t. c #736254",
"y. c #796954",
"u. c #7B685B",
"i. c #766658",
"p. c #646363",
"a. c #686665",
"s. c #6D6C6B",
"d. c #726F70",
"f. c #767575",
"g. c #787575",
"h. c #7D7B7A",
"j. c #806E5C",
"k. c #81725F",
"l. c #8B7564",
"z. c #8A7966",
"x. c #917C6A",
"c. c #937E70",
"v. c #598312",
"b. c #9D8368",
"n. c #A58A6F",
"m. c #A08770",
"M. c #A48C79",
"N. c #AA9076",
"B. c #B4997F",
"V. c #B8987E",
"C. c #848481",
"Z. c #898A89",
"A. c #91908E",
"S. c #929392",
"D. c #9C9996",
"F. c #B59A80",
"G. c #BC9F83",
"H. c #A6A5A5",
"J. c #ABA9A7",
"K. c #ADAAA8",
"L. c #B0ADAA",
"P. c #B4B3B1",
"I. c #BBB8B6",
"U. c #BEBDB9",
"Y. c #C9AA8A",
"T. c #D1AF8F",
"R. c #D5B492",
"E. c #DAB695",
"W. c #DAB698",
"Q. c #E3BD9A",
"!. c #C0BEBD",
"~. c #C3C1BF",
"^. c #E9C6A0",
"/. c #EFCBA4",
"(. c #F4CEA6",
"). c #F6D1A7",
"_. c #F9D1A6",
"`. c #F6D1A8",
"'. c #F9D1A8",
"]. c #C5C4C2",
"[. c #CAC9C6",
"{. c #CACAC8",
"}. c #CAC7C4",
"|. c #D3D2CF",
" X c #D7D6D2",
".X c #DBD9D6",
"XX c #DFDDDA",
"oX c #E2DFDD",
"OX c #E5E3DF",
"+X c #EFEDEA",
"@X c #E9E7E4",
"#X c #F1EFEC",
"$X c #FBF8F6",
/* pixels */
"| } ! W ) ! ^ ^ | #.^ ~ ^ o.! ^ ! ! [ W Z Z Z C C Y ! ] C W ) ~ ! W Q [ $.} } ~ ( ' ~ Z C ^ ) ! ^ ^ ",
"Z ^ ^ ) / { } } /  .#.} ^ ^ [ C / ~ C J D S > > 7 > < S K ] ] / $.} X.} } / ^ ! ! ! ! ~ W W ^ ` ' ! ",
"] ^ ! W ~ ^ Q @.+.( ( ! ` ! ~ { A > = @ # 6 8 r w r 8 $ @ @ = 1 | @.X.} ^ / Y / ! ~ W ) ^ ^ ! ( ^ ! ",
"@.^ o.Q ! } X.%.} v.Y Z W ] A & @ 8 z -.;.-.3.7.6.6.>.>.,.k e # @ < K ) ! Q ) [ ! Z ~ ^ ^ ^ ( / { ^ ",
"} Y ^ } ] X.#.^ ) o.^ ) P & 4 5 z >.7.7.>.>.7.7.7.7.7.7.>.-.>.-.0 X & F ! ] ~ ) ~ ~ ^ ! ~ ~ ! ! ! ~ ",
"[ / ! X.] | ^ ! ! { ^ L @ 4 e :.3.3.7.7.7.7.7.7.7.7.7.7.7.7.3.3.>.z 8 O - ~ ! @.^ ( ` ^ ^ ^ ! ( ( ~ ",
"Q | ! [ { } ^ ( ] ~ P @ & k R 6.7.7.7.7.7.7.7.7.7.7.7.7.3.7.7.7.7.>.z e O * { { ~ ! ( ~ W ~ W ~ ) ! ",
"] o.$.} } / W ^ ^ L & & k z >.7.7.7.7.7.7.7.7.7.7.7.7.7.7.7.7.7.4.3.-.k e @ S L _ ) _ ~ ! W ! W ^ ^ ",
"/ ] } ! Z ~ ! ~ ! * # x z :.7.7.7.7.7.3.7.7.5.5.7.7.7.7.7.7.7.7.5.7.>.R =.e @ A ) ^ ^ ( ^ ~ ^ ^ ! ~ ",
"Q W o./ ^ ^ ^ } A @ g z z 3.7.7.7.7.7.7.7.7.3.>.>.7.7.7.7.7.7.7.7.7.7.:.z z 4 O ] ) ^ ^ ! ! ~ ^ Y ( ",
"Z ) ^ ! / o.} F & 8 g l -.7.7.7.7.7.7.7.5.7.7.;.>.7.7.7.7.7.7.7.7.7.7.7.=.k d 4 , Y ~ ! ! ! ) } ^ { ",
"] ^ ^ Y ~ ~ Y 1 X a x z >.7.7.7.7.5.7.7.7.7.7.=.-.7.7.7.7.7.3.7.7.7.7.7.:.l z r & Z } ^ ^ ^ ^ / W ~ ",
"] ^ ' o.o.) ! @ ; g x z 7.7.7.7.7.7.7.7.7.7.7.-.:.7.7.7.7.7.7.7.7.7.7.7.>.z l g O P Y ! W ~ ! W / ^ ",
"Q ! ( Y / o.] X e g l =.7.7.7.7.7.7.7.7.7.7.7.7.7.7.7.7.7.7.7.7.7.7.7.7.7.z z x # 2 ! ( ^ ! ~ ~ ] ) ",
"] ! ` ! ^ ~ 3 o g z z -.7.7.7.7.7.7.5.7.7.5.-.z f e r r r f f z :.>.7.7.7.=.z z 8 < / ^ ! ) { ) Y ! ",
"! ^ ) ! ^ ~ - & j j z ;.7.7.7.7.7.7.7.7.7.5.7.>.:.>.-.-.z g r 6 # # e -.3.-.z x e = ] ! ^ ! ` / Z ~ ",
"Q ^ { Y ) } & r z z z :.5.5.5.:.R l f r 8 8 4 8 6 8 e f l -.5.5.>.=.g r 8 f z z e @ K ~ / Y ^ ^ ! ) ",
"Q ~ / / +.^ @ e z z z -.x r # O 4 5 5 r e g g g g g e r 8 & # 8 l :.5.7.>.l r f g @ H ] ~ ~ ) { Y o.",
"Q ! o.Z ! ! @ e x f 8 4 8 e x M :.>.5.5.1.6.7.7.5.7.7.5.>.:.:.z g f l >.5.:.z l g @ P } ^ / ! ^ ! +.",
"W W Y Y { } @ r r r g -.>.5.6.6.5.:.:.:.>.7.7.6.5.5.5.>.-.-.-.>.5.5.5.>.5.-.z z h X A $.o.! ! ~ ! ! ",
"Z / o.) o.{ @ e k z z :.7.6.1.g 4 + + + # :.6.6.6.6.6.g + + + + 9 M 7.7.7.:.z x u @ H o.~ ^ ~ / { ~ ",
"Q ) ) ) ^ Y @ e j z z :.6.-.w 5 5 5 # +   $ $ # # # 4 # + # $ 5 5 $ g >.7.-.z h a @ D ^ ! ! ^ ~ +.) ",
"Q { Y ! ) ! X e z z x x u # o o + + + b *.w.q.q.q.r.w.9.*.9 +   . . @ 8 g l h z h X F / ^ W ! ~ ) ) ",
"] ~ ) ! ! ) & r e 5 + O ; c $ $ 6.p.k 5 l.F.F.F.F.F.V.V.<.$ :.p.h o q i # O @ r e X F W ) ` ) ~ ) Y ",
"{ +.^ ! ^ Y 1 + + $ # % M.2.M }. X{.|.m.: N.R.R.E.E.R.y.M I.~.}.oXD.y c.t.+ 5 @ @ @ T ^ ! ^ Q Z Y Y ",
"! @.) / ~ Y G @ # h e . c.5 !.H.a.p.h.OXg.e._._._._.^.c P.h.p.a.A.#Xh.0.u.# k u @ < ~ / ~ ( { ! ~ Q ",
"Q ` ~ ) ^ W ! 2 @ h u . i.1.oXg.p.f.d.P.!.v (._._._.R.h I.C.8.f.f.{.U.N r.$ k e @ ] ~ ] ) ~ ~ ! ) } ",
"@.W W W W ! / K & # u # M ,.OXH.S.a.[.!.I.m _._._._.R.s ~.].Z.A.P..XI.i s 8 u # < [ ~ ~ ^ ! ! { ^ ^ ",
"C C ! Z / ` ~ ) 2   + . y ; L.~.H.!.P.|.8.j._._._._./.v J.J.J.I.!.oXa.u o @ . . J _ ^ ~ ^ Y ! ! ! ! ",
"[ ^ ~ ! ! ^ ! ! L @ + + . # K.$X+X.X{.s.t W._._._._._.n.s U.+XoXoX#X,.% . + . > Y ~ ^ ~ / ^ ^ #.~ _ ",
"o.W } ^ W ) ^ W / 1 o a 8 . a.h.-.5.f f G./.(.).(.(.(.^.k.; z 3.8.S.u & q 9 @ K ^ ^ ! ! ! ! ) o.Y ~ ",
"Y ! ~ Y W ^ ^ ~ ^ { & # h q o $ 8 # @ 4 9 i N m n n h i : . # & 9 8 e k g . , ! ^ ! ) ! ! ~ ~ ^ ^ ) ",
"] W ` ~ W ! Y ! / Y A @ ; z d 8 u g k d d t 5 5 w 5 e d d k z -.=.z z g = & L { Y Z ) ! ^ ) ) ` ( ) ",
"! W ^ ~ ~ ^ ! / ~ } ~ P @ # e h d 8 $ 5 5 d g k M M M M M k k g k k r # & K Y o.Y ^ ~ ! ^ ! ^ ^ ~ ! ",
"Z W W Z ! ^ ) ) ! ] { - O # + + 5 d k g d 5 5 5 4 + + 5 5 w d d 5 #   O 7 L ^ o.] ^ ! ~ ) ! Y ! } +.",
"| W ! ! ! ~ ~ { T 1 & @ 5 -.e 9 #   # 5 5 d d d e d d 5 5 5 + + + 5 z r O * S Q Y ^ ' ^ ^ W ~ ) Y ) ",
"] ^ ~ ! ~ ) ~ ] * y e.,.@ M h h 5 + q 8 +   + % + + . . . $ 5 + d g M 8 8 *.; > Y ! ^ ~ W ! / ^ { ~ ",
"} ~ #.^ ! ] Z H # B.Y.N.$ 8 h r + 4 >.M g   + $ V B V t + $ t . 5 k w # t.G.n.$ I ) v.~ ~ ^ ~ ` ] ) ",
"X.) ^ { ~ Y ! P % Y.Q.V.u.+ . @ + r :.6.6.d 5 $ + c B V b t . . O # + <.V.W.R.t S ^ ^ ^ / ! ( ^ { $.",
"/ / ( / @.) ~ K & l._.W.j.+ * S # 5 d k -.&.5 -.-.+ + t p c c p + # # z.T._.b.# J Y ' ^ ~ } W ^ T } ",
"} _ _ Y ! ^ ! ] 2 $ y.y.$ * U * # e # @ + + + + +   + . + t b m @ 1 * y x.m.: * o.~ ) ^ ! W $.O.%.#.",
"] } ~ Z ) ~ ^ { { 2 & & 2 J * # e C.C.8.-.z :.7.p.d.f.g.g.k o $ @ S L - = @ - ..+.~ ) / ) ] } ~ o.) ",
"] ^ ) ^ ] ) / ~ ^ { ) Y } 1 8 u @ # 8 u h g w 5 5 w d k k q + + @ I ( T ] L T ^ ~ ~ ! ] @.%.@.~ o./ ",
"^ ^ ) ~ ^ ! ^ ~ ! / ^ { o.& n i # h g e 9 8 5 5 # $ 5 5 w e g q @ L ! ( } / _ ! ! ^ } o./ ) | W ! Y ",
"} W ^ { ~ Y ! / ! ) ( ~  .@ j 9 . # 8 e f g g g k x g e q 9 # + @ U ! / ~ ! o.~ ^ ^ ~ / ~ @.[ ! ~ ] ",
"{ W ~ ^ ^ Y ! ! ! ! ) ) { 7 # # . . o 9 8 # @ & & # + 5 9 8 # # 1 } ] ^ _ ) ! Z ! @.} [ } ! / ! ( ^ ",
"{ ~ ! W / ! W ! ~ ^ ) ~ ^ | H G & . . $ 5 # & T L U @ 5 8 $ . O S ~ ~ ~ ~ ^ ^ } @.#.} { ^ ! Y ~ ^ ^ ",
"} ! ! ! ! Y / ) ^ ^ ! Y $.$.} | < o ; $ # @ A ~ } ! < + # $ ; O F ~ Y { ! ~ } } %.X...! ~ ~ ~ { ^ Y ",
"{ #.~ ~ ^ ^ ` ~ ! ! W } | o.o...< # ; ; O 6  . .O.T J & @ 8 ; O P ~ ] o.Z ] L ^ } o.^ ( @.) ` ) Y ` ",
"T ^ @.` ^ ~ / ) ^ ) ) ! } o.T | E > X . & E { T +.O.T I @ O @ < O.o.T ~ } ~ $.#.@.^ ^ W ~ Y ^ ^ ) o."
};
