/* XPM */
static char *playerright1675863149[] = {
/* columns rows colors chars-per-pixel */
"50 50 182 2 ",
"   c #171616",
".  c #191616",
"X  c #1B1915",
"o  c #1A1718",
"O  c #161A1D",
"+  c #1C1B1B",
"@  c #211E1D",
"#  c #261D17",
"$  c #1E2114",
"%  c #1F211A",
"&  c #2C3E0F",
"*  c #232617",
"=  c #252C15",
"-  c #23231C",
";  c #242B19",
":  c #2B231D",
">  c #263013",
",  c #2A3415",
"<  c #2E3B13",
"1  c #29301C",
"2  c #313F15",
"3  c #171C20",
"4  c #1D1E20",
"5  c #221F20",
"6  c #242323",
"7  c #292524",
"8  c #262823",
"9  c #2C2925",
"0  c #2A2728",
"q  c #2C2B2B",
"w  c #302720",
"e  c #322F2C",
"r  c #392D28",
"t  c #362B27",
"y  c #2F302E",
"u  c #31312E",
"i  c #3D332A",
"p  c #363C29",
"a  c #343431",
"s  c #3A3633",
"d  c #363834",
"f  c #3A3C36",
"g  c #3C3E39",
"h  c #473D33",
"j  c #30450E",
"k  c #354D0E",
"l  c #36500F",
"z  c #3B550D",
"x  c #3D5C0C",
"c  c #324213",
"v  c #364912",
"b  c #394C14",
"n  c #3A4C1A",
"m  c #32411A",
"M  c #3C5411",
"N  c #3E5B11",
"B  c #3E630B",
"V  c #3E6613",
"C  c #3F6A1E",
"Z  c #354027",
"A  c #3A4623",
"S  c #3A4328",
"D  c #3E4C22",
"F  c #3E413A",
"G  c #3C4134",
"H  c #3E6524",
"J  c #3E6A25",
"K  c #3C642B",
"L  c #3E6531",
"P  c #415E0D",
"I  c #405517",
"U  c #425D12",
"Y  c #42591B",
"T  c #485E1D",
"R  c #43640D",
"E  c #49670D",
"W  c #456A0C",
"Q  c #496C0E",
"!  c #47700B",
"~  c #4C720D",
"^  c #4F780D",
"/  c #50750E",
"(  c #527A0E",
")  c #446412",
"_  c #496615",
"`  c #456A12",
"'  c #4A6C12",
"]  c #42641B",
"[  c #446A1C",
"{  c #4B6C1A",
"}  c #506F1B",
"|  c #4D7212",
" . c #4F7910",
".. c #477018",
"X. c #4C741B",
"o. c #517413",
"O. c #547A13",
"+. c #52721A",
"@. c #577B1A",
"#. c #5A7E16",
"$. c #42443D",
"%. c #4D4239",
"&. c #45493D",
"*. c #416525",
"=. c #426C24",
"-. c #446C2A",
";. c #44692B",
":. c #516E21",
">. c #457025",
",. c #4A7225",
"<. c #46712A",
"1. c #49742B",
"2. c #577720",
"3. c #416534",
"4. c #446C34",
"5. c #46693A",
"6. c #477035",
"7. c #4C7432",
"8. c #4B723A",
"9. c #657E38",
"0. c #444741",
"q. c #494640",
"w. c #474A41",
"e. c #4A4D44",
"r. c #5B4E42",
"t. c #4E5346",
"y. c #4F5249",
"u. c #505546",
"i. c #505449",
"p. c #53594D",
"a. c #585D4E",
"s. c #535D44",
"d. c #5B5D54",
"f. c #604D43",
"g. c #645243",
"h. c #6F5E4D",
"j. c #675A50",
"k. c #6D5D50",
"l. c #416145",
"z. c #5C6254",
"x. c #596745",
"c. c #72604E",
"v. c #626657",
"b. c #606759",
"n. c #616B5B",
"m. c #756251",
"M. c #786656",
"N. c #786859",
"B. c #6D7363",
"V. c #707163",
"C. c #757E64",
"Z. c #846F5B",
"A. c #8C7662",
"S. c #598213",
"D. c #75806A",
"F. c #98816E",
"G. c #808973",
"H. c #9E8774",
"J. c #869077",
"K. c #8C987C",
"L. c #90977F",
"P. c #A78C74",
"I. c #AC977B",
"U. c #B2997F",
"Y. c #B49780",
"T. c #B39982",
"R. c #9AA186",
"E. c #AAB58F",
"W. c #AEBA96",
"Q. c #C6A786",
"!. c #C7A886",
"~. c #C9A987",
"^. c #CBAB8B",
"/. c #C7AA8D",
"(. c #DAB793",
"). c #ECC69D",
"_. c #F2CCA7",
"`. c #F7CFA9",
"'. c #FDCFA8",
"]. c #FDD1A7",
"[. c #F6D0A9",
"{. c #FCD1A9",
/* pixels */
"_ ' R R Q R Q E _ @.' Q Q ' ) ' R ) ` U x x P z M V ) ) z x | W ) U U ' +._ | R ~ ( W x K -.1.Q ! R ",
"V Q Q ~ Q ` ' ' ` ' O.Q / W ` z ` ' N B Q | ) | E ' _ V ~ | ` ` o.{ | ' ' _ Q R R B R W K K -.~ O.Q ",
") Q P P Q W ) | ~ ~ W W ~ W ' | R R Q R E ` Q R Q W ' Q ] W x ` O.+.{ | Q R B R W E R Q <.<.J Q Q B ",
"o.E o.P R ' } #.Q S.B x U E R R B B ` U U _ Y T { ] U P E ~ W ) Q { ` ' R ) ~ ' R x W W -.<.<.E ` Q ",
"' B Q } ) { #.Q | | Q ~ P P z ` { n Z 6 O O + 6 4 + O * < M _ B W ( ` Q R R Q | R ! Q R >.-.-.R B W ",
"_ E P ' ) _ E B Q _ Q ~ Q | I 1 4 + 6 y w.t.u.t.u.a.a.&.0 + ; M R | ` B Q W B ( Q Q ~ Q >.-.J W ~ Q ",
"U _ R ' ` ' ~ ~ ` +.Q ' _ S 4 4 y d g w.u.u.u.t.y.u.i.z.v.i.f 3 , _ ~ P ' x ~ E Q R ! R -.-.K W ' W ",
"' ' +.' ' R P Q ' ) +.U a + a g G g G t.u.t.u.u.i.e.i.y.i.y.p.i.q * M ' ` R Q P ( ! ( ! H H -.P Q Q ",
"Q _ ' R P R R ' ) ] N 8 % d g G f f &.t.t.t.t.t.u.i.t.y.y.y.y.y.y.5 7 ) ) R ( R ^ Q Q ! <.<.<.Q B Q ",
"M P ~ E Q X.+.+.) ` f + u d f f G G &.s.t.t.t.t.i.y.t.y.i.y.y.y.y.e.7 1 ] ' Q P Q ~ Q Q H J -.E B ! ",
"x ~ Q W _ 2.+.l N D + a f f f f f g e.t.t.t.t.t.e.y.y.y.i.y.y.y.e.y.g O k x Q Q P x W R *.J 1.' Q ' ",
"_ Q W B :.+.B P N 6 q f F f F g g G t.t.w.G t.p.i.u.y.t.i.y.y.y.e.y.e.0 * | W Q R R | ' -.1.<.E x R ",
"R Q O.| | ~ R ) m + d g f f f f f F u.u.t.F t.t.i.y.y.y.y.i.y.$.0.y.y.d o P W ~ E E B R K =.=.P R ! ",
"U ) ! B R ~ / ' 8 6 G G g G f g F F t.u.t.t.t.t.y.y.y.y.i.i.y.0.e.i.i.g 5 2 R Q x P W Q <.=.-.W ` ~ ",
"R Q | R ' W x R 4 6 g f f a 7 5 % 8 F u.y.t.y.u.y.t.y.y.y.y.y.y.i.y.y.F q * ) W W / W W *.1.-.~ B R ",
"R Q ~ B l.7.R R O ; g y 4 o 5 0 d F u.s.t.t.t.w.0.F g d d d d g F 0.e.F y * z x B R ~ R ,.=.1.R x W ",
") ~ Q R 9.s.* * O 6 6 X 0 s f f f 0.w.f q 6 +   + 4 6 q q y a a a a a y q 5 M E ` E E R =.] >.Q B ~ ",
"U E R R ~ Q ) p O % 6 u f f f f 0 6 + O 7 a g 0.w.t.y.t.t.y.t.y.i.y.y.$.u @ N Q W ~ E E { >.,.Q B ' ",
"U P ~ x :.W V A % u d f f y 5 + 6 u t.t.u.u.u.i.y.y.i.e.g a d 0.e.i.i.g a @ _ E B | @.' >.=.H Q Q | ",
"x P R B $.x.A p - a d a 6 6 a f F &.t.t.i.u.e.w.w.$.$.g d q +   5 d $.a q @ U ' ` | ' | ,.=.J Q R W ",
"x W / ~ 7.< * 4 + s e q s g g g f f f e 7 5 + o o @ : 7 0 @ + 7 q @ @ +   1 ' ' ) Q ( o.[ ..=.E R W ",
"U ~ Q ~ Q W R v O d f f g s 0 5 .   o 5 + q a + k.U.U.I.r a 0 @ h P.Y.j.* _ B | O.' | Q [ *...'  .~ ",
"U ` B W ~ R Q ) + e d e @ . o 5 8 5 q f 7 a g o m.~.^.f.B.R.p.e.e.h ^.r., o._ @.S.| ^ R X.] ] B | ~ ",
"` W | R R Q ` Q $ + o + @ o 5 q q 6 q w.a g y.5 A.].`.@ E.z.C.d d.t _.h 2 } ` { ) B R R X.,.X.W ~ B ",
"` ~ Q R ~ P Q ! < + 5 6 a 6 o @ y a a t.$.F t.6 Z.'._.X E.d.n.+ d.r _.w n _ S.' R Q ' Q V ..] z B B ",
"R o.~ E W B R W R n + d 6 q u 5   6 6 t.t.e.t.0 c.'.'.h R.J.t.e.V.k.[.: v ` | R ~ ~ Q R ` { =.B Q U ",
") / W Q Q P R R ' _ ; - d 5 7 d q 5 o 6 a &.w.q r.'.].P.w.L.G.K.$./.].i 2 O.P x R E W ` X.[ [ Q ! ' ",
"o.P P P P E Q P ' o.M + 0 f 0 @ 0 f d d 6 + + + 7 m.Z.A.%.+ . . r N.g.@ + | ~ ' Q E W W { [ ] ` ~ Q ",
"z z W P W / Q Q ' o.x x O 6 g d 6 o 6 w.t.t.w.f u 0 6 4 + + - + 6 8 q 5 = W R R W ( Q W ' V V ` ) W ",
"E Q W R P W R R R ~ R E l % + q f d q 4 6 e f $.e.e.t.y.i.i.y.p.i.i.0.o j P / Q B W W R ` { ..O.W ^ ",
"' R Q E P ~ Q R R ~ R P o.R , O - y d d u a d d f g w.y.i.i.y.i.i.q O = U R ! Q Q Q W R ) ` X.~ B R ",
"B R W B P Q ! E Q ~ P W W R Q M > O + 6 7 5 5 0 a g 0.0.e.e.g q - . < ) R R R E Q P ^ R [ V ` E W ^ ",
"_ P / W P R B R W R R R W W R R U ) v o o . o 7 o       o + $ = v R Q W R U P E x B ~ R ~ | | o.Q ~ ",
"P P E W W Q R R W ! R R W E P P ) R P   @ @ 6 e.e o 7 0 + , x x ' ) Q R ` B R ~ R Q W R ` R ~ Q W W ",
"z P P x W E ~ | W R / ! W R P B U R , + @ o q w.e.@ 0 f q O x W W ~ Q W ' B Q Q B Q R R | R B V Q  .",
"' R R R R Q R W R ( P R R z ~ | ` P X + - + e $.i.a + w.w.+ c B W ~ B R ( W Q E R W S.W ' U ` ~ B ~ ",
"` W Q W R ~ W ! P P R Q R P / P P < o - g + q F y.e.+ h y.7 c Q Q ~ W ' P E P ~ R W E W B R ' Q ` Q ",
"' W O.Q W ) U E W R ~ ! Q ` W R U %   - f + q g e.f + e 6 y = Q Q ~ Q Q W ^ R ! ~ ~ S.W ` ` W / ) ~ ",
"o.o.Q E R B R ~ Q W ' Q W O.B W c   o + 8 o o + o 7 t @ + 6 X N W ~ R ` W ' B B R W Q W E R Q Q ` +.",
"` R Q R ~ ~ E ` ! Q ~ x Q ' N ' < o &.C.v.$.o M.A.T.P.. g # y c R ~ / ! R ) O.| B B ^ Q Q Q R Q R ` ",
"' ( ~ W Q W R R Q R x ~ Q B Q B ; 5 o u i.p.# /.(.).(.. d.d.e 2 B R ) ! ` | B Q ( W Q Q R P o.} @.O.",
"` | B x Q W Q Q Q Q x B Q R M M y 7 6 e e 7 X g.!.!.f.X 7 7 + ) W Q R B Q ~ B ~ ( W / R / ) ' Q O.~ ",
"P Q ~ Q ` Q R Q ! W ~ W | R x c s w o o 5 6 @ . # # . 6 q 7 . M R ' Q B Q R R W W W R ) o.O.| ` | R ",
"Q Q ~ W Q R W W R E Q E o.R R b i f 6 . + o o .     o @ X o n R Q Q W ~ ' R ~ Q R W Q o.Q | _ P R B ",
"' P Q ' Q x R Q R Q W W | Q ` ] # X , * @ 7 - + . X 7 7 7 o M x ` ..` ] W W Q W ~ Q E R Q | ` R Q B ",
"` P W Q Q B R R R Q O.X.<.7.3.5.b b b > o - 7 + X o @ @ X X v z v 3.;.-.,.X.R x R | | ` ' R R R Q Q ",
"` Q R P R Q R R W Q X.<.6.8.4.5.6.5.l k * . . . , 2 $ $ > b M N L L L L K -.' ' o.+.{ ` Q R R E Q ! ",
"` R R R ) B R ~ E Q R *.7.8.4.5.6.4.6.k l z & j I k x z l M M K 4.L K ;.J [ ' ' #.o.U W Q W W ` Q B ",
"' O.W Q ` W ( W R P R Q { ' | U x R / Q Q ` ~ ' | W x ~ ~ R ' Q ` Q R ~ N U B ' ' | Q Q o.^ O.~ B / ",
"x Q O.~ Q W R ~ Q / ~ R ' ~ B ' Q E ~ Q ! ' Q W | ! ) W B Q Q W / ~ B Q ' Q | o.o.' W R W B E W ~ | "
};
