/* XPM */
static char *_e87396b9e8c46ade6e402f0bc7acff38P05CSmWNKXxser7[] = {
/* columns rows colors chars-per-pixel */
"50 50 193 2 ",
"   c #171616",
".  c #191616",
"X  c #171917",
"o  c #1B1916",
"O  c #171719",
"+  c #191718",
"@  c #161A1A",
"#  c #1B1B1B",
"$  c #251D17",
"%  c #211D1D",
"&  c #1A2016",
"*  c #1A231D",
"=  c #1E2A1B",
"-  c #16201E",
";  c #202917",
":  c #24211E",
">  c #29231D",
",  c #222D1A",
"<  c #212216",
"1  c #23341C",
"2  c #26391A",
"3  c #293E1B",
"4  c #211F20",
"5  c #1E2121",
"6  c #1E2C24",
"7  c #1E2A29",
"8  c #242323",
"9  c #2A2525",
"0  c #272827",
"q  c #292927",
"w  c #292728",
"e  c #272828",
"r  c #2B2B2B",
"t  c #342A24",
"y  c #312E2E",
"u  c #3C2F2A",
"i  c #362823",
"p  c #2A3F23",
"a  c #2F302F",
"s  c #233C28",
"d  c #32302D",
"f  c #3B312B",
"g  c #363322",
"h  c #322F30",
"j  c #2F3130",
"k  c #263E37",
"l  c #343333",
"z  c #393635",
"x  c #3B3937",
"c  c #3B3738",
"v  c #373838",
"b  c #3B3B3A",
"n  c #363834",
"m  c #533E1D",
"M  c #473829",
"N  c #443A32",
"B  c #4B3F35",
"V  c #413E3F",
"C  c #503B35",
"Z  c #3C560D",
"A  c #3D5C0C",
"S  c #2C4414",
"D  c #2D441C",
"F  c #2D491C",
"G  c #344F15",
"H  c #30471A",
"J  c #324A1C",
"K  c #334617",
"L  c #345215",
"P  c #3A5613",
"I  c #3C5B13",
"U  c #36531A",
"Y  c #365818",
"T  c #3C5B1A",
"R  c #3E640A",
"E  c #3D6115",
"W  c #3F641B",
"Q  c #2B4020",
"!  c #2D482B",
"~  c #314C29",
"^  c #3E5F20",
"/  c #34552B",
"(  c #2C4739",
")  c #3F403E",
"_  c #36593B",
"`  c #3E6034",
"'  c #415E0D",
"]  c #415D12",
"[  c #405F18",
"{  c #664A1F",
"}  c #43640D",
"|  c #456A0C",
" . c #496C0E",
".. c #49670D",
"X. c #47700B",
"o. c #4C720D",
"O. c #50750E",
"+. c #527A0E",
"@. c #456412",
"#. c #496614",
"$. c #466911",
"%. c #4C6A15",
"&. c #4A6C12",
"*. c #41621A",
"=. c #4C6B18",
"-. c #47691B",
";. c #506E19",
":. c #4E7111",
">. c #4D7211",
",. c #4F7910",
"<. c #4E7219",
"1. c #517413",
"2. c #547A13",
"3. c #517219",
"4. c #577B18",
"5. c #5A7E16",
"6. c #414526",
"7. c #475721",
"8. c #4D4236",
"9. c #4F413B",
"0. c #53473C",
"q. c #58473E",
"w. c #406420",
"e. c #466E2B",
"r. c #42652C",
"t. c #3D3F41",
"y. c #413F40",
"u. c #434343",
"i. c #484947",
"p. c #4F4D4E",
"a. c #4C4C4C",
"s. c #46484A",
"d. c #504F4F",
"f. c #584C43",
"g. c #50504F",
"h. c #4A4D50",
"j. c #514F50",
"k. c #4F5050",
"l. c #505050",
"z. c #515050",
"x. c #515152",
"c. c #575656",
"v. c #505050",
"b. c #5D5D5D",
"n. c #5B5957",
"m. c #6C5A4C",
"M. c #62564B",
"N. c #705D4C",
"B. c #645750",
"V. c #7C6A5B",
"C. c #616060",
"Z. c #6C6D6D",
"A. c #686565",
"S. c #757777",
"D. c #8D692A",
"F. c #956F2E",
"G. c #897D5E",
"H. c #8B7761",
"J. c #917C64",
"K. c #598313",
"L. c #80814E",
"P. c #9A826C",
"I. c #9A886A",
"U. c #998475",
"Y. c #A58D75",
"T. c #AD937C",
"R. c #A99576",
"E. c #B5997D",
"W. c #888788",
"Q. c #848384",
"!. c #908F8E",
"~. c #97979A",
"^. c #989796",
"/. c #B99C81",
"(. c #B49781",
"). c #B6A080",
"_. c #C4A283",
"`. c #C6A68B",
"'. c #C9A789",
"]. c #D3B392",
"[. c #DCBB98",
"{. c #E4C29D",
"}. c #EBC59F",
"|. c #E9C6A1",
" X c #EDCAA3",
".X c #F5CFA7",
"XX c #F4CCAB",
"oX c #F6D1A7",
"OX c #F9D1A6",
"+X c #F6D0A8",
"@X c #CDCECB",
"#X c #C8C7C4",
"$X c #D3D1CE",
/* pixels */
"#.&.} ' X.}  ...&.4.X.|  .%.} ..| E &.' A [ r._ _ _ ! p s p U T I A ] =.;.%.>.} o.+.| A ' ..:.| | ..",
"I  .| o...&.%.&.@.%.2.%. .X.$.Z $.$.E T / ( 7 O O % 4 # + + + + # * 3 *.%...X.} } R } | Z }  .,.2.| ",
"@. .} } |  .@.:.o.o.X.| O.| $.<.W *.~ 6 @ 8 c a.j.a.j.a.y.z z l q 8 o - 1 I R @.| ..}  .|  .}  .| } ",
"1. .:.] R &.;.5.$.K.R A ' &.*.e._ 7 # y c.C.c.l.j.j.j.j.j.u.c c b b n 0 # @ J $.} A | | |  . ...&.| ",
"%.R X.%.@.;.2...>.>.| o.I T ` ( - r n.Z.b.k.k.k.l.l.l.l.l.p.b b b b v b l 8 @ 3 } |  .|  .| | } } | ",
"@.| } %.@.-. .} | }  .o.| e.( # u.b.n.c.k.k.k.k.l.l.l.l.l.l.u.b b v b b v v e O D | :.X.| @.R X.o. .",
"] =.} %.$.%.o.X.@.| X.$.E ! # a.c.g.l.l.k.k.a.k.l.l.l.l.l.l.p.b b b b v l l a 0 O F X...} | A |  .| ",
"@.%.3.%.&.} ' o.>.| &.#.! O u.l.k.g.l.l.k.a.u.a.l.l.l.l.l.l.k.u.b b v b b b l l 8 * *.| } ' ..'  . .",
" ...%.} ' | R  .| }  .W - d k.g.l.l.l.l.s.b a.l.l.l.l.l.l.l.l.a.b b v b b v b v v # 1 >.X.|  . .R | ",
"I ' :.|  . .X.%.| o.>.s # a.k.g.l.l.l.l.p.u.i.l.l.l.l.l.l.l.k.p.b b b b b b b b b r @ T @.} |  .R X.",
"A o.| | } :...A } ' T - r l.l.l.l.l.l.l.k.g.l.l.l.l.l.l.l.k.k.l.u.b b b b b b b b n # 1 } } o. .X.%.",
"#... .R |  .R .. .&.~ @ b l.l.l.l.l.l.l.l.l.l.l.l.l.l.l.l.k.p.a.l 8 4 8 8 w h v v b r @ @. .%...' } ",
"@.| 2.:.:.X.|  .} o.6 5 u.k.l.l.l.l.l.l.l.l.l.l.l.l.l.l.l.l.l.p.y.r r 8 4 +   # 0 l l + J | } A } X.",
"] } X.R } 1.o. .} -.5 e u.k.l.l.l.l.l.l.l.l.l.l.l.l.l.l.l.l.k.l.j.b b b c l h 9 # # 9 + 3 } | | @.:.",
"@.| o.|  .| R ..R L @ r ) p.k.l.k.k.l.l.l.p.a.s.s.u.) b b b u.s.s.V c V l h b b z l r # = :.&.o.R } ",
"}  .:.R  .| }  .| >.@ a y.k.k.l.a.u.v r 8 # # X # O @ # # O # X + # # 4 w h n b b b b r * | o...A | ",
"@. ...} o.%.} } } *.@ a b s.b r # # 8 r l n b u.s.i.a.s.a.a.s.u.u.v r w 8 # 4 8 l v b a @ R  .| @.X.",
"] | } | O. .} $.| @.# r r l v b a.a.b s.l.x.l.x.j.d.l.l.k.l.g.g.k.s.b b b b v l r r j j @ *.&.| } >.",
"] '  .' } | } } | *.@ r b a.g.l.j.p.b u.g.l.x.x.l.x.l.l.l.l.d.p.k.a.v v b b v b b b b j O I } ..| ,.",
"Z } } }  .o.} }  .X.* 9 b u.k.k.l.d.s.n r v V c l r r 8 8 # # # # # 5 4 4 0 r r l v b j # Y | | } } ",
"A } 1.o.X.o.' ' }  .1 # v V p.s.b l # O .   # % t N 4 # 0 w # w w # # 4 % # + + O + % 8 @ | | | | | ",
"] O. .,.| | } }  .| 3 O q 8 : o O # y f.M.V.P.Y.T.(.B % v c % v b 8 8 r r w % + w # # O = ]  .| >.o.",
"] $.R R o.}  .&.X. .L @ X 8 9.f o f.B.f t t V././._.N.+ y.y.9 y.u.r w a w # + w y r 9 # ] ' } | X.o.",
"@. .o.| @.o.@.X. .>.:.L = N (.N > > e t.!.~.t Y.XX+XP.# s.j.v j.j.l w h 4 + y l 4 l # 1 o.1.o.} o.R ",
"@.o. .|  .} | | ' } 1.;.J : T.`.t k.s.S.k.@X^.M +XOXE.# u.l.d.p.k.v # + + h l # l r @ T R | } Z } R ",
"} 1.o.} | R } ..} &.:.$.-.# J. Xu b.5 Z.h.^.$X> {.OX'.% V d.l.k.t.4 O 0 c h # r n # 1 } |  .$.} | @.",
"} 1.|  . .} | } :.=.2.o.@., B  X8.A.r s.Z.~.#X> |.OX].> b p.b 8 # 4 h v w # h b # * I $.,.| }  .X. .",
"1.' } ' ' } ..' %.2.' o.} F > {.P.b W.k.Z.$XS.q.OX+X].> 8 5 @ 8 b u.l 8 % h b 9 # J | | ..} } &.&. .",
"Z Z | A | O.| :.&.%.' X.| U $ [.|.0.n.!.Z.b t U.Y.N.t o # q ) p.a.l # 8 n z 0 # D o.o.| X.} | } @.| ",
".. .| } } | } } ..o.| | R J o E.].Y.9 # . o 9 % o % r b i.p.a.l # 4 a b z : O 3 E | | } } &. .1.| +.",
"&.'  ...' O.| ' | o.} ] O.2   o . O + # 8 q n b i.d.l.a.b e 5 r l v v r # @ U %... ...| } } o.X.R } ",
"R } | } '  . .|  .o.A } ..L @ y u.u.a.p.g.g.g.d.d.i.n d v u.b l n y % X . # Y |  .} o.} } | |  . .o.",
"@.' o. .' } R } | R R } ..| = # V k.j.k.k.l.g.g.g.k.p.p.y.h + + + . . M D.D.= #.R A o.} X.o.%.O. .X.",
"@.' ..|  ...} } ..X.| } ..&.P 6 # w b i.a.p.p.a.a.u.n r 9 # 4 l 9 O . $ { { , X.}  .| } ..| o. .| | ",
"Z ' A A | ..o.o.| } >.| | ..R I 3 * # # # # * # + + O # # + h a.b l $ O 8 t 2 %.} | | } o.| R } $.,.",
"&.' | } } | | | } +.} } ' Z X.X.} } @.U S F # O O 8 l n v 8 4 d.d.t.z % O # 3 ..R o.+...| ' | o.R o.",
"@.| | | } >.|  .} ' }  .| ' O.A ' | } +.| F o   + # v c b l . y.d.p.b n # O = X.| R o.| ' }  .:.$.| ",
"%.| 2.| | @.] ..| } o.X.| &.| }  .| |  .*.# q # M + l a.p.j.8 * p.g.a.r o # @ T X.o.K.| | | } o.@.>.",
"3.2. . .} R | o.| | %. .| O.R | ..} A | D O x < i i # y.j.j.u.O l a.j o f.Y.u = } | .. ...} o...@.3.",
"| }  .} o.o.| @. . .o.'  .&.A  . ...' } U # o o . M . % b p.p.r # # # m./.{.H.# I } +...|  .}  .| $.",
"&.+.o.| | | } }  .} ' o. .R | R |  .R I K g 8.  . $ i o . % 4 # . o V.'.|.OXm.* o.| :. .R } ;.3.4.2.",
"@. .| A  .|  . . .X.A R  .} A |  .}  .} 7.G.G.& # # + 9 % $ 9 M C % 8.[. XR.o F +.| O.} o.@.&.| 2. .",
"@.| >.o.$. ... .| | o.} %.} ' ' | %.>.>.] R.I.; Z.Q.y.+ % > $ i > o   t 8.% @ Y | R | #.1.4.3.| :.| ",
".. .X.|  .} |  .} ..o...+.} } } | $.4.&.Z V.E.; l V c % + o O . % r r # . + 5 U }  .&.>.| :.#.A } R ",
"&.'  .$.| R } } }  .| } >.| | o.| %.2...' [ 6.< o 9 9 w r r d l r % + . . = $.R X. .| @. .:.&.R | @.",
"$.}  ... .} } } } | +.o.| &.' %.<.>.#. .@.A S = + 8 8 4 o X # . . . . + . = } A } :.:.#.&.} } } X.&.",
"$.| } A @.| } } |  .o.| &.>.| -.>. ...| %.} R 1 O # # # O X G X o : 8 8 o 1 ..&.1.3.%.&.$.} } &. .X.",
"%.} | } } R } o. ...} R >.3.&.#.&. .o.}  .o.E 3 + % % % O D >.= $ 9 9 : O D >.=.5.1.] | | | | |  .R ",
"$.2.| | &.| +.| } ' } %.%.%.>.*.Z } O.|  .$.<.E , @ @ @ 1 E &.H O # o   & T T >.&.&. .X.1.o.,.X.} o.",
"E  .O.o.o.| } o.| O.o.} :.X.} $.|  .O.| o.&.$. .>.$.I R R |  .$.F 1 2 G #.| :.3.1.o.| } | }  . .o.:."
};
