/* XPM */
static char *playerback1675863109[] = {
/* columns rows colors chars-per-pixel */
"50 50 166 2 ",
"   c #171615",
".  c #191616",
"X  c #171A17",
"o  c #1A1A16",
"O  c #1A1718",
"+  c #1C1B1A",
"@  c #241B15",
"#  c #211D1C",
"$  c #281E1D",
"%  c #1C2316",
"&  c #1E2C16",
"*  c #172119",
"=  c #1C2219",
"-  c #1E2B18",
";  c #202517",
":  c #232D15",
">  c #24221B",
",  c #2B221C",
"<  c #212B19",
"1  c #2A2A1F",
"2  c #352915",
"3  c #332A1B",
"4  c #253316",
"5  c #283317",
"6  c #273B16",
"7  c #2B3D14",
"8  c #233319",
"9  c #29371A",
"0  c #2A3B19",
"q  c #211F20",
"w  c #1F2021",
"e  c #242323",
"r  c #292625",
"t  c #2A2B26",
"y  c #2B2728",
"u  c #2D2B2B",
"i  c #362925",
"p  c #392B26",
"a  c #302E2E",
"s  c #2F302E",
"d  c #3A3623",
"f  c #35312F",
"g  c #3C332C",
"h  c #322F30",
"j  c #343433",
"k  c #393635",
"l  c #373834",
"z  c #3A3835",
"x  c #393738",
"c  c #3B3A3A",
"v  c #433219",
"b  c #4C3B1E",
"n  c #412E27",
"m  c #443129",
"M  c #48352D",
"N  c #443C2D",
"B  c #423C37",
"V  c #423E3E",
"C  c #533B32",
"Z  c #583F38",
"A  c #374F0F",
"S  c #33520F",
"D  c #3C550C",
"F  c #3D5D0C",
"G  c #2E4315",
"H  c #2F4219",
"J  c #314515",
"K  c #334B13",
"L  c #324719",
"P  c #364B1A",
"I  c #3B4C1A",
"U  c #355113",
"Y  c #3A5413",
"T  c #3D5A12",
"R  c #3D581B",
"E  c #3E640A",
"W  c #3D6214",
"Q  c #3E4722",
"!  c #3F423A",
"~  c #415D0D",
"^  c #425D12",
"/  c #40531C",
"(  c #445F19",
")  c #43640D",
"_  c #49670D",
"`  c #456A0C",
"'  c #496C0E",
"]  c #47700B",
"[  c #4C720D",
"{  c #4F780E",
"}  c #50750E",
"|  c #527A0E",
" . c #456411",
".. c #496613",
"X. c #466911",
"o. c #4B6C12",
"O. c #466419",
"+. c #496719",
"@. c #456A19",
"#. c #4B6D1B",
"$. c #506E19",
"%. c #4E7212",
"&. c #4F7910",
"*. c #4D711B",
"=. c #517513",
"-. c #597216",
";. c #547A12",
":. c #5A7E16",
">. c #51731A",
",. c #577B18",
"<. c #404720",
"1. c #43433E",
"2. c #49433D",
"3. c #5C4236",
"4. c #53493B",
"5. c #67453A",
"6. c #634A3E",
"7. c #6B4B3C",
"8. c #7A5D32",
"9. c #496522",
"0. c #4A6B23",
"q. c #507421",
"w. c #7C6028",
"e. c #64673B",
"r. c #434343",
"t. c #4A4543",
"y. c #494A45",
"u. c #4C4C4C",
"i. c #504943",
"p. c #554D49",
"a. c #4F514B",
"s. c #5E5243",
"d. c #50504F",
"f. c #504F50",
"g. c #505050",
"h. c #595957",
"j. c #5D5C5B",
"k. c #615F5F",
"l. c #675948",
"z. c #727347",
"x. c #61605F",
"c. c #615F60",
"v. c #646261",
"b. c #686666",
"n. c #696866",
"m. c #6B6A69",
"M. c #8D6B30",
"N. c #88682A",
"B. c #598312",
"V. c #D7A031",
"C. c #928369",
"Z. c #A1896F",
"A. c #A38D75",
"S. c #B89B7F",
"D. c #B39A7C",
"F. c #91908E",
"G. c #959591",
"H. c #ADABA9",
"J. c #C0A487",
"K. c #C5AA87",
"L. c #C7A68A",
"P. c #CDAE8F",
"I. c #D8B491",
"U. c #DEC499",
"Y. c #F2CDA5",
"T. c #FAD1A7",
/* pixels */
"+.o.) ) ' ) [ _ +.:.' ` [ o.) ' ) ) o.~ ~ ~ ~ D D ) )  .D ~ [ ` ) ~ ^ +.>...%.E ] | ` F ~ _ o.` ] _ ",
"F ' ' [ ` ..o.o. .o.=.' } ` ) D _ _ F E ) [ ) ] _ ' ` E ' ] _ ` =...o.%.o._ ' ) ) ) ) ` ~ ) ' } ;.) ",
" .X.) ~ ` ' ( [ [ [ ' ` [ ` ` =.E ) ` ) ' ` ) ) ] ` ) ' ..) F ) ;.;.#.%._ ) E o.` _ ) ' _ ' ) ] _ E ",
"=.' =.~ E o.$.:.o.B.E F ^ _ ) ) ` F o.Y A J 4 5 4 : : 5 7 S F F ' #.) ' _  .[  .) F ` ` ` ' ` ` o.' ",
"o.) ' o. .o.:._ &.%.` [ ~ ~ D X.' G : + # e a z V r.c x y # o = 8 X.) ] ) ) ` %.) ] ' ` ` ` _ ) ) ` ",
" ._ ) #.O.+.' ) ) ` ' [ ` ' W G = = c g.v.m.m.m.b.b.m.m.m.m.j.t.i + 8 U X.' E &.` ' [ ' ' _ ) ] ] ] ",
"^ +.~ o.X.o.[ ]  .` ] ' E T 8 + 1.v.m.v.j.h.g.g.f.f.g.v.v.h.j.b.m.g.u * L T ] o.' ) ] ) ) ` F ` %.` ",
"..o.>.%.o. .~ ' ' ` o._ Y * r j.m.j.g.d.d.d.g.g.g.g.g.g.f.g.a.g.g.x.m.! + 6 o.E | [ } ] ) ~ ) ~ ' ` ",
"'  .o.) ~ ` ) ' ` ` _  .* u n.c.g.g.g.g.g.g.g.g.g.g.g.g.g.g.g.g.g.g.g.v.g.+ G E [ _ ' ] ' ] ' ' ) ` ",
"^ ~ [ _ ' ' ' ' ` [ %.& e n.j.g.g.g.g.g.g.g.g.g.f.y.c r.g.g.g.g.g.g.g.g.c.u.O U ] [ ' '  .) ` _ E ] ",
"F [ _ ` ) %.' D ) ~ K + j.j.g.g.g.g.g.g.g.g.g.g.f.y.c r.g.g.g.g.g.g.g.g.g.j.j * T E ` ) ) ) [ ' %...",
"+._ ` E ` ` ) ` ' W - c c.f.g.g.g.g.g.g.u.g.g.g.g.f.f.f.f.g.g.g.g.g.g.g.g.a.h.+ 7 ) %.' _ ' ' _ F ) ",
") ] | %.%.] ` _ ) U + x.g.g.g.g.g.g.g.g.g.g.g.g.g.g.g.g.g.g.g.g.g.g.g.g.g.g.g.c % ) E ) ~ ` ) ~ ) ] ",
"^  .' E ` %.} '  .4 j h.g.g.g.a.g.g.g.g.g.g.u.g.g.g.g.g.g.g.g.g.g.g.g.g.g.f.y.f.+ K ) ' ' ) ` ` X.[ ",
" .` &.) ' ` F ' F * r.g.g.g.g.g.g.u.g.g.g.g.g.g.g.g.g.g.g.g.g.g.g.g.g.g.g.r.r.g.e 7 _ ' ) %.X.{ E ) ",
") _ ' ` ' ` ) ' U + y.g.g.g.g.g.u.u.g.g.g.g.g.g.g.g.g.g.g.g.g.g.g.g.g.g.g.g.y.c u - ] ` ] ) } _ F ` ",
" .] ' ) [ o.) ) G w y.g.g.g.g.g.g.r.g.g.g.g.g.g.g.g.g.g.g.g.g.g.g.g.g.g.g.g.u.r.j *  .) ` ) ` _ ) %.",
"^ _ ) ) } _ ` X.6 e g.g.g.g.g.g.u.c u.g.g.f.g.g.g.u.g.g.g.g.g.g.g.g.g.g.g.g.g.g.r.X T X._ ' [ ` E ] ",
"^ ~ %.~ ) ` )  .8 t a.g.g.g.g.g.g.u.u.g.g.g.g.g.g.g.g.g.g.g.g.g.g.g.f.f.g.g.f.u.c o +.%.o._ ) ' ` &.",
"~ ~ ) E _ [ )  .8 s g.a.g.g.g.g.g.g.g.g.g.g.g.g.g.g.g.g.g.g.g.u.f.u.r.r.c s w w + o R %.o.) ` ` ) ) ",
"F ) =.[ ] ] ^ ~ 8 u y.g.f.r.u.g.g.g.u.g.g.f.r.r.r.c c x j s e w + + + X = e j r.1.X X.%.` ' ) ` X.` ",
"^ [ ' { ' ` ) ) 4 e r.g.f.u.j r s r.u.f.g.u.u.r.c s s u u u s j c c r.u.f.g.g.g.r.X  .' )  .' ` &.] ",
"^ X.E E %.) %.X.H + 1.u.f.g.g.r.x w w w w u s x c c r.r.r.r.r.r.r.V c y.g.g.g.u.s * o.) ] ~ ) ` %.] ",
" .' [ X. .] ) ' T + h c u.g.g.f.g.u.u.c x s w w + w O * w w w w s c r.f.g.g.r.x e & ) ) } } [ ) [ ) ",
" .[ ` ` ] ) ' ] T = . O e j V u.f.f.f.f.f.f.f.f.f.u.f.u.f.f.f.f.f.f.f.u.V s e O   G #.o.E ' ) D E E ",
") =.[  ._ E ) `  .J o j y w . O + q r u h h x x c c x x j j h u r w + O O + u r *  .` ) ` ' X.) _ ^ ",
" .} ` ' ' ~ ) ) o.( - r c c l a y q q + O O O O O O O   O O O O + e y s x c x o 6 ' ` o.[ `  .` [ o.",
"=.~ ) ~ ~ ) ' ~ o.>.J o u c c c V c x x x h h h s u s s h j x x c c c c x c w *  ._ ` ` ' ) ) o.] ] ",
"S D ` F _ } ` ' o.%.~ 9 X j c j y x c c c c c x c c c c x c c c c c c c c r o U ` [ ] ` ' ) ` X. .` ",
"_ ' ` ` _ ` ) ) ..[ ) X.< . t + j + j c c c c c c c c x c c c c c c c l e O U %.E ` _ ) ) ' ' } ` | ",
"=.~ o._ ~ [ ' ~ ` ' ) ~ %.9 + # y.y.q y q u x x c c x x x x x h s y e + X J o.] ' ' _ ) ) ) ] %.F ` ",
") ) ) E ~ [ ' ` ' [ F ) ' E J o + 1.u.# b n q w w q w w w O w w e + O - U X.) ) ' ) [ ` ) ` ` ' ' [ ",
" .~ } ` ~ ) E ) ) ` )  ._ `  .T : o y 2 V.w.# # y u u a h a u q + o L  .) ) ~ ) E F [ ) ] [ ' } ' [ ",
") ~ _ ` ` ' ) ` _ ] ) ) _ ` ~ T 0 o $ M.N.@ i.f . + # + + . . + + O P ) ) ) ) [ ) ' ` ) _ ` [ ' ` ` ",
"D ~ ~ F ) _ [ [ ` ) &.` `  .F 5 o t 3 8.@ g i.B @ q O # # O # u y.l + 8 O.E ] o.) ' ) ` } ) E ) X.;.",
"..~ ) ) ) ' ) ` ) { ) E ) D G + c u.y O e z B y $ 6.+ . O y y # y.d.t & o.` ' ) ) ` B.) _ ~ ` [ E [ ",
"X.` _ ' ` %.` ' ) ~ ) ' ` J o l a.1.y + # y k + m m . e . # k O l ! > ; 4  .~ %.) ` ' ` ~ ) ' [ _ ` ",
"o.` ;.` ` ) ^ _ ) ) } ` T = + 1.y.x o e e . # @ C @ . . p @ y O > = N C.Q 9.O. .#.[ B.` ` ` ) [ +.] ",
">.| ` ' ) ) ) [ ' ` ' X.= g g = t r . # p Z > @ p O $ Z 3.@ + + + l.L.K.z./ Y ) ) ` ' ' _ ) [ '  .>.",
"X.) '  .%.] ` X.' ' ' G > J.A.s.@   n 5.7.C >   . m C i # r k + @ S.Y.U.e.I _ -.F E | _ ` ' ~ ' X.X.",
"o.| [ ` ` ` ) ) ' ) F 7 g T.I.S.4.o M p @ o u r + > . . + 2.p.2.> o d I I / ~ o.{ ` ' ] ) ~ =.$.;.;.",
" .o.` F ' ` ' o.' ] F A o Z.Y.P., X   + g.G.H.H.F.i o # # B V p.2.= H U o.+.^ o.| ' } ) [ ..o.X.;.[ ",
") ' [ [ X.' _ ' ' ` [ ` H o , # * X + o O . . . . . . . . f z B 4.r T E '  .W  .) ` ` O.=.:.=.X.%.) ",
"o.` ] ` ' ) ` ` ) ` ' _ &.D K K T X t f j k k j l l k k a . t f g t U ] o.) { ` ) _ o.%.) [ +.F ) E ",
"o.~ ' o.` E ) _ ) ' ` ` &.` ` %.` H < . . .   . + + o . . O . o < 4 E  .` E o.` ] o.' X.' =.) ) `  .",
"..~ ` ' ` ) ) ) ) ` { ]  .o.~ +.>.*.L o . o . o 5 K ; . e = X Y T '  .o.&.&.) F ) %.o...o.) ) ` ] o.",
" .` ) ~  .` ) ) ` ' [ ' #.q.@.0.0.0.R o # r # o U %.Y = X X H %.#.X.X.#.X.o._ o.=.-.o...o.) ) X.' ] ",
"o.` ) ) ) E ) } ' _ ) E *.q.#.0.*.*.*.0 . .   7 #.` =. .W W %.X.*.*.W #.X.X.o.#.B.%.^ ` ` ` ` ` ' ) ",
"o.&.` ` o.' | ` ) ~ ) o.#.o.>.( T O.*.@.Y J T X.%.` T &.%. .#.o.O.X.@.%.T  .F ' o.*.' ' } [ } ] ) } ",
"T ' =.} ] `  .] ' } ] ` %.o.E o.' _ &.` ] #.X.' &.o.W _ E ` o.` | [ E ` #.` %.-.=.] ` ) ` E ' ' ] %."
};
