/* XPM */
static char *wall1675858277[] = {
/* columns rows colors chars-per-pixel */
"50 50 128 2 ",
"   c #32321B",
".  c #3B3D1E",
"X  c #312725",
"o  c #352D25",
"O  c #362E2A",
"+  c #382F2A",
"@  c #363323",
"#  c #3A3525",
"$  c #3E3C24",
"%  c #3C332D",
"&  c #3F3A2A",
"*  c #3F3531",
"=  c #413E25",
"-  c #40372F",
";  c #423C2D",
":  c #413632",
">  c #443A35",
",  c #483D36",
"<  c #463C39",
"1  c #493E3A",
"2  c #334207",
"3  c #37470A",
"4  c #3B4B0B",
"5  c #3E520B",
"6  c #3D4616",
"7  c #3F4C12",
"8  c #3E421C",
"9  c #3F4022",
"0  c #42530E",
"q  c #465A0D",
"w  c #4A5E0E",
"e  c #424D14",
"r  c #41461E",
"t  c #454C1C",
"y  c #484E1D",
"u  c #455313",
"i  c #495615",
"p  c #475911",
"a  c #4B5C13",
"s  c #47511A",
"d  c #4A541C",
"f  c #4E5B1B",
"g  c #515F17",
"h  c #515C1D",
"j  c #4C620D",
"k  c #51660E",
"l  c #52690E",
"z  c #4E6112",
"x  c #4F6018",
"c  c #526413",
"v  c #566914",
"b  c #5A6C17",
"n  c #54631B",
"m  c #59691C",
"M  c #434423",
"N  c #464A22",
"B  c #4A4D24",
"V  c #45432A",
"C  c #49452D",
"Z  c #4B4B2C",
"A  c #4D5223",
"S  c #4F5821",
"D  c #4E522C",
"F  c #515626",
"G  c #525C23",
"H  c #585E26",
"J  c #50532B",
"K  c #545A2B",
"L  c #464231",
"P  c #4A4434",
"I  c #4D4A32",
"U  c #474039",
"Y  c #4C423D",
"T  c #4E483A",
"R  c #504D34",
"E  c #50443E",
"W  c #534B3D",
"Q  c #545432",
"!  c #55533A",
"~  c #58553C",
"^  c #5B583F",
"/  c #556121",
"(  c #5A6624",
")  c #596921",
"_  c #5B612C",
"`  c #596036",
"'  c #60633B",
"]  c #69733D",
"[  c #4E4441",
"{  c #514643",
"}  c #544945",
"|  c #564D49",
" . c #594E4B",
".. c #575146",
"X. c #595544",
"o. c #56534B",
"O. c #5A524C",
"+. c #5C5B4E",
"@. c #5E5651",
"#. c #5F5852",
"$. c #5A5C58",
"%. c #625B54",
"&. c #5F654F",
"*. c #616849",
"=. c #6C6C4F",
"-. c #676256",
";. c #6A6951",
":. c #66615B",
">. c #6B645E",
",. c #6B7353",
"<. c #72715C",
"1. c #616360",
"2. c #6D6760",
"3. c #6D6A64",
"4. c #736D65",
"5. c #756F69",
"6. c #767463",
"7. c #797767",
"8. c #7B7964",
"9. c #76716A",
"0. c #79746D",
"q. c #747773",
"w. c #777A76",
"e. c #7E7A70",
"r. c #827D76",
"t. c #847F78",
"y. c #87827B",
"u. c #8A857E",
/* pixels */
"[ { [ { [ [ { [ [ [ [ [ > f S [ } } o.} { } | E C d D [ < * : : < < Y 1 { E 1 < 1 < 1 1 1 1 : : 1 Y ",
"Y [ [ [ { [ } { | { Y < Y S s I S / ..! J y y : M . # % * + + + * > [ } { [ : < 1 1 1 , < 1 : < < [ ",
"[ { < [ { [ {  .O. .1 [ [ Y Y x j a S w g Z > : > % : - , : : + * % P U [ : , < 1 1 < < < , N P 1 [ ",
"[ [ [ [ [ |  . .O. .Y { [ Z Q D i x A p g I > 1 - : < < , < : : U V c D 1 1 1 Y 1 1 1 1 < C a r [ } ",
"[ [ { [ {  .O.O.{ { [ { I j n d j z M N P Y 1 1 1 : : : : < > > 1 P f A > Y 1 Y 1 E 1 1 P , V ; [ [ ",
"[ [ { [ | |  .} [ [ [ T I h n c j l N , E E 1 Y 1 < < , < < > 1 1 Y T ..G P 1 L T , C M a B < < [ [ ",
"[ [ } {  . .} [ R R T h i _ W Z f f ; 1 E 1 1 E 1 1 < , > > M A P | %.>.<.O.; u i i i 0 w h > < [ Y ",
"{ {  .|  .} { [ S w F a j F J I A d : < , , 1 1 1 < , E 1 , d k K #.>.9.r.;.B a i s t . y d y I Y [ ",
"|  . . . .} { I A g g b n h j f M M : : - < < < < 1 { { { 1 Z F P ..-.4.6.m p t a i .   e k a J Y Y ",
"{  . .} } } 1 i y J l w d M c y # - : : : : , < > J R 1 1 1 , , < V / } _ f w d l w e 3 0 s f C Y Y ",
"}  .} } } 1 B c f I b k K , = # s = - : - : < < M l g V E 1 , 1 : $ d R j d z v d M 0 3 e M R E [ [ ",
"} } { } W , g h B ; 4.6.0.9.>.+.J 8 % % : : > : V c w w y M i B : [ {  .I C c j g k z i t , E 1 [ [ ",
"{ } 1 E Z , = a j ( 4.4.2.>.%.o., y $ % * % M Z d a p j g d k y : { }  . .} C r g w s i d , Y Y [ { ",
", E Z y k t - y u ~ %.%.@. .} Y , %.%.1 % & * : i j t h B , P , d Y } {  .^ I k z B F w c ; : < < E ",
"B k g 8 y - o - ; # E  .} } Y : } >.2.O.% s f > ; S j t 1 Y 1 E ; = Y } W j h v v R { R P = ; U : : ",
"@ q 0 o o - - - - - + { { , t 8 ; } { P B F A Y Y Q n > Y 1 , ; d a v ~ | A U C P E { E P a B : : O ",
"o 8 = O - : : : * > % * * # p p 9 % O & f n _ Y Y E P 1 , > < ; u j k Q  .E [ [ [ { { P f A & > < O ",
"+ O - : : : < : > * > O * # t B & % 9 Z d c Z Y 1 , , < , : > I ( c b Z R E [ { Y { [ B z J * * * O ",
"- - : % - % : : * < > > * * * < U * V Z J P P 1 , > < , , , O.4.7.' i h w Z 1 [ Y [ 1 U Z W * & O O ",
"- - + % : : % : : < < > < < < < U Z V d d > < , < < > : { 4.y.t.9.%.y g f Y 1 Y 1 { Y { Y W t t % % ",
"+ : : + : : : : : : < : < < < < * N N s f L > < , : : > >.0.9.2.%. .V M Z R 1 , 1 [ } } Y C c w # % ",
"- + : : : * : : < < : , [ U < < 9 N N p c V : < : > < < %.>.>.%.O.E P P g d ; , , P A / C ; N V & % ",
": O : : - * < : Y 1 : : * * * 9 / k f a n ; : < , < < : | %.%. .} , h A t u i ; B ( v j t y V ; * % ",
": : : : : < : < < : < { } } } Z a j S i d ; r ; < , , < < Y { 1 - $ w c w c z Z h v v j f j u V % % ",
": : : : : > > : * [ Y F K { I 7 y h d c y Z r r : : , : : % % O X + C B i _ ~ 1 > y w g g a f = O % ",
": : > : < < , : < { Z p S 9 9 N y k n y u d l q = C - ; - + O X O - , 1 ! E  . .P B g c k g c w A % ",
": : > > > < : : < T D f x j 9 9 y w z = V h v F i a @ e r s # $ % - , 1 } } } 1 E E E h w i i 0 9 % ",
"+ : : : : : : : * B p x A x S B B y i e h l k A ; P < E A i r c t > Y 1 1 } 1 1 { 1 1 , J R I J * % ",
"O : : : : : < R S d p p C M w q g w a i h v j d { 1 1 [ 1 P N a t > Y E 1 1 1 1 1 1 { 1 Y { } E : > ",
"> > > , < < E G c F B B Z i k w g w c w g B Z P 1 { 1 1 Y Y B a B Y T Y 1 : , 1 1 1 1 1 1 Y E 1 < % ",
"> > , , 1 1 , R Q E 1 , A k a v c g c k v I 1 1 1 1 < < : < B j n G H > ; t > , , 1 , 1 1 1 Y { Y * ",
"> : > > , > , 1 1 E E ; = r n k c w f a g ; 1 < , < < : : < D K G j g W 4.,., ; > > 1 1 Y 1 1 Y < % ",
": > : > : : : > { 3.3.D p N n j i a i e 0 M > > > , , * < { E K H t y :.w.q.&.z t L 1 1 Y 1 1 1 : * ",
"O : : : : : : : 1 $.&.d j s v j s k w r 0 r > > > : > * 1 { W m p = M o.:.&.` z d C 1 1 1 1 1 , % * ",
"O : : : : - - - * M t 9 z X.] m i k t & t d a r : * > U { { } F A Z a t V n v m z B , U 1 1 1 > O * ",
"+ : : : : + - % O . u T 8.u.e.=.h w d ; % y w s : > : [ 1 E 1 > , V r p d k j d z B , < Y 1 < : * O ",
": + % % % % % + + % +.r.y.0.3.%.! v i M % - M Z : : , E 1 < 1 , 1 1 B k k h l g ; > : < 1 { < % % O ",
": O + + . $ O % - < %.4.3.:.%. .1 e 0 r : : - : : < > 1 1 : 1 1 1 < V c i G l w C > < > 1 Y < * * [ ",
"1 : O t 0 6 o % % C ..:.%.#.| T C s t t V ; : < < < : < { < > < 1 < : > M l g i ; > < < 1 1 : * { { ",
"[ [ < = 0 e e e a j S O.O.} U B 0 0 6 0 p V % > < : < : > > : < < < , 1 = r M V : , < < [ 1 * : [ [ ",
"[ U < * @   z z d u t < , * o e u e 4 2 0 Z > > > > < : > < < < : : , : < e 5 ; : , > 1 < < : % Y [ ",
"< < < < % 8 c x s g 8 o o . 6 j i 8 . 6 r ; % : : : < < < > > * : , : , : N e ; > : : < 1 < > % < [ ",
"* U 9 U * s j k w k w 6 $ 9 r a a t $ N s r ; > - : : < : : < * < > > : < : y d , : , < < < < > < < ",
"< [ [ [ U V S 9 0 0 k q M > : % $ & N B j e % < : > < : < : * U > > : < : : A p - : : < < < U 1 V V ",
"[ [ [ < [ [ 9 < N $ 8 h > < > < < < Y < Z ; % : E 1 > > * [ * * : : > > : : , & M : Z I , L f n d V ",
"[ [ [ [ [ [ [ [ > # @ V < , < 1 [ [ } [ < < > @.4.2.} > * 9 & B y : , : > > * $ i t x n H f S f P 1 ",
"[ [ [ U } { [ Y L t 7 d < 1 1 [ } [ } { [ Y Y O.%.%. .i 9 7 z x g = s - * O + + & 8 q d S n P P < * ",
"[ [ [ [ } } [ [ > u 5 s U 1 [ { } } { [ [ [ U Y { { E y 9 7 j x k y = % O % * > , % M s x f L < * > ",
"U [ [ [ [ [ [ [ < 9 9 9 U [ U [ o.U [ [ } [ < * < * * [ * % * 9 i M & + : 1 1 1 1 1 > ; f a % % % Y ",
"[ [ < [ < [ [ | | U U U [ o.[ o.[ [ [ o.o.[ | * * * [ [ U < O O % : : : 1 1 Y 1 Y Y Y 1 , : % < 1 1 "
};
